<?xml version="1.0" encoding="utf-8"?>
<!-- Generator: Adobe Illustrator 23.1.1, SVG Export Plug-In . SVG Version: 6.00 Build 0)  -->
<svg version="1.1" id="Capa_1" xmlns="http://www.w3.org/2000/svg" xmlns:xlink="http://www.w3.org/1999/xlink" x="0px" y="0px"
	 viewBox="0 0 87.5 87.2" style="enable-background:new 0 0 87.5 87.2;" xml:space="preserve">
<style type="text/css">
	.st0{fill:none;stroke:#1AD5B1;stroke-width:0.5;stroke-miterlimit:10;}
	.st1{fill:#2045F4;}
</style>
<circle class="st0" cx="43.7" cy="43.6" r="43"/>
<g>
	<g>
		<g>
			<path class="st1" d="M55.2,25.2C55,25.1,54.8,25,54.6,25c-0.2,0-0.5,0.1-0.6,0.3c-0.2,0.2-0.3,0.4-0.3,0.6c0,0.2,0.1,0.5,0.3,0.6
				c0.2,0.2,0.4,0.3,0.6,0.3c0.2,0,0.5-0.1,0.6-0.3c0.2-0.2,0.3-0.4,0.3-0.6C55.5,25.6,55.4,25.4,55.2,25.2z"/>
		</g>
	</g>
	<g>
		<g>
			<path class="st1" d="M53,29.3h-5.7c-0.5,0-0.9,0.4-0.9,0.9v5.7c0,0.5,0.4,0.9,0.9,0.9H53c0.5,0,0.9-0.4,0.9-0.9v-5.7
				C53.9,29.6,53.5,29.3,53,29.3z M52.1,34.9h-3.9V31h3.9V34.9z"/>
		</g>
	</g>
	<g>
		<g>
			<path class="st1" d="M53,39.2h-5.7c-0.5,0-0.9,0.4-0.9,0.9v5.7c0,0.5,0.4,0.9,0.9,0.9H53c0.5,0,0.9-0.4,0.9-0.9v-5.7
				C53.9,39.6,53.5,39.2,53,39.2z M52.1,44.9h-3.9V41h3.9V44.9z"/>
		</g>
	</g>
	<g>
		<g>
			<path class="st1" d="M50.1,49.2h-2.8c-0.5,0-0.9,0.4-0.9,0.9v5.7c0,0.5,0.4,0.9,0.9,0.9c0.5,0,0.9-0.4,0.9-0.9v-4.8h2
				c0.5,0,0.9-0.4,0.9-0.9S50.6,49.2,50.1,49.2z"/>
		</g>
	</g>
	<g>
		<g>
			<path class="st1" d="M43,29.3c-0.5,0-0.9,0.4-0.9,0.9v4.8h-4.8c-0.5,0-0.9,0.4-0.9,0.9c0,0.5,0.4,0.9,0.9,0.9H43
				c0.5,0,0.9-0.4,0.9-0.9v-5.7C43.9,29.6,43.5,29.3,43,29.3z"/>
		</g>
	</g>
	<g>
		<g>
			<path class="st1" d="M43,39.2h-5.7c-0.5,0-0.9,0.4-0.9,0.9v5.7c0,0.5,0.4,0.9,0.9,0.9H43c0.5,0,0.9-0.4,0.9-0.9v-5.7
				C43.9,39.6,43.5,39.2,43,39.2z M42.1,44.9h-3.9V41h3.9V44.9z"/>
		</g>
	</g>
	<g>
		<g>
			<path class="st1" d="M43,49.2h-5.7c-0.5,0-0.9,0.4-0.9,0.9v5.7c0,0.5,0.4,0.9,0.9,0.9H43c0.5,0,0.9-0.4,0.9-0.9V50
				C43.9,49.6,43.5,49.2,43,49.2z M42.1,54.8h-3.9v-3.9h3.9V54.8z"/>
		</g>
	</g>
	<g>
		<g>
			<path class="st1" d="M45.4,61.9c-0.2-0.2-0.4-0.3-0.6-0.3s-0.5,0.1-0.6,0.3c-0.2,0.2-0.3,0.4-0.3,0.6c0,0.2,0.1,0.5,0.3,0.6
				c0.2,0.2,0.4,0.3,0.6,0.3s0.5-0.1,0.6-0.3c0.2-0.2,0.3-0.4,0.3-0.6C45.6,62.3,45.5,62,45.4,61.9z"/>
		</g>
	</g>
	<g>
		<g>
			<path class="st1" d="M56.8,20.2H32.7c-1.5,0-2.7,1.2-2.7,2.7v0.4h-5.3c-1.5,0-2.7,1.2-2.7,2.7V34c0,1.5,1.2,2.7,2.7,2.7h8.2
				c1.5,0,2.7-1.2,2.7-2.7v-7.3h14.9c0.5,0,0.9-0.4,0.9-0.9c0-0.5-0.4-0.9-0.9-0.9H35.4c-0.4-1-1.4-1.8-2.5-1.8h-1.1v-0.4
				c0-0.5,0.4-0.9,0.9-0.9h24.2c0.5,0,0.9,0.4,0.9,0.9v20.1c0,0.5,0.4,0.9,0.9,0.9s0.9-0.4,0.9-0.9V22.9
				C59.5,21.4,58.3,20.2,56.8,20.2z M33.7,34c0,0.5-0.4,0.9-0.9,0.9h-8.2c-0.5,0-0.9-0.4-0.9-0.9v-0.3c0,0,0.1-0.1,0.1-0.1l2.8-2.8
				l2,2c0.3,0.3,0.9,0.3,1.3,0l3.8-3.8V34z M32.9,25c0.5,0,0.9,0.4,0.9,0.9v0.6l-4.4,4.4l-2-2c-0.3-0.3-0.9-0.3-1.3,0l-2.3,2.3v-5.4
				c0-0.5,0.4-0.9,0.9-0.9H32.9z"/>
		</g>
	</g>
	<g>
		<g>
			<path class="st1" d="M64.8,46h-9.6c-1.5,0-2.7,1.2-2.7,2.7v9.6c0,1.5,1.2,2.7,2.7,2.7h2.5V63c0,0.5-0.4,0.9-0.9,0.9H32.7
				c-0.5,0-0.9-0.4-0.9-0.9v-2.1h18.8c0.5,0,0.9-0.4,0.9-0.9s-0.4-0.9-0.9-0.9H31.8v-19c0-0.5-0.4-0.9-0.9-0.9S30,39.6,30,40.1V63
				c0,1.5,1.2,2.7,2.7,2.7h24.2c1.5,0,2.7-1.2,2.7-2.7v-2.1h5.3c1.5,0,2.7-1.2,2.7-2.7v-9.6C67.5,47.2,66.3,46,64.8,46z M65.7,58.2
				c0,0.5-0.4,0.9-0.9,0.9h-9.6c-0.5,0-0.9-0.4-0.9-0.9v-9.6c0-0.5,0.4-0.9,0.9-0.9h9.6c0.5,0,0.9,0.4,0.9,0.9V58.2z"/>
		</g>
	</g>
	<g>
		<g>
			<path class="st1" d="M62.7,29.3c-0.5,0-0.9,0.4-0.9,0.9v7.1c0,0.5,0.4,0.9,0.9,0.9c0.5,0,0.9-0.4,0.9-0.9v-7.1
				C63.6,29.6,63.2,29.3,62.7,29.3z"/>
		</g>
	</g>
	<g>
		<g>
			<path class="st1" d="M63.3,40c-0.2-0.2-0.4-0.3-0.6-0.3c-0.2,0-0.5,0.1-0.6,0.3c-0.2,0.2-0.3,0.4-0.3,0.6c0,0.2,0.1,0.5,0.3,0.6
				c0.2,0.2,0.4,0.3,0.6,0.3c0.2,0,0.5-0.1,0.6-0.3c0.2-0.2,0.3-0.4,0.3-0.6C63.6,40.4,63.5,40.1,63.3,40z"/>
		</g>
	</g>
	<g>
		<g>
			<path class="st1" d="M26.8,40.7c-0.5,0-0.9,0.4-0.9,0.9v6.1c0,0.5,0.4,0.9,0.9,0.9s0.9-0.4,0.9-0.9v-6.1
				C27.7,41.1,27.3,40.7,26.8,40.7z"/>
		</g>
	</g>
	<g>
		<g>
			<path class="st1" d="M62.8,51.7l-3.1-1.8c-0.6-0.3-1.3-0.3-1.9,0c-0.6,0.3-1,1-1,1.7v3.6c0,0.7,0.4,1.3,1,1.7
				c0.3,0.2,0.6,0.3,1,0.3c0.3,0,0.7-0.1,1-0.3l3.1-1.8c0.6-0.3,1-1,1-1.7C63.8,52.7,63.4,52.1,62.8,51.7z M61.9,53.6l-3.1,1.8
				c-0.1,0-0.1,0-0.2,0c-0.1,0-0.1-0.1-0.1-0.1v-3.6c0-0.1,0-0.1,0.1-0.1c0,0,0.1,0,0.1,0c0,0,0.1,0,0.1,0l3.1,1.8
				c0.1,0,0.1,0.1,0.1,0.1C62,53.5,62,53.5,61.9,53.6z"/>
		</g>
	</g>
</g>
</svg>
