<?xml version="1.0" encoding="utf-8"?>
<!-- Generator: Adobe Illustrator 23.1.1, SVG Export Plug-In . SVG Version: 6.00 Build 0)  -->
<svg version="1.1" id="Capa_1" xmlns="http://www.w3.org/2000/svg" xmlns:xlink="http://www.w3.org/1999/xlink" x="0px" y="0px"
	 viewBox="0 0 87.5 87.2" style="enable-background:new 0 0 87.5 87.2;" xml:space="preserve">
<style type="text/css">
	.st0{fill:none;stroke:#1AD5B1;stroke-width:0.5;stroke-miterlimit:10;}
	.st1{fill:#2045F4;}
</style>
<circle class="st0" cx="44" cy="43.9" r="43"/>
<g id="Outline">
	<path class="st1" d="M31.3,23.2c0-0.9,0.7-1.6,1.6-1.6h23.7c0.9,0,1.6,0.7,1.6,1.6v7.1h1.6v-7.1c0-1.7-1.4-3.2-3.2-3.2H32.9
		c-1.7,0-3.2,1.4-3.2,3.2v2.4h1.6V23.2z"/>
	<path class="st1" d="M58.1,64.3c0,0.9-0.7,1.6-1.6,1.6H32.9c-0.9,0-1.6-0.7-1.6-1.6V39.8h-1.6v24.5c0,1.7,1.4,3.2,3.2,3.2h23.7
		c1.7,0,3.2-1.4,3.2-3.2V44.5h-1.6V64.3z"/>
	<path class="st1" d="M42.4,23.2h1.6v1.6h-1.6V23.2z"/>
	<path class="st1" d="M45.5,23.2h1.6v1.6h-1.6V23.2z"/>
	<path class="st1" d="M43.9,62.7h1.6v1.6h-1.6V62.7z"/>
	<path class="st1" d="M34.7,39.6c0.3,0.3,0.8,0.3,1.1,0c0,0,0,0,0,0l1.3-1.3h2v-1.6h-2.4c-0.2,0-0.4,0.1-0.6,0.2l-1,1l-1-1
		c-0.1-0.1-0.3-0.2-0.6-0.2h-7.1v-7.9h20.5v1.6h1.6V28c0-0.4-0.4-0.8-0.8-0.8H25.8c-0.4,0-0.8,0.4-0.8,0.8v9.5
		c0,0.4,0.4,0.8,0.8,0.8h7.6L34.7,39.6z"/>
	<path class="st1" d="M63.7,31.9H41.6c-0.4,0-0.8,0.4-0.8,0.8v9.5c0,0.4,0.4,0.8,0.8,0.8h9.9l1.3,1.3c0.3,0.3,0.8,0.3,1.1,0
		c0,0,0,0,0,0l1.3-1.3h8.4c0.4,0,0.8-0.4,0.8-0.8v-9.5C64.5,32.3,64.1,31.9,63.7,31.9L63.7,31.9z M62.9,41.4H55
		c-0.2,0-0.4,0.1-0.6,0.2l-1,1l-1-1c-0.1-0.1-0.3-0.2-0.6-0.2h-9.5v-7.9h20.5V41.4z"/>
	<path class="st1" d="M45.5,35.1h1.6v1.6h-1.6V35.1z"/>
	<path class="st1" d="M48.7,35.1h12.6v1.6H48.7V35.1z"/>
	<path class="st1" d="M43.9,38.2h17.4v1.6H43.9V38.2z"/>
	<path class="st1" d="M29.7,30.3h1.6v1.6h-1.6V30.3z"/>
	<path class="st1" d="M32.9,30.3h6.3v1.6h-6.3V30.3z"/>
	<path class="st1" d="M28.2,33.5h11v1.6h-11V33.5z"/>
	<path class="st1" d="M50.3,57.9v-0.8H51c1.3,0,2.4-1.1,2.4-2.4v-1.6c0-1.3-1.1-2.4-2.4-2.4h-0.8c-0.4-3-3.2-5.1-6.3-4.7
		c-2.4,0.4-4.3,2.3-4.7,4.7h-0.8c-1.3,0-2.4,1.1-2.4,2.4v1.6c0,1.3,1.1,2.4,2.4,2.4H40c0.4,0,0.8-0.4,0.8-0.8v-4.7
		c0-2.2,1.8-3.9,3.9-3.9s3.9,1.8,3.9,3.9v6.3c0,0.4-0.4,0.8-0.8,0.8h-3.2v1.6h3.2C49.2,60.3,50.3,59.3,50.3,57.9z M39.2,55.6h-0.8
		c-0.4,0-0.8-0.4-0.8-0.8v-1.6c0-0.4,0.4-0.8,0.8-0.8h0.8V55.6z M51.8,53.2v1.6c0,0.4-0.4,0.8-0.8,0.8h-0.8v-3.2H51
		C51.5,52.4,51.8,52.8,51.8,53.2z"/>
</g>
</svg>
