<?xml version="1.0" encoding="utf-8"?>
<!-- Generator: Adobe Illustrator 23.1.1, SVG Export Plug-In . SVG Version: 6.00 Build 0)  -->
<svg version="1.1" id="Capa_1" xmlns="http://www.w3.org/2000/svg" xmlns:xlink="http://www.w3.org/1999/xlink" x="0px" y="0px"
	 viewBox="0 0 77.3 59.2" style="enable-background:new 0 0 77.3 59.2;" xml:space="preserve">
<style type="text/css">
	.st0{fill:#2045F4;}
	.st1{fill:#1AD5B1;}
</style>
<g>
	<path class="st0" d="M76,0H19.3C18.6,0,18,0.6,18,1.3v37.3c0,0.7,0.6,1.3,1.3,1.3h34.8v11.6h-5.2v2.6h20.6v2.6H48.9v2.6h21.9
		c0.7,0,1.3-0.6,1.3-1.3v-18H76c0.7,0,1.3-0.6,1.3-1.3V1.3C77.3,0.6,76.7,0,76,0z M74.7,2.6v5.2H20.6V2.6H74.7z M56.7,39.9h2.6v2.6
		c0,0.7,0.6,1.3,1.3,1.3s1.3-0.6,1.3-1.3v-2.6h2.6v11.6h-7.7V39.9z M69.5,51.5H67V39.9h2.6V51.5z M20.6,37.3v-27h54.1v27H20.6z"/>
	<path class="st0" d="M6.4,59.2h33.5c3.6,0,6.4-2.9,6.4-6.4c0-0.7-0.6-1.3-1.3-1.3h-5.2v-9h-2.6v9H9V29.6h6.4V27H7.7
		c-0.7,0-1.3,0.6-1.3,1.3v23.2H1.3c-0.7,0-1.3,0.6-1.3,1.3C0,56.3,2.9,59.2,6.4,59.2z M18.8,54.1l0.9,0.9c0.2,0.2,0.6,0.4,0.9,0.4
		h5.2c0.3,0,0.7-0.1,0.9-0.4l0.9-0.9h16c-0.5,1.5-2,2.6-3.6,2.6H6.4c-1.6,0-3.1-1-3.6-2.6H18.8z"/>
	<circle class="st0" cx="23.2" cy="5.2" r="1.3"/>
	<circle class="st0" cx="27" cy="5.2" r="1.3"/>
	<circle class="st0" cx="30.9" cy="5.2" r="1.3"/>
	<path class="st0" d="M23.2,12.9H27v2.6h-3.9V12.9z"/>
	<path class="st0" d="M30.9,12.9h9v2.6h-9V12.9z"/>
	<path class="st0" d="M42.5,12.9h3.9v2.6h-3.9V12.9z"/>
	<path class="st0" d="M23.2,19.3H27v2.6h-3.9V19.3z"/>
	<path class="st0" d="M30.9,19.3h5.2v2.6h-5.2V19.3z"/>
	<path class="st0" d="M38.6,19.3h7.7v2.6h-7.7V19.3z"/>
	<path class="st0" d="M23.2,25.8H27v2.6h-3.9V25.8z"/>
	<path class="st0" d="M30.9,25.8h15.5v2.6H30.9V25.8z"/>
	<path class="st0" d="M23.2,32.2H27v2.6h-3.9V32.2z"/>
	<path class="st0" d="M30.9,32.2h5.2v2.6h-5.2V32.2z"/>
	<path class="st0" d="M38.6,32.2h7.7v2.6h-7.7V32.2z"/>
	<path class="st1" d="M54.5,18.4l-3.9,3.9c-0.5,0.5-0.5,1.3,0,1.8l3.9,3.9l1.8-1.8l-3-3l3-3L54.5,18.4z"/>
	<path class="st1" d="M66.6,18.4l-1.8,1.8l3,3l-3,3l1.8,1.8l3.9-3.9c0.5-0.5,0.5-1.3,0-1.8L66.6,18.4z"/>
	<path class="st1" d="M56.7,30.5L61.9,15l2.4,0.8l-5.1,15.5L56.7,30.5z"/>
</g>
</svg>
