<?xml version="1.0" encoding="utf-8"?>
<!-- Generator: Adobe Illustrator 23.1.1, SVG Export Plug-In . SVG Version: 6.00 Build 0)  -->
<svg version="1.1" id="Capa_1" xmlns="http://www.w3.org/2000/svg" xmlns:xlink="http://www.w3.org/1999/xlink" x="0px" y="0px"
	 viewBox="0 0 69 69.4" style="enable-background:new 0 0 69 69.4;" xml:space="preserve">
<style type="text/css">
	.st0{fill:#1AD5B1;}
	.st1{fill:#FFFFFF;}
</style>
<g>
	<g>
		<g>
			<path class="st0" d="M34.5,41.4c-1.2,0-2.3-1-2.3-2.3s1-2.3,2.3-2.3c1.2,0,2.3,1,2.3,2.3H39c0-2.1-1.4-3.8-3.4-4.4v-1.3h-2.3v1.3
				c-2.4,0.6-3.9,3.1-3.2,5.5c0.5,2,2.3,3.4,4.4,3.4c1.2,0,2.3,1,2.3,2.3s-1,2.3-2.3,2.3s-2.3-1-2.3-2.3H30c0,2.1,1.4,3.8,3.4,4.4
				v1.3h2.3v-1.3c2.4-0.6,3.9-3.1,3.2-5.5C38.3,42.8,36.5,41.4,34.5,41.4z"/>
		</g>
	</g>
	<g>
		<g>
			<path class="st1" d="M34.5,27.8c-8.1,0-14.7,6.6-14.7,14.7s6.6,14.7,14.7,14.7s14.7-6.6,14.7-14.7C49.1,34.4,42.6,27.9,34.5,27.8
				z M34.5,54.9c-6.9,0-12.4-5.6-12.4-12.4s5.6-12.4,12.4-12.4s12.4,5.6,12.4,12.4C46.9,49.4,41.3,54.9,34.5,54.9z"/>
		</g>
	</g>
	<g>
		<g>
			<path class="st1" d="M67.2,25.6c0.6,0,1.1-0.5,1.1-1.1V20c0,0,0,0,0,0c0-0.1,0-0.2-0.1-0.4c0,0,0,0,0,0c-0.1-0.1-0.1-0.2-0.2-0.3
				c0,0-0.1-0.1-0.1-0.1c-0.1,0-0.1-0.1-0.2-0.1L35,0.9c-0.3-0.2-0.8-0.2-1.1,0L1.2,19c-0.1,0-0.1,0.1-0.2,0.1c0,0-0.1,0.1-0.1,0.1
				c-0.1,0.1-0.2,0.2-0.2,0.3c0,0,0,0,0,0c0,0.1-0.1,0.2-0.1,0.4c0,0,0,0,0,0v4.5c0,0.6,0.5,1.1,1.1,1.1h3.4v33.8H1.8
				c-0.6,0-1.1,0.5-1.1,1.1v6.8c0,0.6,0.5,1.1,1.1,1.1h65.4c0.6,0,1.1-0.5,1.1-1.1v-6.8c0-0.6-0.5-1.1-1.1-1.1h-3.4V25.6H67.2z
				 M34.5,3.2l28.3,15.6H6.2L34.5,3.2z M66.1,61.7v4.5H2.9v-4.5H66.1z M7.4,59.4V25.6h4.5v33.8H7.4z M14.2,59.4V25.6h40.6v33.8H14.2
				z M57,59.4V25.6h4.5v33.8H57z M2.9,23.3v-2.3h63.2v2.3H2.9z"/>
		</g>
	</g>
</g>
</svg>
