<?xml version="1.0" encoding="utf-8"?>
<!-- Generator: Adobe Illustrator 23.1.1, SVG Export Plug-In . SVG Version: 6.00 Build 0)  -->
<svg version="1.1" id="Capa_1" xmlns="http://www.w3.org/2000/svg" xmlns:xlink="http://www.w3.org/1999/xlink" x="0px" y="0px"
	 viewBox="0 0 76.9 75.7" style="enable-background:new 0 0 76.9 75.7;" xml:space="preserve">
<style type="text/css">
	.st0{fill:#2045F4;}
	.st1{fill:#1AD5B1;}
</style>
<g>
	<g>
		<path class="st0" d="M75.8,23.5c0-2-1.6-3.6-3.6-3.6c-0.4,0-0.8,0.1-1.2,0.2l-5.4-6.8c0.3-0.6,0.6-1.2,0.6-1.9
			c0-2-1.6-3.6-3.6-3.6c-1,0-1.9,0.4-2.6,1.1l-9.5-4.4c0-0.1,0-0.2,0-0.3c0-2-1.6-3.6-3.6-3.6c-1.6,0-2.9,1-3.4,2.4H29.7
			c-0.5-1.4-1.8-2.4-3.4-2.4c-2,0-3.6,1.6-3.6,3.6c0,0.1,0,0.3,0,0.4l-6,3c-0.7-0.6-1.5-1-2.5-1c-2,0-3.6,1.6-3.6,3.6
			c0,0.7,0.2,1.4,0.6,1.9l-5.4,6.8c-0.4-0.1-0.8-0.2-1.2-0.2c-2,0-3.6,1.6-3.6,3.6c0,1.6,1,2.9,2.4,3.4v7.7
			c-1.4,0.5-2.4,1.8-2.4,3.4c0,2,1.6,3.6,3.6,3.6c1.3,0,2.5-0.7,3.1-1.8l6.6,1.2c0.3,1.7,1.8,3,3.6,3c0,0,0.1,0,0.1,0l2.3,5.8
			c-0.8,0.7-1.2,1.6-1.2,2.7c0,2,1.6,3.6,3.6,3.6c1.2,0,2.3-0.6,2.9-1.5l10.4,3c0.1,1.5,1.1,2.7,2.4,3.2v8.9
			c-1.4,0.5-2.4,1.8-2.4,3.4c0,2,1.6,3.6,3.6,3.6c2,0,3.6-1.6,3.6-3.6c0-1.6-1-2.9-2.4-3.4v-8.9c1.4-0.5,2.4-1.8,2.4-3.4
			c0-1.2-0.6-2.2-1.4-2.8l1.4-4.3l10.8,3.6c0,1.5,1,2.8,2.4,3.3v12.5c-1.4,0.5-2.4,1.8-2.4,3.4c0,2,1.6,3.6,3.6,3.6s3.6-1.6,3.6-3.6
			c0-1.6-1-2.9-2.4-3.4V55.9c1.4-0.5,2.4-1.8,2.4-3.4c0-0.4-0.1-0.9-0.2-1.3l9.3-7.7c0.5,0.3,1.2,0.5,1.8,0.5c2,0,3.6-1.6,3.6-3.6
			c0-1.6-1-2.9-2.4-3.4V26.9C74.8,26.4,75.8,25.1,75.8,23.5z M62.5,10.2c0.7,0,1.2,0.5,1.2,1.2s-0.5,1.2-1.2,1.2s-1.2-0.5-1.2-1.2
			S61.8,10.2,62.5,10.2z M60.8,14.6c0.5,0.3,1.1,0.5,1.7,0.5c0.4,0,0.8-0.1,1.2-0.2l5.4,6.8c-0.3,0.6-0.6,1.2-0.6,1.9
			c0,0.2,0,0.4,0.1,0.6l-8.6,4.7l-6.2-5.2c0.1-0.4,0.2-0.8,0.2-1.3c0-0.5-0.1-1-0.3-1.4L60.8,14.6z M45.6,34.4
			c-0.6,0-1.1,0.1-1.6,0.4l-5.1-5.1l9-4.7c0.6,0.6,1.5,1,2.5,1c0.7,0,1.3-0.2,1.8-0.5l5.5,4.6L48,35.3
			C47.4,34.7,46.5,34.4,45.6,34.4z M46.8,38c0,0.7-0.5,1.2-1.2,1.2s-1.2-0.5-1.2-1.2c0-0.7,0.5-1.2,1.2-1.2S46.8,37.3,46.8,38z
			 M28.5,24.7l2,6.5l-10.3,5.3c-0.4-0.4-1-0.7-1.5-0.9L17,22.9l8.3-0.4C25.8,23.7,27.1,24.6,28.5,24.7z M27.5,21.1
			c0-0.7,0.5-1.2,1.2-1.2s1.2,0.5,1.2,1.2s-0.5,1.2-1.2,1.2S27.5,21.7,27.5,21.1z M31.3,33.6l3.1,9.9l-12.9-4.3c0-0.1,0-0.3,0-0.4
			L31.3,33.6z M31.3,25.4l3.6,3.6l-2.1,1.1L31.3,25.4z M31.9,22.6c0.2-0.5,0.4-1,0.4-1.6c0-0.5-0.1-1-0.3-1.4l5.7-5.4l9.3,6.9
			c-0.1,0.3-0.2,0.7-0.2,1.1c0,0.2,0,0.3,0,0.5l-9.7,5L31.9,22.6z M49.2,22.3c0-0.7,0.5-1.2,1.2-1.2s1.2,0.5,1.2,1.2
			s-0.5,1.2-1.2,1.2S49.2,23,49.2,22.3z M59.8,31.6l8.7,7.2l-18.8-1.7L59.8,31.6z M46.8,3C47.5,3,48,3.5,48,4.2s-0.5,1.2-1.2,1.2
			s-1.2-0.5-1.2-1.2S46.1,3,46.8,3z M45.1,7.4c0.5,0.3,1.1,0.4,1.7,0.4c1,0,1.9-0.4,2.6-1.1l9.5,4.4c0,0.1,0,0.2,0,0.3
			c0,0.5,0.1,1,0.3,1.4l-7,6.3c-0.5-0.3-1.1-0.5-1.7-0.5c-0.7,0-1.4,0.2-2,0.6l-8.9-6.7L45.1,7.4z M43.4,5.4c0,0.1,0,0.2,0.1,0.2
			l-5.9,5.5l-7.7-5.8H43.4z M26.3,3c0.7,0,1.2,0.5,1.2,1.2s-0.5,1.2-1.2,1.2S25,4.8,25,4.2S25.6,3,26.3,3z M17.8,10.2
			c0-0.1,0-0.3,0-0.4l6-3c0.7,0.6,1.5,1,2.5,1c0.7,0,1.4-0.2,2-0.6l7.5,5.6l-5.4,5.1c-0.5-0.3-1.1-0.4-1.7-0.4c-1.6,0-3,1.1-3.5,2.6
			l-8.5,0.4l-0.9-7C17,12.8,17.8,11.6,17.8,10.2z M14.2,9c0.7,0,1.2,0.5,1.2,1.2s-0.5,1.2-1.2,1.2S13,10.9,13,10.2S13.5,9,14.2,9z
			 M13,13.6c0.1,0,0.3,0.1,0.4,0.1l0.9,6.8l-6.5,0.3c-0.1-0.2-0.2-0.4-0.3-0.5L13,13.6z M4.5,21.1c0.7,0,1.2,0.5,1.2,1.2
			s-0.5,1.2-1.2,1.2S3.3,23,3.3,22.3S3.8,21.1,4.5,21.1z M4.5,38c-0.7,0-1.2-0.5-1.2-1.2c0-0.7,0.5-1.2,1.2-1.2
			c0.7,0,1.2,0.5,1.2,1.2C5.7,37.5,5.2,38,4.5,38z M14.7,37.4l-6.6-1.2c-0.2-1.3-1.1-2.4-2.4-2.8v-7.7c1.1-0.4,1.9-1.3,2.2-2.4
			l6.7-0.3l1.7,12.9C15.6,36.2,15,36.8,14.7,37.4z M17.8,40.4c-0.7,0-1.2-0.5-1.2-1.2s0.5-1.2,1.2-1.2s1.2,0.5,1.2,1.2
			S18.5,40.4,17.8,40.4z M22.6,52.5c-0.7,0-1.2-0.5-1.2-1.2s0.5-1.2,1.2-1.2c0.7,0,1.2,0.5,1.2,1.2S23.3,52.5,22.6,52.5z M36.6,54
			l-10.4-3c-0.1-1.9-1.7-3.4-3.6-3.4c0,0-0.1,0-0.1,0l-2.3-5.8c0.2-0.1,0.3-0.3,0.5-0.5l14.6,4.9l2.2,6.9
			C37.1,53.5,36.8,53.7,36.6,54z M39.6,73.1c-0.7,0-1.2-0.5-1.2-1.2s0.5-1.2,1.2-1.2s1.2,0.5,1.2,1.2S40.2,73.1,39.6,73.1z
			 M39.6,57.3c-0.7,0-1.2-0.5-1.2-1.2s0.5-1.2,1.2-1.2s1.2,0.5,1.2,1.2S40.2,57.3,39.6,57.3z M39.6,52.2l-1.5-4.9l2.9,1L39.6,52.2z
			 M41.7,45.9l-4.5-1.5l-3.7-11.9l3.2-1.7l5.7,5.7c-0.2,0.5-0.4,1-0.4,1.6c0,1.2,0.6,2.2,1.4,2.8L41.7,45.9z M57.7,73.1
			c-0.7,0-1.2-0.5-1.2-1.2s0.5-1.2,1.2-1.2s1.2,0.5,1.2,1.2S58.3,73.1,57.7,73.1z M57.7,53.7c-0.7,0-1.2-0.5-1.2-1.2
			s0.5-1.2,1.2-1.2s1.2,0.5,1.2,1.2S58.3,53.7,57.7,53.7z M59.5,49.4c-0.5-0.3-1.2-0.5-1.8-0.5c-1.2,0-2.2,0.6-2.8,1.4L44,46.7
			l1.7-5c1.4,0,2.7-0.9,3.2-2.1l19.8,1.8c0,0.1,0.1,0.2,0.1,0.4L59.5,49.4z M62.1,30.4l7.7-4.2c0.3,0.3,0.8,0.6,1.2,0.7V37
			c-0.2,0.1-0.4,0.2-0.6,0.3L62.1,30.4z M72.2,41.6c-0.7,0-1.2-0.5-1.2-1.2s0.5-1.2,1.2-1.2s1.2,0.5,1.2,1.2S72.9,41.6,72.2,41.6z
			 M72.2,24.7c-0.7,0-1.2-0.5-1.2-1.2s0.5-1.2,1.2-1.2s1.2,0.5,1.2,1.2S72.9,24.7,72.2,24.7z"/>
		<rect x="3.3" y="0.5" class="st1" width="2.4" height="2.4"/>
		<rect x="3.3" y="5.4" class="st1" width="2.4" height="2.4"/>
		<rect x="5.7" y="3" class="st1" width="2.4" height="2.4"/>
		<rect x="0.9" y="3" class="st1" width="2.4" height="2.4"/>
		<rect x="63.7" y="56.1" class="st1" width="2.4" height="2.4"/>
		<rect x="63.7" y="61" class="st1" width="2.4" height="2.4"/>
		<rect x="66.1" y="58.6" class="st1" width="2.4" height="2.4"/>
		<rect x="61.3" y="58.6" class="st1" width="2.4" height="2.4"/>
		<rect x="71" y="5.4" class="st1" width="2.4" height="2.4"/>
		<rect x="71" y="10.2" class="st1" width="2.4" height="2.4"/>
		<rect x="73.4" y="7.8" class="st1" width="2.4" height="2.4"/>
		<rect x="68.6" y="7.8" class="st1" width="2.4" height="2.4"/>
		<rect x="15.4" y="58.6" class="st1" width="2.4" height="2.4"/>
		<rect x="15.4" y="63.4" class="st1" width="2.4" height="2.4"/>
		<rect x="17.8" y="61" class="st1" width="2.4" height="2.4"/>
		<rect x="13" y="61" class="st1" width="2.4" height="2.4"/>
		<rect x="8.1" y="45.3" class="st0" width="2.4" height="2.4"/>
		<rect x="8.1" y="50.1" class="st0" width="2.4" height="2.4"/>
		<rect x="10.5" y="47.7" class="st0" width="2.4" height="2.4"/>
		<rect x="5.7" y="47.7" class="st0" width="2.4" height="2.4"/>
	</g>
</g>
</svg>
