<?xml version="1.0" encoding="utf-8"?>
<!-- Generator: Adobe Illustrator 23.1.1, SVG Export Plug-In . SVG Version: 6.00 Build 0)  -->
<svg version="1.1" id="Capa_1" xmlns="http://www.w3.org/2000/svg" xmlns:xlink="http://www.w3.org/1999/xlink" x="0px" y="0px"
	 viewBox="0 0 44.8 73.9" style="enable-background:new 0 0 44.8 73.9;" xml:space="preserve">
<style type="text/css">
	.st0{fill:#FFFFFF;}
	.st1{fill:#1AD5B1;}
</style>
<g>
	<g>
		<g>
			<path class="st0" d="M37.3,0H6.4C2.9,0,0.1,2.9,0.1,6.4v59.9c0,3.5,2.9,6.4,6.4,6.4h30.9c3.5,0,6.4-2.9,6.4-6.4V6.4
				C43.7,2.9,40.8,0,37.3,0z M41.3,66.3c0,2.2-1.8,3.9-3.9,3.9H6.4c-2.2,0-3.9-1.8-3.9-3.9V63h38.8V66.3z M41.3,60.6H2.5V13.3h38.8
				V60.6z M41.3,10.9H2.5V6.4c0-2.2,1.8-3.9,3.9-3.9h30.9c2.2,0,3.9,1.8,3.9,3.9L41.3,10.9L41.3,10.9z"/>
		</g>
	</g>
	<g>
		<g>
			<rect x="13.4" y="6.1" class="st0" width="12.1" height="2.4"/>
		</g>
	</g>
	<g>
		<g>
			<rect x="19.5" y="65.4" class="st0" width="4.8" height="2.4"/>
		</g>
	</g>
	<g>
		<g>
			<rect x="24.3" y="18.2" class="st0" width="14.5" height="2.4"/>
		</g>
	</g>
	<g>
		<g>
			<path class="st1" d="M4.9,18.2v14.5h17V18.2H4.9z M19.5,30.3H7.3v-9.7h12.1V30.3z"/>
		</g>
	</g>
	<g>
		<g>
			<rect x="24.3" y="23" class="st0" width="4.8" height="2.4"/>
		</g>
	</g>
	<g>
		<g>
			<rect x="31.6" y="23" class="st0" width="7.3" height="2.4"/>
		</g>
	</g>
	<g>
		<g>
			<rect x="24.3" y="27.9" class="st0" width="14.5" height="2.4"/>
		</g>
	</g>
	<g>
		<g>
			<rect x="24.3" y="35.1" class="st0" width="14.5" height="2.4"/>
		</g>
	</g>
	<g>
		<g>
			<path class="st1" d="M4.9,35.1v14.5h17V35.1H4.9z M19.5,47.2H7.3v-9.7h12.1V47.2z"/>
		</g>
	</g>
	<g>
		<g>
			<rect x="24.3" y="40" class="st0" width="4.8" height="2.4"/>
		</g>
	</g>
	<g>
		<g>
			<rect x="31.6" y="40" class="st0" width="7.3" height="2.4"/>
		</g>
	</g>
	<g>
		<g>
			<rect x="24.3" y="44.8" class="st0" width="14.5" height="2.4"/>
		</g>
	</g>
	<g>
		<g>
			<rect x="12.2" y="55.7" class="st0" width="14.5" height="2.4"/>
		</g>
	</g>
	<g>
		<g>
			<rect x="27.9" y="6.1" class="st0" width="2.4" height="2.4"/>
		</g>
	</g>
	<g>
		<g>
			<path class="st1" d="M29.1,50.9v7.3h9.7v-7.3H29.1z M36.4,55.7h-4.8v-2.4h4.8V55.7z"/>
		</g>
	</g>
</g>
</svg>
