<?xml version="1.0" encoding="utf-8"?>
<!-- Generator: Adobe Illustrator 23.1.1, SVG Export Plug-In . SVG Version: 6.00 Build 0)  -->
<svg version="1.1" id="Capa_1" xmlns="http://www.w3.org/2000/svg" xmlns:xlink="http://www.w3.org/1999/xlink" x="0px" y="0px"
	 viewBox="0 0 77.1 80.6" style="enable-background:new 0 0 77.1 80.6;" xml:space="preserve">
<style type="text/css">
	.st0{fill:#1AD5B1;}
	.st1{filter:url(#Adobe_OpacityMaskFilter);}
	.st2{fill:url(#SVGID_2_);}
	.st3{fill:url(#SVGID_3_);}
	.st4{fill:url(#SVGID_4_);}
	.st5{fill:url(#SVGID_5_);}
	.st6{fill:url(#SVGID_6_);}
	.st7{fill:url(#SVGID_7_);}
	.st8{fill:url(#SVGID_8_);}
	.st9{fill:url(#SVGID_9_);}
	.st10{fill:url(#SVGID_10_);}
	.st11{fill:url(#SVGID_11_);}
	.st12{mask:url(#SVGID_1_);}
	.st13{fill:#2045F4;}
	.st14{filter:url(#Adobe_OpacityMaskFilter_1_);}
	.st15{fill:url(#SVGID_13_);}
	.st16{fill:url(#SVGID_14_);}
	.st17{fill:url(#SVGID_15_);}
	.st18{fill:url(#SVGID_16_);}
	.st19{fill:url(#SVGID_17_);}
	.st20{fill:url(#SVGID_18_);}
	.st21{fill:url(#SVGID_19_);}
	.st22{fill:url(#SVGID_20_);}
	.st23{fill:url(#SVGID_21_);}
	.st24{fill:url(#SVGID_22_);}
	.st25{mask:url(#SVGID_12_);}
</style>
<g>
	<g>
		<g>
			<polygon class="st0" points="0.1,10.2 2,10.2 2,1.8 10.3,1.8 10.3,0 0.1,0 			"/>
			<polygon class="st0" points="66.9,0 66.9,1.8 75.3,1.8 75.3,10.2 77.1,10.2 77.1,0 			"/>
			<polygon class="st0" points="75.3,78.7 66.9,78.7 66.9,80.6 77.1,80.6 77.1,70.4 75.3,70.4 			"/>
			<polygon class="st0" points="2,70.4 0.1,70.4 0.1,80.6 10.3,80.6 10.3,78.7 2,78.7 			"/>
		</g>
	</g>
	<g>
		<g>
			<defs>
				<filter id="Adobe_OpacityMaskFilter" filterUnits="userSpaceOnUse" x="15.5" y="10" width="46.2" height="60.5">
					<feColorMatrix  type="matrix" values="1 0 0 0 0  0 1 0 0 0  0 0 1 0 0  0 0 0 1 0"/>
				</filter>
			</defs>
			<mask maskUnits="userSpaceOnUse" x="15.5" y="10" width="46.2" height="60.5" id="SVGID_1_">
				<g class="st1">
					<g>
						<g>
							<radialGradient id="SVGID_2_" cx="38.7453" cy="42.6321" r="30.656" gradientUnits="userSpaceOnUse">
								<stop  offset="0" style="stop-color:#FFFFFF"/>
								<stop  offset="1" style="stop-color:#FFFFFF"/>
							</radialGradient>
							<path class="st2" d="M21.8,23.9c-0.2,0-0.3,0-0.5-0.1c-0.5-0.3-0.6-0.8-0.4-1.3c2.9-5.2,8.5-11.1,15.8-12.2
								c4.5-0.7,9.4,0.4,13,3.1c0.4,0.3,0.5,0.9,0.2,1.3c-0.3,0.4-0.9,0.5-1.3,0.2c-3.2-2.3-7.6-3.3-11.6-2.7
								c-6.6,1-11.7,6.5-14.4,11.3C22.4,23.7,22.1,23.9,21.8,23.9z"/>
						</g>
						<g>
							<radialGradient id="SVGID_3_" cx="38.7452" cy="42.6319" r="30.6558" gradientUnits="userSpaceOnUse">
								<stop  offset="0" style="stop-color:#FFFFFF"/>
								<stop  offset="1" style="stop-color:#FFFFFF"/>
							</radialGradient>
							<path class="st3" d="M38.6,70.5c-1.2,0-2.3-0.1-3.5-0.3c-7.7-1.3-14.2-6.5-17.2-13.5c-3.6-8.7-3.1-20.1,1.3-31.3
								c0.2-0.5,0.7-0.7,1.2-0.5c0.5,0.2,0.7,0.7,0.5,1.2c-4.3,10.8-4.7,21.7-1.3,29.9c2.7,6.4,8.7,11.2,15.7,12.4
								c5.5,0.9,10.7-0.6,15.1-4.4c6-5.3,9.7-14.6,9.3-23.7c-0.8-17.9-8.7-22.9-8.7-23c-0.4-0.3-0.6-0.9-0.3-1.3
								c0.3-0.5,0.9-0.6,1.3-0.3c0.4,0.2,8.9,5.5,9.7,24.5c0.4,9.6-3.5,19.5-10,25.2C47.9,68.8,43.4,70.5,38.6,70.5z"/>
						</g>
						<g>
							<radialGradient id="SVGID_4_" cx="38.7452" cy="42.632" r="30.6558" gradientUnits="userSpaceOnUse">
								<stop  offset="0" style="stop-color:#FFFFFF"/>
								<stop  offset="1" style="stop-color:#FFFFFF"/>
							</radialGradient>
							<path class="st4" d="M25.5,61.1c-0.3,0-0.5-0.1-0.7-0.3C18.2,53.5,19,43,20.1,35.6c1.6-10.6,9.1-21.9,19.7-21.9c0,0,0,0,0,0
								c10.1,0,15,10.7,15.2,11.2c0.2,0.5,0,1-0.5,1.3c-0.5,0.2-1,0-1.3-0.5c0-0.1-4.6-10-13.5-10C30.6,15.7,23.5,26,22,35.9
								c-1.1,6.9-1.8,16.9,4.2,23.6c0.4,0.4,0.3,1-0.1,1.4C26,61,25.7,61.1,25.5,61.1z"/>
						</g>
						<g>
							<radialGradient id="SVGID_5_" cx="38.7453" cy="42.6319" r="30.6557" gradientUnits="userSpaceOnUse">
								<stop  offset="0" style="stop-color:#FFFFFF"/>
								<stop  offset="1" style="stop-color:#FFFFFF"/>
							</radialGradient>
							<path class="st5" d="M55.3,53.8c-0.1,0-0.2,0-0.3-0.1c-0.5-0.2-0.8-0.7-0.6-1.2c4.7-12.9,0.1-23.7,0.1-23.8
								c-0.2-0.5,0-1,0.5-1.3c0.5-0.2,1,0,1.3,0.5c0.2,0.5,5,11.6,0,25.2C56,53.6,55.7,53.8,55.3,53.8z"/>
						</g>
						<g>
							<radialGradient id="SVGID_6_" cx="38.7453" cy="42.6318" r="30.6559" gradientUnits="userSpaceOnUse">
								<stop  offset="0" style="stop-color:#FFFFFF"/>
								<stop  offset="1" style="stop-color:#FFFFFF"/>
							</radialGradient>
							<path class="st6" d="M37.9,67.2c-4.1,0-7.6-1.4-10.7-4.3c-0.4-0.4-0.4-1,0-1.4c0.4-0.4,1-0.4,1.4,0c3.7,3.5,8.1,4.5,13.7,3.2
								c7.7-1.8,10.7-9,10.7-9.1c0.2-0.5,0.7-0.7,1.2-0.5c0.5,0.2,0.7,0.7,0.5,1.2c-0.1,0.3-3.3,8.2-12,10.3
								C41,67,39.4,67.2,37.9,67.2z"/>
						</g>
						<g>
							<radialGradient id="SVGID_7_" cx="38.7453" cy="42.6319" r="30.6557" gradientUnits="userSpaceOnUse">
								<stop  offset="0" style="stop-color:#FFFFFF"/>
								<stop  offset="1" style="stop-color:#FFFFFF"/>
							</radialGradient>
							<path class="st7" d="M38,63.5c-2,0-3.9-0.5-5.8-1.5c-6.5-3.4-10.1-12.1-8.9-21.6c0.1-0.5,0.5-0.9,1.1-0.8
								c0.5,0.1,0.9,0.5,0.8,1.1c-1.3,10,3.1,17.1,7.9,19.6c4.3,2.3,9.2,1.4,13.4-2.3c7.1-6.3,8.2-19,5.1-27.6
								c-1.3-3.6-4.4-9.6-10.9-9.9c-11.3-0.5-15.1,17-15.1,17.2c-0.1,0.5-0.6,0.8-1.1,0.7c-0.5-0.1-0.8-0.6-0.7-1.1
								c0.2-0.8,4.1-19.3,17.1-18.7c5.6,0.3,10.2,4.3,12.6,11.2c3.3,9.2,2.1,22.9-5.6,29.7C44.7,62.1,41.3,63.5,38,63.5z"/>
						</g>
						<g>
							<radialGradient id="SVGID_8_" cx="38.7453" cy="42.6319" r="30.6558" gradientUnits="userSpaceOnUse">
								<stop  offset="0" style="stop-color:#FFFFFF"/>
								<stop  offset="1" style="stop-color:#FFFFFF"/>
							</radialGradient>
							<path class="st8" d="M38.4,60.2c-0.5,0-0.9-0.4-1-0.9c0-0.5,0.4-1,0.9-1c0.5,0,12-1,11.5-17.3C49.6,34.2,48,29.5,45,27
								c-2.6-2.2-5.4-2.1-6.2-2c-6.2,0.8-9.2,9.3-10,14.2c-0.6,3.6-1.8,15.5,7.1,18.6c0.5,0.2,0.8,0.7,0.6,1.2
								c-0.2,0.5-0.7,0.8-1.2,0.6C25,56,26.3,42.8,27,38.9c1.1-6.8,4.8-15,11.6-15.8c1-0.1,4.5-0.3,7.7,2.4
								c3.4,2.9,5.3,8.1,5.5,15.4C52.3,59.2,38.6,60.2,38.4,60.2C38.4,60.2,38.4,60.2,38.4,60.2z"/>
						</g>
						<g>
							<radialGradient id="SVGID_9_" cx="38.7453" cy="42.6319" r="30.6558" gradientUnits="userSpaceOnUse">
								<stop  offset="0" style="stop-color:#FFFFFF"/>
								<stop  offset="1" style="stop-color:#FFFFFF"/>
							</radialGradient>
							<path class="st9" d="M38,56.4c-0.5,0-0.9-0.4-1-0.9c0-0.5,0.4-1,0.9-1c0.3,0,8-0.6,8-11.6c0-6-1.3-10.4-3.8-12.5
								c-1.2-1-2.5-1.4-3.9-1.3c-1.7,0.2-5.8,4.4-6.5,10.5c-0.1,0.5-0.5,0.9-1,0.9c-0.5-0.1-0.9-0.5-0.9-1
								c0.7-6.8,5.3-11.9,8.1-12.2c1.9-0.3,3.9,0.3,5.4,1.7c2,1.8,4.4,5.6,4.4,14C47.8,55.8,38.1,56.4,38,56.4
								C38,56.4,38,56.4,38,56.4z"/>
						</g>
						<g>
							<radialGradient id="SVGID_10_" cx="38.7453" cy="42.6319" r="30.6558" gradientUnits="userSpaceOnUse">
								<stop  offset="0" style="stop-color:#FFFFFF"/>
								<stop  offset="1" style="stop-color:#FFFFFF"/>
							</radialGradient>
							<path class="st10" d="M35.2,55.6c-0.1,0-0.3,0-0.4-0.1c-6.2-3.1-5.1-12.3-5.1-12.7c0.1-0.5,0.5-0.9,1.1-0.8
								c0.5,0.1,0.9,0.5,0.8,1.1c0,0.1-0.9,8.3,4,10.8c0.5,0.2,0.7,0.8,0.4,1.3C35.9,55.5,35.6,55.6,35.2,55.6z"/>
						</g>
						<g>
							<radialGradient id="SVGID_11_" cx="38.7453" cy="42.632" r="30.6558" gradientUnits="userSpaceOnUse">
								<stop  offset="0" style="stop-color:#FFFFFF"/>
								<stop  offset="1" style="stop-color:#FFFFFF"/>
							</radialGradient>
							<path class="st11" d="M40.1,52.8c-0.3,0-0.6-0.2-0.8-0.4c-0.3-0.4-0.2-1,0.3-1.3c2-1.3,2.9-4.5,3.2-7c0.3-3.3-0.4-8.1-2.1-10
								c-0.5-0.5-1-0.8-1.5-0.8c-1.8,0-4,4.9-4.6,8.1c-0.6,3.7,0.4,7.5,1.7,8.5c0.3,0.2,0.6,0.3,1,0.1c1.1-0.6,1.9-2.5,2.2-5.1
								c0.3-3.1-0.2-5.8-0.7-6.6C37,40.3,37.2,45.3,38,47c0.2,0.5,0,1-0.5,1.3c-0.5,0.2-1,0-1.3-0.5c-1-2.2-1.3-8.2,1.1-11
								c0.8-0.9,1.5-0.7,1.8-0.6c1.6,0.5,2,3.5,2.1,5.3c0.3,3.8-0.4,8.7-3.3,10.1c-1,0.5-2.1,0.5-3-0.2c-2.3-1.7-3-6.6-2.4-10.3
								c0.3-1.9,2.5-9.7,6.5-9.7c1.1,0,2.1,0.5,3,1.4c2.5,2.7,2.9,8.5,2.6,11.5c-0.2,1.9-1,6.4-4.1,8.4
								C40.4,52.8,40.2,52.8,40.1,52.8z"/>
						</g>
					</g>
				</g>
			</mask>
			<g class="st12">
				<g>
					<path class="st13" d="M21.8,23.9c-0.2,0-0.3,0-0.5-0.1c-0.5-0.3-0.6-0.8-0.4-1.3c2.9-5.2,8.5-11.1,15.8-12.2
						c4.5-0.7,9.4,0.4,13,3.1c0.4,0.3,0.5,0.9,0.2,1.3c-0.3,0.4-0.9,0.5-1.3,0.2c-3.2-2.3-7.6-3.3-11.6-2.7
						c-6.6,1-11.7,6.5-14.4,11.3C22.4,23.7,22.1,23.9,21.8,23.9z"/>
				</g>
				<g>
					<path class="st13" d="M38.6,70.5c-1.2,0-2.3-0.1-3.5-0.3c-7.7-1.3-14.2-6.5-17.2-13.5c-3.6-8.7-3.1-20.1,1.3-31.3
						c0.2-0.5,0.7-0.7,1.2-0.5c0.5,0.2,0.7,0.7,0.5,1.2c-4.3,10.8-4.7,21.7-1.3,29.9c2.7,6.4,8.7,11.2,15.7,12.4
						c5.5,0.9,10.7-0.6,15.1-4.4c6-5.3,9.7-14.6,9.3-23.7c-0.8-17.9-8.7-22.9-8.7-23c-0.4-0.3-0.6-0.9-0.3-1.3
						c0.3-0.5,0.9-0.6,1.3-0.3c0.4,0.2,8.9,5.5,9.7,24.5c0.4,9.6-3.5,19.5-10,25.2C47.9,68.8,43.4,70.5,38.6,70.5z"/>
				</g>
				<g>
					<path class="st13" d="M25.5,61.1c-0.3,0-0.5-0.1-0.7-0.3C18.2,53.5,19,43,20.1,35.6c1.6-10.6,9.1-21.9,19.7-21.9c0,0,0,0,0,0
						c10.1,0,15,10.7,15.2,11.2c0.2,0.5,0,1-0.5,1.3c-0.5,0.2-1,0-1.3-0.5c0-0.1-4.6-10-13.5-10C30.6,15.7,23.5,26,22,35.9
						c-1.1,6.9-1.8,16.9,4.2,23.6c0.4,0.4,0.3,1-0.1,1.4C26,61,25.7,61.1,25.5,61.1z"/>
				</g>
				<g>
					<path class="st13" d="M55.3,53.8c-0.1,0-0.2,0-0.3-0.1c-0.5-0.2-0.8-0.7-0.6-1.2c4.7-12.9,0.1-23.7,0.1-23.8
						c-0.2-0.5,0-1,0.5-1.3c0.5-0.2,1,0,1.3,0.5c0.2,0.5,5,11.6,0,25.2C56,53.6,55.7,53.8,55.3,53.8z"/>
				</g>
				<g>
					<path class="st13" d="M37.9,67.2c-4.1,0-7.6-1.4-10.7-4.3c-0.4-0.4-0.4-1,0-1.4c0.4-0.4,1-0.4,1.4,0c3.7,3.5,8.1,4.5,13.7,3.2
						c7.7-1.8,10.7-9,10.7-9.1c0.2-0.5,0.7-0.7,1.2-0.5c0.5,0.2,0.7,0.7,0.5,1.2c-0.1,0.3-3.3,8.2-12,10.3
						C41,67,39.4,67.2,37.9,67.2z"/>
				</g>
				<g>
					<path class="st13" d="M38,63.5c-2,0-3.9-0.5-5.8-1.5c-6.5-3.4-10.1-12.1-8.9-21.6c0.1-0.5,0.5-0.9,1.1-0.8
						c0.5,0.1,0.9,0.5,0.8,1.1c-1.3,10,3.1,17.1,7.9,19.6c4.3,2.3,9.2,1.4,13.4-2.3c7.1-6.3,8.2-19,5.1-27.6
						c-1.3-3.6-4.4-9.6-10.9-9.9c-11.3-0.5-15.1,17-15.1,17.2c-0.1,0.5-0.6,0.8-1.1,0.7c-0.5-0.1-0.8-0.6-0.7-1.1
						c0.2-0.8,4.1-19.3,17.1-18.7c5.6,0.3,10.2,4.3,12.6,11.2c3.3,9.2,2.1,22.9-5.6,29.7C44.7,62.1,41.3,63.5,38,63.5z"/>
				</g>
				<g>
					<path class="st13" d="M38.4,60.2c-0.5,0-0.9-0.4-1-0.9c0-0.5,0.4-1,0.9-1c0.5,0,12-1,11.5-17.3C49.6,34.2,48,29.5,45,27
						c-2.6-2.2-5.4-2.1-6.2-2c-6.2,0.8-9.2,9.3-10,14.2c-0.6,3.6-1.8,15.5,7.1,18.6c0.5,0.2,0.8,0.7,0.6,1.2
						c-0.2,0.5-0.7,0.8-1.2,0.6C25,56,26.3,42.8,27,38.9c1.1-6.8,4.8-15,11.6-15.8c1-0.1,4.5-0.3,7.7,2.4c3.4,2.9,5.3,8.1,5.5,15.4
						C52.3,59.2,38.6,60.2,38.4,60.2C38.4,60.2,38.4,60.2,38.4,60.2z"/>
				</g>
				<g>
					<path class="st13" d="M38,56.4c-0.5,0-0.9-0.4-1-0.9c0-0.5,0.4-1,0.9-1c0.3,0,8-0.6,8-11.6c0-6-1.3-10.4-3.8-12.5
						c-1.2-1-2.5-1.4-3.9-1.3c-1.7,0.2-5.8,4.4-6.5,10.5c-0.1,0.5-0.5,0.9-1,0.9c-0.5-0.1-0.9-0.5-0.9-1c0.7-6.8,5.3-11.9,8.1-12.2
						c1.9-0.3,3.9,0.3,5.4,1.7c2,1.8,4.4,5.6,4.4,14C47.8,55.8,38.1,56.4,38,56.4C38,56.4,38,56.4,38,56.4z"/>
				</g>
				<g>
					<path class="st13" d="M35.2,55.6c-0.1,0-0.3,0-0.4-0.1c-6.2-3.1-5.1-12.3-5.1-12.7c0.1-0.5,0.5-0.9,1.1-0.8
						c0.5,0.1,0.9,0.5,0.8,1.1c0,0.1-0.9,8.3,4,10.8c0.5,0.2,0.7,0.8,0.4,1.3C35.9,55.5,35.6,55.6,35.2,55.6z"/>
				</g>
				<g>
					<path class="st13" d="M40.1,52.8c-0.3,0-0.6-0.2-0.8-0.4c-0.3-0.4-0.2-1,0.3-1.3c2-1.3,2.9-4.5,3.2-7c0.3-3.3-0.4-8.1-2.1-10
						c-0.5-0.5-1-0.8-1.5-0.8c-1.8,0-4,4.9-4.6,8.1c-0.6,3.7,0.4,7.5,1.7,8.5c0.3,0.2,0.6,0.3,1,0.1c1.1-0.6,1.9-2.5,2.2-5.1
						c0.3-3.1-0.2-5.8-0.7-6.6C37,40.3,37.2,45.3,38,47c0.2,0.5,0,1-0.5,1.3c-0.5,0.2-1,0-1.3-0.5c-1-2.2-1.3-8.2,1.1-11
						c0.8-0.9,1.5-0.7,1.8-0.6c1.6,0.5,2,3.5,2.1,5.3c0.3,3.8-0.4,8.7-3.3,10.1c-1,0.5-2.1,0.5-3-0.2c-2.3-1.7-3-6.6-2.4-10.3
						c0.3-1.9,2.5-9.7,6.5-9.7c1.1,0,2.1,0.5,3,1.4c2.5,2.7,2.9,8.5,2.6,11.5c-0.2,1.9-1,6.4-4.1,8.4C40.4,52.8,40.2,52.8,40.1,52.8
						z"/>
				</g>
			</g>
			<defs>
				<filter id="Adobe_OpacityMaskFilter_1_" filterUnits="userSpaceOnUse" x="15.5" y="10" width="46.2" height="60.5">
					<feColorMatrix  type="matrix" values="1 0 0 0 0  0 1 0 0 0  0 0 1 0 0  0 0 0 1 0"/>
				</filter>
			</defs>
			<mask maskUnits="userSpaceOnUse" x="15.5" y="10" width="46.2" height="60.5" id="SVGID_12_">
				<g class="st14">
					<g>
						<g>
							<radialGradient id="SVGID_13_" cx="38.7453" cy="42.6321" r="30.656" gradientUnits="userSpaceOnUse">
								<stop  offset="0" style="stop-color:#FFFFFF"/>
								<stop  offset="1" style="stop-color:#000000"/>
							</radialGradient>
							<path class="st15" d="M21.8,23.9c-0.2,0-0.3,0-0.5-0.1c-0.5-0.3-0.6-0.8-0.4-1.3c2.9-5.2,8.5-11.1,15.8-12.2
								c4.5-0.7,9.4,0.4,13,3.1c0.4,0.3,0.5,0.9,0.2,1.3c-0.3,0.4-0.9,0.5-1.3,0.2c-3.2-2.3-7.6-3.3-11.6-2.7
								c-6.6,1-11.7,6.5-14.4,11.3C22.4,23.7,22.1,23.9,21.8,23.9z"/>
						</g>
						<g>
							<radialGradient id="SVGID_14_" cx="38.7452" cy="42.6319" r="30.6558" gradientUnits="userSpaceOnUse">
								<stop  offset="0" style="stop-color:#FFFFFF"/>
								<stop  offset="1" style="stop-color:#000000"/>
							</radialGradient>
							<path class="st16" d="M38.6,70.5c-1.2,0-2.3-0.1-3.5-0.3c-7.7-1.3-14.2-6.5-17.2-13.5c-3.6-8.7-3.1-20.1,1.3-31.3
								c0.2-0.5,0.7-0.7,1.2-0.5c0.5,0.2,0.7,0.7,0.5,1.2c-4.3,10.8-4.7,21.7-1.3,29.9c2.7,6.4,8.7,11.2,15.7,12.4
								c5.5,0.9,10.7-0.6,15.1-4.4c6-5.3,9.7-14.6,9.3-23.7c-0.8-17.9-8.7-22.9-8.7-23c-0.4-0.3-0.6-0.9-0.3-1.3
								c0.3-0.5,0.9-0.6,1.3-0.3c0.4,0.2,8.9,5.5,9.7,24.5c0.4,9.6-3.5,19.5-10,25.2C47.9,68.8,43.4,70.5,38.6,70.5z"/>
						</g>
						<g>
							<radialGradient id="SVGID_15_" cx="38.7452" cy="42.632" r="30.6558" gradientUnits="userSpaceOnUse">
								<stop  offset="0" style="stop-color:#FFFFFF"/>
								<stop  offset="1" style="stop-color:#000000"/>
							</radialGradient>
							<path class="st17" d="M25.5,61.1c-0.3,0-0.5-0.1-0.7-0.3C18.2,53.5,19,43,20.1,35.6c1.6-10.6,9.1-21.9,19.7-21.9c0,0,0,0,0,0
								c10.1,0,15,10.7,15.2,11.2c0.2,0.5,0,1-0.5,1.3c-0.5,0.2-1,0-1.3-0.5c0-0.1-4.6-10-13.5-10C30.6,15.7,23.5,26,22,35.9
								c-1.1,6.9-1.8,16.9,4.2,23.6c0.4,0.4,0.3,1-0.1,1.4C26,61,25.7,61.1,25.5,61.1z"/>
						</g>
						<g>
							<radialGradient id="SVGID_16_" cx="38.7453" cy="42.6319" r="30.6557" gradientUnits="userSpaceOnUse">
								<stop  offset="0" style="stop-color:#FFFFFF"/>
								<stop  offset="1" style="stop-color:#000000"/>
							</radialGradient>
							<path class="st18" d="M55.3,53.8c-0.1,0-0.2,0-0.3-0.1c-0.5-0.2-0.8-0.7-0.6-1.2c4.7-12.9,0.1-23.7,0.1-23.8
								c-0.2-0.5,0-1,0.5-1.3c0.5-0.2,1,0,1.3,0.5c0.2,0.5,5,11.6,0,25.2C56,53.6,55.7,53.8,55.3,53.8z"/>
						</g>
						<g>
							<radialGradient id="SVGID_17_" cx="38.7453" cy="42.6318" r="30.6559" gradientUnits="userSpaceOnUse">
								<stop  offset="0" style="stop-color:#FFFFFF"/>
								<stop  offset="1" style="stop-color:#000000"/>
							</radialGradient>
							<path class="st19" d="M37.9,67.2c-4.1,0-7.6-1.4-10.7-4.3c-0.4-0.4-0.4-1,0-1.4c0.4-0.4,1-0.4,1.4,0
								c3.7,3.5,8.1,4.5,13.7,3.2c7.7-1.8,10.7-9,10.7-9.1c0.2-0.5,0.7-0.7,1.2-0.5c0.5,0.2,0.7,0.7,0.5,1.2
								c-0.1,0.3-3.3,8.2-12,10.3C41,67,39.4,67.2,37.9,67.2z"/>
						</g>
						<g>
							<radialGradient id="SVGID_18_" cx="38.7453" cy="42.6319" r="30.6557" gradientUnits="userSpaceOnUse">
								<stop  offset="0" style="stop-color:#FFFFFF"/>
								<stop  offset="1" style="stop-color:#000000"/>
							</radialGradient>
							<path class="st20" d="M38,63.5c-2,0-3.9-0.5-5.8-1.5c-6.5-3.4-10.1-12.1-8.9-21.6c0.1-0.5,0.5-0.9,1.1-0.8
								c0.5,0.1,0.9,0.5,0.8,1.1c-1.3,10,3.1,17.1,7.9,19.6c4.3,2.3,9.2,1.4,13.4-2.3c7.1-6.3,8.2-19,5.1-27.6
								c-1.3-3.6-4.4-9.6-10.9-9.9c-11.3-0.5-15.1,17-15.1,17.2c-0.1,0.5-0.6,0.8-1.1,0.7c-0.5-0.1-0.8-0.6-0.7-1.1
								c0.2-0.8,4.1-19.3,17.1-18.7c5.6,0.3,10.2,4.3,12.6,11.2c3.3,9.2,2.1,22.9-5.6,29.7C44.7,62.1,41.3,63.5,38,63.5z"/>
						</g>
						<g>
							<radialGradient id="SVGID_19_" cx="38.7453" cy="42.6319" r="30.6558" gradientUnits="userSpaceOnUse">
								<stop  offset="0" style="stop-color:#FFFFFF"/>
								<stop  offset="1" style="stop-color:#000000"/>
							</radialGradient>
							<path class="st21" d="M38.4,60.2c-0.5,0-0.9-0.4-1-0.9c0-0.5,0.4-1,0.9-1c0.5,0,12-1,11.5-17.3C49.6,34.2,48,29.5,45,27
								c-2.6-2.2-5.4-2.1-6.2-2c-6.2,0.8-9.2,9.3-10,14.2c-0.6,3.6-1.8,15.5,7.1,18.6c0.5,0.2,0.8,0.7,0.6,1.2
								c-0.2,0.5-0.7,0.8-1.2,0.6C25,56,26.3,42.8,27,38.9c1.1-6.8,4.8-15,11.6-15.8c1-0.1,4.5-0.3,7.7,2.4
								c3.4,2.9,5.3,8.1,5.5,15.4C52.3,59.2,38.6,60.2,38.4,60.2C38.4,60.2,38.4,60.2,38.4,60.2z"/>
						</g>
						<g>
							<radialGradient id="SVGID_20_" cx="38.7453" cy="42.6319" r="30.6558" gradientUnits="userSpaceOnUse">
								<stop  offset="0" style="stop-color:#FFFFFF"/>
								<stop  offset="1" style="stop-color:#000000"/>
							</radialGradient>
							<path class="st22" d="M38,56.4c-0.5,0-0.9-0.4-1-0.9c0-0.5,0.4-1,0.9-1c0.3,0,8-0.6,8-11.6c0-6-1.3-10.4-3.8-12.5
								c-1.2-1-2.5-1.4-3.9-1.3c-1.7,0.2-5.8,4.4-6.5,10.5c-0.1,0.5-0.5,0.9-1,0.9c-0.5-0.1-0.9-0.5-0.9-1
								c0.7-6.8,5.3-11.9,8.1-12.2c1.9-0.3,3.9,0.3,5.4,1.7c2,1.8,4.4,5.6,4.4,14C47.8,55.8,38.1,56.4,38,56.4
								C38,56.4,38,56.4,38,56.4z"/>
						</g>
						<g>
							<radialGradient id="SVGID_21_" cx="38.7453" cy="42.6319" r="30.6558" gradientUnits="userSpaceOnUse">
								<stop  offset="0" style="stop-color:#FFFFFF"/>
								<stop  offset="1" style="stop-color:#000000"/>
							</radialGradient>
							<path class="st23" d="M35.2,55.6c-0.1,0-0.3,0-0.4-0.1c-6.2-3.1-5.1-12.3-5.1-12.7c0.1-0.5,0.5-0.9,1.1-0.8
								c0.5,0.1,0.9,0.5,0.8,1.1c0,0.1-0.9,8.3,4,10.8c0.5,0.2,0.7,0.8,0.4,1.3C35.9,55.5,35.6,55.6,35.2,55.6z"/>
						</g>
						<g>
							<radialGradient id="SVGID_22_" cx="38.7453" cy="42.632" r="30.6558" gradientUnits="userSpaceOnUse">
								<stop  offset="0" style="stop-color:#FFFFFF"/>
								<stop  offset="1" style="stop-color:#000000"/>
							</radialGradient>
							<path class="st24" d="M40.1,52.8c-0.3,0-0.6-0.2-0.8-0.4c-0.3-0.4-0.2-1,0.3-1.3c2-1.3,2.9-4.5,3.2-7c0.3-3.3-0.4-8.1-2.1-10
								c-0.5-0.5-1-0.8-1.5-0.8c-1.8,0-4,4.9-4.6,8.1c-0.6,3.7,0.4,7.5,1.7,8.5c0.3,0.2,0.6,0.3,1,0.1c1.1-0.6,1.9-2.5,2.2-5.1
								c0.3-3.1-0.2-5.8-0.7-6.6C37,40.3,37.2,45.3,38,47c0.2,0.5,0,1-0.5,1.3c-0.5,0.2-1,0-1.3-0.5c-1-2.2-1.3-8.2,1.1-11
								c0.8-0.9,1.5-0.7,1.8-0.6c1.6,0.5,2,3.5,2.1,5.3c0.3,3.8-0.4,8.7-3.3,10.1c-1,0.5-2.1,0.5-3-0.2c-2.3-1.7-3-6.6-2.4-10.3
								c0.3-1.9,2.5-9.7,6.5-9.7c1.1,0,2.1,0.5,3,1.4c2.5,2.7,2.9,8.5,2.6,11.5c-0.2,1.9-1,6.4-4.1,8.4
								C40.4,52.8,40.2,52.8,40.1,52.8z"/>
						</g>
					</g>
				</g>
			</mask>
			<g class="st25">
				<g>
					<path class="st13" d="M21.8,23.9c-0.2,0-0.3,0-0.5-0.1c-0.5-0.3-0.6-0.8-0.4-1.3c2.9-5.2,8.5-11.1,15.8-12.2
						c4.5-0.7,9.4,0.4,13,3.1c0.4,0.3,0.5,0.9,0.2,1.3c-0.3,0.4-0.9,0.5-1.3,0.2c-3.2-2.3-7.6-3.3-11.6-2.7
						c-6.6,1-11.7,6.5-14.4,11.3C22.4,23.7,22.1,23.9,21.8,23.9z"/>
				</g>
				<g>
					<path class="st13" d="M38.6,70.5c-1.2,0-2.3-0.1-3.5-0.3c-7.7-1.3-14.2-6.5-17.2-13.5c-3.6-8.7-3.1-20.1,1.3-31.3
						c0.2-0.5,0.7-0.7,1.2-0.5c0.5,0.2,0.7,0.7,0.5,1.2c-4.3,10.8-4.7,21.7-1.3,29.9c2.7,6.4,8.7,11.2,15.7,12.4
						c5.5,0.9,10.7-0.6,15.1-4.4c6-5.3,9.7-14.6,9.3-23.7c-0.8-17.9-8.7-22.9-8.7-23c-0.4-0.3-0.6-0.9-0.3-1.3
						c0.3-0.5,0.9-0.6,1.3-0.3c0.4,0.2,8.9,5.5,9.7,24.5c0.4,9.6-3.5,19.5-10,25.2C47.9,68.8,43.4,70.5,38.6,70.5z"/>
				</g>
				<g>
					<path class="st13" d="M25.5,61.1c-0.3,0-0.5-0.1-0.7-0.3C18.2,53.5,19,43,20.1,35.6c1.6-10.6,9.1-21.9,19.7-21.9c0,0,0,0,0,0
						c10.1,0,15,10.7,15.2,11.2c0.2,0.5,0,1-0.5,1.3c-0.5,0.2-1,0-1.3-0.5c0-0.1-4.6-10-13.5-10C30.6,15.7,23.5,26,22,35.9
						c-1.1,6.9-1.8,16.9,4.2,23.6c0.4,0.4,0.3,1-0.1,1.4C26,61,25.7,61.1,25.5,61.1z"/>
				</g>
				<g>
					<path class="st13" d="M55.3,53.8c-0.1,0-0.2,0-0.3-0.1c-0.5-0.2-0.8-0.7-0.6-1.2c4.7-12.9,0.1-23.7,0.1-23.8
						c-0.2-0.5,0-1,0.5-1.3c0.5-0.2,1,0,1.3,0.5c0.2,0.5,5,11.6,0,25.2C56,53.6,55.7,53.8,55.3,53.8z"/>
				</g>
				<g>
					<path class="st13" d="M37.9,67.2c-4.1,0-7.6-1.4-10.7-4.3c-0.4-0.4-0.4-1,0-1.4c0.4-0.4,1-0.4,1.4,0c3.7,3.5,8.1,4.5,13.7,3.2
						c7.7-1.8,10.7-9,10.7-9.1c0.2-0.5,0.7-0.7,1.2-0.5c0.5,0.2,0.7,0.7,0.5,1.2c-0.1,0.3-3.3,8.2-12,10.3
						C41,67,39.4,67.2,37.9,67.2z"/>
				</g>
				<g>
					<path class="st13" d="M38,63.5c-2,0-3.9-0.5-5.8-1.5c-6.5-3.4-10.1-12.1-8.9-21.6c0.1-0.5,0.5-0.9,1.1-0.8
						c0.5,0.1,0.9,0.5,0.8,1.1c-1.3,10,3.1,17.1,7.9,19.6c4.3,2.3,9.2,1.4,13.4-2.3c7.1-6.3,8.2-19,5.1-27.6
						c-1.3-3.6-4.4-9.6-10.9-9.9c-11.3-0.5-15.1,17-15.1,17.2c-0.1,0.5-0.6,0.8-1.1,0.7c-0.5-0.1-0.8-0.6-0.7-1.1
						c0.2-0.8,4.1-19.3,17.1-18.7c5.6,0.3,10.2,4.3,12.6,11.2c3.3,9.2,2.1,22.9-5.6,29.7C44.7,62.1,41.3,63.5,38,63.5z"/>
				</g>
				<g>
					<path class="st13" d="M38.4,60.2c-0.5,0-0.9-0.4-1-0.9c0-0.5,0.4-1,0.9-1c0.5,0,12-1,11.5-17.3C49.6,34.2,48,29.5,45,27
						c-2.6-2.2-5.4-2.1-6.2-2c-6.2,0.8-9.2,9.3-10,14.2c-0.6,3.6-1.8,15.5,7.1,18.6c0.5,0.2,0.8,0.7,0.6,1.2
						c-0.2,0.5-0.7,0.8-1.2,0.6C25,56,26.3,42.8,27,38.9c1.1-6.8,4.8-15,11.6-15.8c1-0.1,4.5-0.3,7.7,2.4c3.4,2.9,5.3,8.1,5.5,15.4
						C52.3,59.2,38.6,60.2,38.4,60.2C38.4,60.2,38.4,60.2,38.4,60.2z"/>
				</g>
				<g>
					<path class="st13" d="M38,56.4c-0.5,0-0.9-0.4-1-0.9c0-0.5,0.4-1,0.9-1c0.3,0,8-0.6,8-11.6c0-6-1.3-10.4-3.8-12.5
						c-1.2-1-2.5-1.4-3.9-1.3c-1.7,0.2-5.8,4.4-6.5,10.5c-0.1,0.5-0.5,0.9-1,0.9c-0.5-0.1-0.9-0.5-0.9-1c0.7-6.8,5.3-11.9,8.1-12.2
						c1.9-0.3,3.9,0.3,5.4,1.7c2,1.8,4.4,5.6,4.4,14C47.8,55.8,38.1,56.4,38,56.4C38,56.4,38,56.4,38,56.4z"/>
				</g>
				<g>
					<path class="st13" d="M35.2,55.6c-0.1,0-0.3,0-0.4-0.1c-6.2-3.1-5.1-12.3-5.1-12.7c0.1-0.5,0.5-0.9,1.1-0.8
						c0.5,0.1,0.9,0.5,0.8,1.1c0,0.1-0.9,8.3,4,10.8c0.5,0.2,0.7,0.8,0.4,1.3C35.9,55.5,35.6,55.6,35.2,55.6z"/>
				</g>
				<g>
					<path class="st13" d="M40.1,52.8c-0.3,0-0.6-0.2-0.8-0.4c-0.3-0.4-0.2-1,0.3-1.3c2-1.3,2.9-4.5,3.2-7c0.3-3.3-0.4-8.1-2.1-10
						c-0.5-0.5-1-0.8-1.5-0.8c-1.8,0-4,4.9-4.6,8.1c-0.6,3.7,0.4,7.5,1.7,8.5c0.3,0.2,0.6,0.3,1,0.1c1.1-0.6,1.9-2.5,2.2-5.1
						c0.3-3.1-0.2-5.8-0.7-6.6C37,40.3,37.2,45.3,38,47c0.2,0.5,0,1-0.5,1.3c-0.5,0.2-1,0-1.3-0.5c-1-2.2-1.3-8.2,1.1-11
						c0.8-0.9,1.5-0.7,1.8-0.6c1.6,0.5,2,3.5,2.1,5.3c0.3,3.8-0.4,8.7-3.3,10.1c-1,0.5-2.1,0.5-3-0.2c-2.3-1.7-3-6.6-2.4-10.3
						c0.3-1.9,2.5-9.7,6.5-9.7c1.1,0,2.1,0.5,3,1.4c2.5,2.7,2.9,8.5,2.6,11.5c-0.2,1.9-1,6.4-4.1,8.4C40.4,52.8,40.2,52.8,40.1,52.8
						z"/>
				</g>
			</g>
		</g>
	</g>
</g>
</svg>
