<?xml version="1.0" encoding="utf-8"?>
<!-- Generator: Adobe Illustrator 23.1.1, SVG Export Plug-In . SVG Version: 6.00 Build 0)  -->
<svg version="1.1" id="Capa_1" xmlns="http://www.w3.org/2000/svg" xmlns:xlink="http://www.w3.org/1999/xlink" x="0px" y="0px"
	 viewBox="0 0 75.3 57" style="enable-background:new 0 0 75.3 57;" xml:space="preserve">
<style type="text/css">
	.st0{fill:#FFFFFF;}
	.st1{fill:#1AD5B1;}
</style>
<g>
	<g>
		<g>
			<g>
				<path class="st0" d="M71.3,51.1h-16c-0.4,0-0.7-0.3-0.7-0.7s0.3-0.7,0.7-0.7h16c0.4,0,0.7,0.3,0.7,0.7S71.6,51.1,71.3,51.1z"/>
			</g>
		</g>
		<g>
			<g>
				<path class="st0" d="M20.6,51.1h-16c-0.4,0-0.7-0.3-0.7-0.7s0.3-0.7,0.7-0.7h16c0.4,0,0.7,0.3,0.7,0.7S21,51.1,20.6,51.1z"/>
			</g>
		</g>
		<g>
			<g>
				<path class="st0" d="M72.2,56.1H56.4c-0.4,0-0.7-0.3-0.7-0.7c0-0.4,0.3-0.7,0.7-0.7h15.8c0.9,0,1.6-0.7,1.6-1.6v-3.1
					c0-0.4,0.3-0.7,0.7-0.7c0.4,0,0.7,0.3,0.7,0.7V53C75.3,54.7,73.9,56.1,72.2,56.1z M52.6,56.1H30c-0.4,0-0.7-0.3-0.7-0.7
					c0-0.4,0.3-0.7,0.7-0.7h22.6c0.4,0,0.7,0.3,0.7,0.7C53.3,55.8,53,56.1,52.6,56.1z M26.2,56.1H3.6c-1.7,0-3.1-1.4-3.1-3.1v-0.7
					c0-0.4,0.3-0.7,0.7-0.7c0.4,0,0.7,0.3,0.7,0.7V53c0,0.9,0.7,1.6,1.6,1.6h22.6c0.4,0,0.7,0.3,0.7,0.7
					C26.9,55.8,26.6,56.1,26.2,56.1z M1.3,49.3c-0.4,0-0.7-0.3-0.7-0.7v-0.9c0-1.7,1.4-3.1,3.1-3.1h18c0.4,0,0.7,0.3,0.7,0.7
					c0,0.4-0.3,0.7-0.7,0.7h-18C2.7,46,2,46.8,2,47.7v0.9C2,48.9,1.7,49.3,1.3,49.3z M74.1,47c-0.2,0-0.4-0.1-0.6-0.3
					c-0.3-0.4-0.8-0.7-1.3-0.7c0,0,0,0,0,0H51.8c-0.4,0-0.7-0.3-0.7-0.7c0-0.4,0.3-0.7,0.7-0.7h20.4c0,0,0,0,0,0
					c1,0,1.9,0.5,2.5,1.2c0.2,0.3,0.2,0.8-0.1,1C74.4,46.9,74.3,47,74.1,47z M48,46H25.4c-0.4,0-0.7-0.3-0.7-0.7
					c0-0.4,0.3-0.7,0.7-0.7H48c0.4,0,0.7,0.3,0.7,0.7C48.8,45.7,48.4,46,48,46z"/>
			</g>
		</g>
		<g>
			<g>
				<path class="st0" d="M46.8,56.1H29.1c-0.4,0-0.7-0.3-0.7-0.7v-6.2c0-0.4,0.3-0.7,0.7-0.7h15.3c0.4,0,0.7,0.3,0.7,0.7
					c0,0.4-0.3,0.7-0.7,0.7H29.8v4.8h16.3v-4.2c0-0.4,0.3-0.7,0.7-0.7s0.7,0.3,0.7,0.7v4.9C47.5,55.8,47.2,56.1,46.8,56.1z"/>
			</g>
		</g>
		<g>
			<g>
				<path class="st0" d="M66.9,46H44.3c-0.4,0-0.7-0.3-0.7-0.7c0-0.4,0.3-0.7,0.7-0.7h22.6c0.4,0,0.7,0.3,0.7,0.7
					C67.6,45.7,67.3,46,66.9,46z M40.5,46H17.9c-0.4,0-0.7-0.3-0.7-0.7c0-0.4,0.3-0.7,0.7-0.7h22.6c0.4,0,0.7,0.3,0.7,0.7
					C41.2,45.7,40.9,46,40.5,46z M14.2,46h-8c-0.4,0-0.7-0.3-0.7-0.7V30.7c0-0.4,0.3-0.7,0.7-0.7c0.4,0,0.7,0.3,0.7,0.7v13.9h7.3
					c0.4,0,0.7,0.3,0.7,0.7C14.9,45.7,14.6,46,14.2,46z M69.7,45.1c-0.4,0-0.7-0.3-0.7-0.7V21.7c0-0.4,0.3-0.7,0.7-0.7
					s0.7,0.3,0.7,0.7v22.6C70.4,44.7,70.1,45.1,69.7,45.1z M6.1,27.7c-0.4,0-0.7-0.3-0.7-0.7V4.8c0-0.2,0-0.3,0-0.5
					c0.1-0.4,0.4-0.7,0.8-0.6c0.4,0.1,0.7,0.4,0.6,0.8c0,0.1,0,0.2,0,0.3V27C6.8,27.4,6.5,27.7,6.1,27.7z M69.7,18.7
					c-0.4,0-0.7-0.3-0.7-0.7V4.8c0-1.4-1.1-2.5-2.5-2.5h-4.3c-0.4,0-0.7-0.3-0.7-0.7c0-0.4,0.3-0.7,0.7-0.7h4.3c2.2,0,4,1.8,4,4V18
					C70.4,18.4,70.1,18.7,69.7,18.7z M8.5,2.4c-0.3,0-0.6-0.2-0.7-0.5C7.7,1.5,7.9,1.1,8.3,1C8.6,0.9,9,0.8,9.4,0.8H32
					c0.4,0,0.7,0.3,0.7,0.7c0,0.4-0.3,0.7-0.7,0.7H9.4c-0.2,0-0.5,0-0.7,0.1C8.6,2.4,8.6,2.4,8.5,2.4z M58.4,2.2H35.8
					c-0.4,0-0.7-0.3-0.7-0.7c0-0.4,0.3-0.7,0.7-0.7h22.6c0.4,0,0.7,0.3,0.7,0.7C59.1,1.9,58.8,2.2,58.4,2.2z"/>
			</g>
		</g>
		<g>
			<g>
				<path class="st0" d="M65.7,46h-6.2c-0.4,0-0.7-0.3-0.7-0.7c0-0.4,0.3-0.7,0.7-0.7H65V28.9c0-0.4,0.3-0.7,0.7-0.7
					c0.4,0,0.7,0.3,0.7,0.7v16.4C66.4,45.7,66.1,46,65.7,46z M55.7,46H33.1c-0.4,0-0.7-0.3-0.7-0.7c0-0.4,0.3-0.7,0.7-0.7h22.6
					c0.4,0,0.7,0.3,0.7,0.7C56.4,45.7,56.1,46,55.7,46z M29.4,46H10.1c-0.4,0-0.7-0.3-0.7-0.7v-3.4c0-0.4,0.3-0.7,0.7-0.7
					c0.4,0,0.7,0.3,0.7,0.7v2.7h18.5c0.4,0,0.7,0.3,0.7,0.7C30.1,45.7,29.7,46,29.4,46z M10.1,38.9c-0.4,0-0.7-0.3-0.7-0.7V15.6
					c0-0.4,0.3-0.7,0.7-0.7c0.4,0,0.7,0.3,0.7,0.7v22.6C10.9,38.6,10.5,38.9,10.1,38.9z M65.7,25.9c-0.4,0-0.7-0.3-0.7-0.7V6.1h-2.1
					c-0.4,0-0.7-0.3-0.7-0.7c0-0.4,0.3-0.7,0.7-0.7h2.8c0.4,0,0.7,0.3,0.7,0.7v19.8C66.4,25.5,66.1,25.9,65.7,25.9z M10.1,12.5
					c-0.4,0-0.7-0.3-0.7-0.7V5.4c0-0.4,0.3-0.7,0.7-0.7h22.6c0.4,0,0.7,0.3,0.7,0.7c0,0.4-0.3,0.7-0.7,0.7H10.9v5.7
					C10.9,12.2,10.5,12.5,10.1,12.5z M59.1,6.1H36.5c-0.4,0-0.7-0.3-0.7-0.7c0-0.4,0.3-0.7,0.7-0.7h22.6c0.4,0,0.7,0.3,0.7,0.7
					C59.8,5.7,59.5,6.1,59.1,6.1z"/>
			</g>
		</g>
		<g>
			<g>
				<path class="st0" d="M16.5,19.1c-0.4,0-0.7-0.3-0.7-0.7v-5.8c0-0.4,0.3-0.7,0.7-0.7c0.4,0,0.7,0.3,0.7,0.7v5.8
					C17.2,18.8,16.9,19.1,16.5,19.1z"/>
			</g>
		</g>
		<g>
			<g>
				<path class="st0" d="M22.3,19c-2,0-3.6-1.6-3.6-3.6c0-2,1.6-3.6,3.6-3.6c2,0,3.6,1.6,3.6,3.6C25.8,17.4,24.2,19,22.3,19z
					 M22.3,13.3c-1.2,0-2.2,1-2.2,2.2c0,1.2,1,2.2,2.2,2.2c1.2,0,2.2-1,2.2-2.2C24.4,14.3,23.4,13.3,22.3,13.3z"/>
			</g>
		</g>
		<g>
			<g>
				<path class="st0" d="M27.9,19.1c-0.4,0-0.7-0.3-0.7-0.7v-5.8c0-0.4,0.3-0.7,0.7-0.7c0.4,0,0.7,0.3,0.7,0.7v5.8
					C28.6,18.8,28.3,19.1,27.9,19.1z"/>
			</g>
		</g>
		<g>
			<g>
				<path class="st0" d="M33.7,19c-2,0-3.6-1.6-3.6-3.6c0-2,1.6-3.6,3.6-3.6c2,0,3.6,1.6,3.6,3.6C37.2,17.4,35.6,19,33.7,19z
					 M33.7,13.3c-1.2,0-2.2,1-2.2,2.2c0,1.2,1,2.2,2.2,2.2c1.2,0,2.2-1,2.2-2.2C35.8,14.3,34.8,13.3,33.7,13.3z"/>
			</g>
		</g>
		<g>
			<g>
				<path class="st0" d="M39.3,19.1c-0.4,0-0.7-0.3-0.7-0.7v-5.8c0-0.4,0.3-0.7,0.7-0.7c0.4,0,0.7,0.3,0.7,0.7v5.8
					C40,18.8,39.7,19.1,39.3,19.1z"/>
			</g>
		</g>
		<g>
			<path class="st1" d="M45,19c-2,0-3.6-1.6-3.6-3.6c0-2,1.6-3.6,3.6-3.6c2,0,3.6,1.6,3.6,3.6C48.6,17.4,47,19,45,19z M45,13.3
				c-1.2,0-2.2,1-2.2,2.2c0,1.2,1,2.2,2.2,2.2c1.2,0,2.2-1,2.2-2.2C47.2,14.3,46.2,13.3,45,13.3z"/>
		</g>
		<g>
			<g>
				<path class="st0" d="M50.7,19.1c-0.4,0-0.7-0.3-0.7-0.7v-5.8c0-0.4,0.3-0.7,0.7-0.7c0.4,0,0.7,0.3,0.7,0.7v5.8
					C51.4,18.8,51.1,19.1,50.7,19.1z"/>
			</g>
		</g>
		<g>
			<g>
				<path class="st0" d="M56.5,19c-2,0-3.6-1.6-3.6-3.6c0-2,1.6-3.6,3.6-3.6c2,0,3.6,1.6,3.6,3.6C60,17.4,58.4,19,56.5,19z
					 M56.5,13.3c-1.2,0-2.2,1-2.2,2.2c0,1.2,1,2.2,2.2,2.2c1.2,0,2.2-1,2.2-2.2C58.6,14.3,57.6,13.3,56.5,13.3z"/>
			</g>
		</g>
		<g>
			<g>
				<path class="st0" d="M59.3,28.9c-0.4,0-0.7-0.3-0.7-0.7v-5.8c0-0.4,0.3-0.7,0.7-0.7S60,22,60,22.4v5.8
					C60,28.6,59.7,28.9,59.3,28.9z"/>
			</g>
		</g>
		<g>
			<g>
				<path class="st0" d="M53.6,28.9c-2,0-3.6-1.6-3.6-3.6c0-2,1.6-3.6,3.6-3.6c2,0,3.6,1.6,3.6,3.6C57.2,27.3,55.6,28.9,53.6,28.9z
					 M53.6,23.2c-1.2,0-2.2,1-2.2,2.2c0,1.2,1,2.2,2.2,2.2c1.2,0,2.2-1,2.2-2.2C55.8,24.1,54.8,23.2,53.6,23.2z"/>
			</g>
		</g>
		<g>
			<g>
				<path class="st0" d="M47.9,28.9c-0.4,0-0.7-0.3-0.7-0.7v-5.8c0-0.4,0.3-0.7,0.7-0.7c0.4,0,0.7,0.3,0.7,0.7v5.8
					C48.6,28.6,48.3,28.9,47.9,28.9z"/>
			</g>
		</g>
		<g>
			<path class="st1" d="M42.2,28.9c-2,0-3.6-1.6-3.6-3.6c0-2,1.6-3.6,3.6-3.6c2,0,3.6,1.6,3.6,3.6C45.8,27.3,44.2,28.9,42.2,28.9z
				 M42.2,23.2c-1.2,0-2.2,1-2.2,2.2c0,1.2,1,2.2,2.2,2.2c1.2,0,2.2-1,2.2-2.2C44.4,24.1,43.4,23.2,42.2,23.2z"/>
		</g>
		<g>
			<path class="st1" d="M36.5,28.9c-0.4,0-0.7-0.3-0.7-0.7v-5.8c0-0.4,0.3-0.7,0.7-0.7c0.4,0,0.7,0.3,0.7,0.7v5.8
				C37.2,28.6,36.9,28.9,36.5,28.9z"/>
		</g>
		<g>
			<path class="st1" d="M30.8,28.9c-2,0-3.6-1.6-3.6-3.6c0-2,1.6-3.6,3.6-3.6c2,0,3.6,1.6,3.6,3.6C34.4,27.3,32.8,28.9,30.8,28.9z
				 M30.8,23.2c-1.2,0-2.2,1-2.2,2.2c0,1.2,1,2.2,2.2,2.2c1.2,0,2.2-1,2.2-2.2C33,24.1,32,23.2,30.8,23.2z"/>
		</g>
		<g>
			<g>
				<path class="st0" d="M25.1,28.9c-0.4,0-0.7-0.3-0.7-0.7v-5.8c0-0.4,0.3-0.7,0.7-0.7s0.7,0.3,0.7,0.7v5.8
					C25.8,28.6,25.5,28.9,25.1,28.9z"/>
			</g>
		</g>
		<g>
			<g>
				<path class="st0" d="M19.4,28.9c-2,0-3.6-1.6-3.6-3.6c0-2,1.6-3.6,3.6-3.6c2,0,3.6,1.6,3.6,3.6C23,27.3,21.4,28.9,19.4,28.9z
					 M19.4,23.2c-1.2,0-2.2,1-2.2,2.2c0,1.2,1,2.2,2.2,2.2c1.2,0,2.2-1,2.2-2.2C21.6,24.1,20.6,23.2,19.4,23.2z"/>
			</g>
		</g>
		<g>
			<g>
				<path class="st0" d="M16.5,38.8c-0.4,0-0.7-0.3-0.7-0.7v-5.8c0-0.4,0.3-0.7,0.7-0.7c0.4,0,0.7,0.3,0.7,0.7v5.8
					C17.2,38.5,16.9,38.8,16.5,38.8z"/>
			</g>
		</g>
		<g>
			<g>
				<path class="st0" d="M22.3,38.8c-2,0-3.6-1.6-3.6-3.6c0-2,1.6-3.6,3.6-3.6c2,0,3.6,1.6,3.6,3.6C25.8,37.2,24.2,38.8,22.3,38.8z
					 M22.3,33c-1.2,0-2.2,1-2.2,2.2c0,1.2,1,2.2,2.2,2.2c1.2,0,2.2-1,2.2-2.2C24.4,34,23.4,33,22.3,33z"/>
			</g>
		</g>
		<g>
			<g>
				<path class="st0" d="M27.9,38.8c-0.4,0-0.7-0.3-0.7-0.7v-5.8c0-0.4,0.3-0.7,0.7-0.7c0.4,0,0.7,0.3,0.7,0.7v5.8
					C28.6,38.5,28.3,38.8,27.9,38.8z"/>
			</g>
		</g>
		<g>
			<g>
				<path class="st0" d="M33.7,38.8c-2,0-3.6-1.6-3.6-3.6c0-2,1.6-3.6,3.6-3.6c2,0,3.6,1.6,3.6,3.6C37.2,37.2,35.6,38.8,33.7,38.8z
					 M33.7,33c-1.2,0-2.2,1-2.2,2.2c0,1.2,1,2.2,2.2,2.2c1.2,0,2.2-1,2.2-2.2C35.8,34,34.8,33,33.7,33z"/>
			</g>
		</g>
		<g>
			<path class="st1" d="M39.3,38.8c-0.4,0-0.7-0.3-0.7-0.7v-5.8c0-0.4,0.3-0.7,0.7-0.7c0.4,0,0.7,0.3,0.7,0.7v5.8
				C40,38.5,39.7,38.8,39.3,38.8z"/>
		</g>
		<g>
			<g>
				<path class="st0" d="M45,38.8c-2,0-3.6-1.6-3.6-3.6c0-2,1.6-3.6,3.6-3.6c2,0,3.6,1.6,3.6,3.6C48.6,37.2,47,38.8,45,38.8z M45,33
					c-1.2,0-2.2,1-2.2,2.2c0,1.2,1,2.2,2.2,2.2c1.2,0,2.2-1,2.2-2.2C47.2,34,46.2,33,45,33z"/>
			</g>
		</g>
		<g>
			<g>
				<path class="st0" d="M50.7,38.8c-0.4,0-0.7-0.3-0.7-0.7v-5.8c0-0.4,0.3-0.7,0.7-0.7c0.4,0,0.7,0.3,0.7,0.7v5.8
					C51.4,38.5,51.1,38.8,50.7,38.8z"/>
			</g>
		</g>
		<g>
			<g>
				<path class="st0" d="M56.5,38.8c-2,0-3.6-1.6-3.6-3.6c0-2,1.6-3.6,3.6-3.6c2,0,3.6,1.6,3.6,3.6C60,37.2,58.4,38.8,56.5,38.8z
					 M56.5,33c-1.2,0-2.2,1-2.2,2.2c0,1.2,1,2.2,2.2,2.2c1.2,0,2.2-1,2.2-2.2C58.6,34,57.6,33,56.5,33z"/>
			</g>
		</g>
	</g>
</g>
</svg>
