<?xml version="1.0" encoding="utf-8"?>
<!-- Generator: Adobe Illustrator 23.1.1, SVG Export Plug-In . SVG Version: 6.00 Build 0)  -->
<svg version="1.1" id="Capa_1" xmlns="http://www.w3.org/2000/svg" xmlns:xlink="http://www.w3.org/1999/xlink" x="0px" y="0px"
	 viewBox="0 0 82.1 83" style="enable-background:new 0 0 82.1 83;" xml:space="preserve">
<style type="text/css">
	.st0{fill:#2045F4;}
	.st1{fill:#1AD5B1;}
</style>
<g id="Outlines">
	<g>
		<circle class="st0" cx="42.4" cy="52.4" r="1.4"/>
		<circle class="st0" cx="47.9" cy="52.4" r="1.4"/>
		<circle class="st0" cx="53.3" cy="52.4" r="1.4"/>
		<circle class="st0" cx="42.4" cy="41.5" r="1.4"/>
		<circle class="st0" cx="47.9" cy="41.5" r="1.4"/>
		<circle class="st0" cx="53.3" cy="41.5" r="1.4"/>
		<path class="st0" d="M27.4,42.8h8.2c0.8,0,1.4-0.6,1.4-1.4s-0.6-1.4-1.4-1.4h-8.2c-0.8,0-1.4,0.6-1.4,1.4S26.7,42.8,27.4,42.8z"/>
		<circle class="st1" cx="42.4" cy="30.6" r="1.4"/>
		<circle class="st1" cx="47.9" cy="30.6" r="1.4"/>
		<circle class="st1" cx="53.3" cy="30.6" r="1.4"/>
		<path class="st1" d="M35.6,29.2h-8.2c-0.8,0-1.4,0.6-1.4,1.4c0,0.8,0.6,1.4,1.4,1.4h8.2c0.8,0,1.4-0.6,1.4-1.4
			C37,29.8,36.3,29.2,35.6,29.2z"/>
		<path class="st0" d="M79.2,70.1c0.1-4.4-1.7-9.9-5-16.2c4.6-12.1,2.2-25.7-6.2-35.5c-0.5-0.6-1.4-0.6-1.9-0.2
			c-0.6,0.5-0.6,1.4-0.2,1.9c7.2,8.4,9.6,19.9,6.5,30.5c-1.8-3-3.8-5.9-5.9-8.7c-0.5-0.6-1.3-0.7-1.9-0.3c-0.6,0.5-0.7,1.3-0.3,1.9
			c0,0,0,0,0,0c2.5,3.3,4.8,6.8,6.8,10.5c-3.3,7.9-9.6,14.2-17.5,17.5c-6.2-3.5-12-7.7-17.4-12.4h23.8c0.8,0,1.4-0.6,1.4-1.4v-1.6
			c2.1-0.7,3.2-3.1,2.5-5.2c-0.4-1.2-1.3-2.1-2.5-2.5V25.1c0-0.8-0.6-1.4-1.4-1.4H49.9c-5.6-5.1-11.6-9.7-18.1-13.6
			c6.8-2,14-1.8,20.6,0.6c-0.2,0.7-0.4,1.4-0.4,2.1c0,3.8,3,6.9,6.8,7c3.8,0,6.9-3,7-6.8c0-3.8-3-6.9-6.8-7c-2,0-3.9,0.8-5.2,2.3
			c-8.1-3.1-17.1-3.1-25.2,0c-6.2-3.3-11.8-5-16.1-5c-2.2-3-6.5-3.7-9.5-1.4s-3.7,6.5-1.4,9.5c0.4,0.5,0.9,1,1.4,1.4
			c-0.1,4.4,1.7,10,5,16.1c-5,13.3-1.6,28.2,8.6,38c0.5,0.5,1.4,0.5,1.9,0c0.5-0.5,0.5-1.4,0-1.9C9.5,56.6,6.2,43.9,9.7,32.2
			c3.2,5.3,6.9,10.3,10.9,15v10.6c0,0.8,0.6,1.4,1.4,1.4h5.5c0.8,0,1.4-0.6,1.4-1.4s-0.6-1.4-1.4-1.4h-4.1v-6.2
			c1.4,1.5,2.8,3.1,4.3,4.6c6.8,6.9,14.4,12.9,22.7,18c-5.8,1.7-11.9,1.8-17.7,0.2c0.9-3.7-1.3-7.4-5-8.3c-3.7-0.9-7.4,1.3-8.3,5
			c-0.9,3.7,1.3,7.4,5,8.3c2.7,0.7,5.5-0.3,7.1-2.5c7.3,2.1,15,1.7,22.1-0.9c6.1,3.2,11.6,5,16,5c0.1,0,0.1,0,0.2,0
			c2.2,3,6.5,3.6,9.5,1.4c3-2.2,3.6-6.5,1.4-9.5C80.2,71,79.7,70.5,79.2,70.1L79.2,70.1z M58.8,8.8c2.3,0,4.1,1.8,4.1,4.1
			s-1.8,4.1-4.1,4.1c-2.3,0-4.1-1.8-4.1-4.1S56.5,8.8,58.8,8.8z M33.3,56.5c-1-0.9-1.9-1.8-2.9-2.7h5.2c0.8,0,1.4-0.6,1.4-1.4
			S36.3,51,35.6,51h-7.8c-0.9-0.9-1.7-1.8-2.5-2.7h33.6v0.3c-2.1,0.7-3.2,3.1-2.5,5.2c0.4,1.2,1.3,2.1,2.5,2.5v0.3H33.3z M58.8,45.6
			H23.3v-8.2h35.5V45.6z M60.1,53.7c-0.8,0-1.4-0.6-1.4-1.4s0.6-1.4,1.4-1.4s1.4,0.6,1.4,1.4S60.9,53.7,60.1,53.7z M7,3.3
			c1.4,0,2.8,0.8,3.5,2c0,0,0,0,0,0.1C10.8,6,11,6.7,11,7.4c0,2.3-1.8,4.1-4.1,4.1c-0.7,0-1.4-0.2-2.1-0.6l0,0
			C2.9,9.7,2.3,7.2,3.4,5.3C4.2,4,5.5,3.3,7,3.3z M5.6,14.1c3.7,0.7,7.3-1.6,8-5.3c0.2-0.9,0.2-1.8,0-2.7c4.1,0.5,8,1.7,11.6,3.7
			c-6.9,3.5-12.5,9.1-16,16C7.4,22.1,6.1,18.2,5.6,14.1z M28.3,11.3c6.2,3.5,12.1,7.7,17.4,12.4h-3.4c-0.8,0-1.4,0.6-1.4,1.4
			c0,0.8,0.6,1.4,1.4,1.4h16.4v8.2H23.3v-8.2H37c0.8,0,1.4-0.6,1.4-1.4c0-0.8-0.6-1.4-1.4-1.4H22c-0.8,0-1.4,0.6-1.4,1.4v17.8
			c-3.6-4.4-6.9-9.2-9.7-14.1C14.2,20.9,20.5,14.7,28.3,11.3z M26,75.6c-2.3,0-4.1-1.8-4.1-4.1c0-2.3,1.8-4.1,4.1-4.1
			s4.1,1.8,4.1,4.1C30.1,73.7,28.3,75.6,26,75.6z M56.8,73.2c6.9-3.5,12.6-9.1,16-16c1.9,3.6,3.2,7.6,3.6,11.7
			c-3.7-0.7-7.3,1.7-8,5.3c-0.2,0.9-0.2,1.8,0,2.7C64.4,76.4,60.4,75.2,56.8,73.2z M75.1,79.7c-1.4,0-2.8-0.8-3.5-2l0-0.1
			c-0.4-0.6-0.6-1.3-0.6-2.1c0-2.3,1.8-4.1,4.1-4.1c0.7,0,1.4,0.2,2.1,0.6l0,0c1.9,1.2,2.6,3.7,1.4,5.6
			C77.9,78.9,76.6,79.7,75.1,79.7z"/>
		<path class="st1" d="M76.5,15.6c2.3,0,4.1-1.8,4.1-4.1s-1.8-4.1-4.1-4.1c-2.3,0-4.1,1.8-4.1,4.1S74.2,15.6,76.5,15.6z M76.5,10.1
			c0.8,0,1.4,0.6,1.4,1.4c0,0.8-0.6,1.4-1.4,1.4s-1.4-0.6-1.4-1.4C75.1,10.7,75.7,10.1,76.5,10.1z"/>
		<path class="st1" d="M7,64.7c-2.3,0-4.1,1.8-4.1,4.1s1.8,4.1,4.1,4.1S11,71,11,68.7S9.2,64.7,7,64.7z M7,70.1
			c-0.8,0-1.4-0.6-1.4-1.4s0.6-1.4,1.4-1.4s1.4,0.6,1.4,1.4S7.7,70.1,7,70.1z"/>
	</g>
</g>
</svg>
