<?xml version="1.0" encoding="utf-8"?>
<!-- Generator: Adobe Illustrator 23.1.1, SVG Export Plug-In . SVG Version: 6.00 Build 0)  -->
<svg version="1.1" id="Capa_1" xmlns="http://www.w3.org/2000/svg" xmlns:xlink="http://www.w3.org/1999/xlink" x="0px" y="0px"
	 viewBox="0 0 77.9 78.8" style="enable-background:new 0 0 77.9 78.8;" xml:space="preserve">
<style type="text/css">
	.st0{fill:#FFFFFF;}
	.st1{fill:#1AD5B1;}
</style>
<g>
	<path class="st0" d="M16.1,59.2c0-0.6-0.5-1.1-1.1-1.1C8.3,58,2.9,52.6,2.9,46c0-4.7,2.8-9,7.1-11c0.6-0.3,0.8-0.9,0.6-1.5
		c-0.3-0.6-0.9-0.8-1.5-0.6c-5.1,2.3-8.4,7.4-8.4,13c0,7.9,6.4,14.3,14.3,14.3C15.6,60.3,16.1,59.8,16.1,59.2z"/>
	<path class="st0" d="M24.1,35.7c1.6-9,9.5-15.6,18.7-15.6c7,0,13.5,3.9,16.8,10.1c0.3,0.5,1,0.8,1.5,0.5c0.5-0.3,0.8-1,0.5-1.5
		c-0.6-1.2-1.4-2.3-2.2-3.3v-15l2.7-3.2c0.4,0.1,0.8,0.2,1.2,0.2c1.9,0,3.4-1.5,3.4-3.4s-1.5-3.4-3.4-3.4c-1.9,0-3.4,1.5-3.4,3.4
		c0,0.6,0.2,1.2,0.5,1.7l-3,3.5c-0.2,0.2-0.3,0.5-0.3,0.7v13c-2-1.8-4.3-3.2-6.8-4.2v-7.8c1.3-0.5,2.2-1.7,2.2-3.2
		c0-1.9-1.5-3.4-3.4-3.4s-3.4,1.5-3.4,3.4c0,1.5,0.9,2.7,2.2,3.2v7.1c-1.7-0.4-3.5-0.7-5.3-0.7c-0.9,0-1.8,0.1-2.7,0.2V7.6
		c1.3-0.5,2.2-1.7,2.2-3.2c0-1.9-1.5-3.4-3.4-3.4c-1.9,0-3.4,1.5-3.4,3.4c0,1.5,0.9,2.7,2.2,3.2v10.8c-3,0.7-5.7,2.1-8.1,3.9V11.4
		c1.3-0.5,2.2-1.7,2.2-3.2c0-1.9-1.5-3.4-3.4-3.4s-3.4,1.5-3.4,3.4c0,1.5,0.9,2.7,2.2,3.2v13c-2.4,2.5-4.3,5.7-5.2,9.3
		c-0.5-0.3-1.1-0.6-1.6-0.8V10.4c0-0.3-0.1-0.5-0.3-0.7l-3-3.5c0.3-0.5,0.5-1.1,0.5-1.7c0-1.9-1.5-3.4-3.4-3.4s-3.4,1.5-3.4,3.4
		s1.5,3.4,3.4,3.4c0.4,0,0.8-0.1,1.2-0.2l2.7,3.2V32c-1.1-0.3-2.3-0.4-3.5-0.4c-0.6,0-1.1,0.5-1.1,1.1c0,0.6,0.5,1.1,1.1,1.1
		c2.7,0,5.3,0.9,7.4,2.5c0.2,0.2,0.4,0.2,0.7,0.2c0.1,0,0.3,0,0.4-0.1C23.8,36.4,24.1,36.1,24.1,35.7L24.1,35.7z M63.3,3.3
		c0.6,0,1.1,0.5,1.1,1.1s-0.5,1.1-1.1,1.1c-0.6,0-1.1-0.5-1.1-1.1S62.7,3.3,63.3,3.3z M49.3,7.1c0.6,0,1.1,0.5,1.1,1.1
		c0,0.6-0.5,1.1-1.1,1.1s-1.1-0.5-1.1-1.1C48.2,7.6,48.7,7.1,49.3,7.1z M39,3.3c0.6,0,1.1,0.5,1.1,1.1S39.6,5.6,39,5.6
		c-0.6,0-1.1-0.5-1.1-1.1S38.3,3.3,39,3.3L39,3.3z M28.6,7.1c0.6,0,1.1,0.5,1.1,1.1c0,0.6-0.5,1.1-1.1,1.1s-1.1-0.5-1.1-1.1
		C27.5,7.6,28,7.1,28.6,7.1z M13.4,4.5c0-0.6,0.5-1.1,1.1-1.1c0.6,0,1.1,0.5,1.1,1.1s-0.5,1.1-1.1,1.1C13.9,5.6,13.4,5.1,13.4,4.5z"
		/>
	<path class="st0" d="M66.5,38.7c-0.8,0-1.6,0.1-2.4,0.3c0-1.6-0.2-3.1-0.5-4.6c-0.1-0.6-0.7-1-1.3-0.8c-0.6,0.1-1,0.7-0.8,1.3
		c0.3,1.4,0.5,2.8,0.5,4.3c0,0.4,0,0.9,0,1.3c0,0.4,0.1,0.8,0.5,1c0.3,0.2,0.7,0.3,1.1,0.1c1-0.4,2.1-0.6,3.2-0.6
		c4.7,0,8.6,3.8,8.6,8.6S71.2,58,66.5,58h-3.7c-0.6,0-1.1,0.5-1.1,1.1c0,0.6,0.5,1.1,1.1,1.1h3.7c6,0,10.8-4.8,10.8-10.8
		C77.3,43.5,72.4,38.7,66.5,38.7L66.5,38.7z"/>
	<path class="st0" d="M53.9,58H43.5c-0.6,0-1.1,0.5-1.1,1.1c0,0.6,0.5,1.1,1.1,1.1h4.7v10.9c-1.3,0.5-2.2,1.7-2.2,3.2
		c0,1.9,1.5,3.4,3.4,3.4c1.9,0,3.4-1.5,3.4-3.4c0-1.5-0.9-2.7-2.2-3.2V60.3h3.5c0.6,0,1.1-0.5,1.1-1.1C55,58.5,54.5,58,53.9,58
		L53.9,58z M49.3,75.5c-0.6,0-1.1-0.5-1.1-1.1s0.5-1.1,1.1-1.1c0.6,0,1.1,0.5,1.1,1.1C50.4,75,49.9,75.5,49.3,75.5z"/>
	<path class="st0" d="M34.5,58H24.2c-0.6,0-1.1,0.5-1.1,1.1c0,0.6,0.5,1.1,1.1,1.1h3.3v10.9c-1.3,0.5-2.2,1.7-2.2,3.2
		c0,1.9,1.5,3.4,3.4,3.4s3.4-1.5,3.4-3.4c0-1.5-0.9-2.7-2.2-3.2V60.3h4.7c0.6,0,1.1-0.5,1.1-1.1C35.6,58.5,35.1,58,34.5,58L34.5,58z
		 M28.6,75.5c-0.6,0-1.1-0.5-1.1-1.1s0.5-1.1,1.1-1.1c0.6,0,1.1,0.5,1.1,1.1C29.8,75,29.3,75.5,28.6,75.5z"/>
	<path class="st1" d="M19.6,48.3c-1.9,0-3.4,1.5-3.4,3.4c0,1.5,0.9,2.7,2.2,3.2v15.3l-4.8,5.7c-0.4,0.5-0.3,1.2,0.1,1.6
		c0.2,0.2,0.5,0.3,0.7,0.3c0.3,0,0.6-0.1,0.9-0.4l5-6c0.2-0.2,0.3-0.5,0.3-0.7V54.9c1.3-0.5,2.2-1.7,2.2-3.2
		C23,49.9,21.5,48.3,19.6,48.3L19.6,48.3z M19.6,52.8c-0.6,0-1.1-0.5-1.1-1.1c0-0.6,0.5-1.1,1.1-1.1s1.1,0.5,1.1,1.1
		S20.2,52.8,19.6,52.8z"/>
	<path class="st1" d="M39,48.3c-1.9,0-3.4,1.5-3.4,3.4c0,1.5,0.9,2.7,2.2,3.2v21.7c0,0.6,0.5,1.1,1.1,1.1c0.6,0,1.1-0.5,1.1-1.1
		V54.9c1.3-0.5,2.2-1.7,2.2-3.2C42.3,49.9,40.8,48.3,39,48.3z M39,52.8c-0.6,0-1.1-0.5-1.1-1.1c0-0.6,0.5-1.1,1.1-1.1
		c0.6,0,1.1,0.5,1.1,1.1S39.6,52.8,39,52.8z"/>
	<path class="st1" d="M59.4,70.2V54.9c1.3-0.5,2.2-1.7,2.2-3.2c0-1.9-1.5-3.4-3.4-3.4c-1.9,0-3.4,1.5-3.4,3.4c0,1.5,0.9,2.7,2.2,3.2
		v15.8c0,0.3,0.1,0.5,0.3,0.7l5,6c0.2,0.3,0.5,0.4,0.9,0.4c0.3,0,0.5-0.1,0.7-0.3c0.5-0.4,0.5-1.1,0.1-1.6L59.4,70.2z M58.3,50.6
		c0.6,0,1.1,0.5,1.1,1.1c0,0.6-0.5,1.1-1.1,1.1c-0.6,0-1.1-0.5-1.1-1.1C57.2,51.1,57.7,50.6,58.3,50.6z"/>
</g>
</svg>
