<?xml version="1.0" encoding="utf-8"?>
<!-- Generator: Adobe Illustrator 23.1.1, SVG Export Plug-In . SVG Version: 6.00 Build 0)  -->
<svg version="1.1" id="Capa_1" xmlns="http://www.w3.org/2000/svg" xmlns:xlink="http://www.w3.org/1999/xlink" x="0px" y="0px"
	 viewBox="0 0 56 58.2" style="enable-background:new 0 0 56 58.2;" xml:space="preserve">
<style type="text/css">
	.st0{fill:#7670FF;}
</style>
<g>
	<g>
		<g>
			<path class="st0" d="M53.8,5.7H30.2V2.8c0-1.2-1-2.2-2.2-2.2c-1.2,0-2.2,1-2.2,2.2v2.8H2.2C1,5.7,0,6.6,0,7.9V11
				c0,1.2,1,2.2,2.2,2.2h0.5v32.3c0,1.2,1,2.3,2.3,2.3h10.2L13,55.4c-0.3,1.2,0.4,2.4,1.5,2.7c1.2,0.3,2.4-0.4,2.7-1.5l1-3.6h19.6
				l1,3.6v0c0.3,1.2,1.5,1.9,2.7,1.5c1.2-0.3,1.9-1.5,1.5-2.7l-2.1-7.6h10.2c1.2,0,2.3-1,2.3-2.3V31.6c0-0.5-0.4-0.8-0.8-0.8
				c-0.5,0-0.8,0.4-0.8,0.8v13.9c0,0.3-0.3,0.6-0.6,0.6c-0.8,0-20.6,0-21.4,0c-0.5,0-0.8,0.4-0.8,0.8s0.4,0.8,0.8,0.8h6.7l1,3.5
				H18.7l1-3.5h6.1c0.5,0,0.8-0.4,0.8-0.8s-0.4-0.8-0.8-0.8c-0.2,0-20.6,0-20.9,0c-0.3,0-0.6-0.3-0.6-0.6V13.2h47.3v14.5
				c0,0.5,0.4,0.8,0.8,0.8s0.8-0.4,0.8-0.8V13.2h0.5c1.2,0,2.2-1,2.2-2.2V7.9C56,6.6,55,5.7,53.8,5.7z M39.2,47.8L39.2,47.8l2.2,8.1
				c0.1,0.3-0.1,0.5-0.4,0.6c-0.3,0.1-0.5-0.1-0.6-0.4l-2.3-8.3H39.2z M17.9,47.8l-2.3,8.3c-0.1,0.3-0.4,0.4-0.6,0.4
				c-0.3-0.1-0.4-0.3-0.4-0.6l2.2-8.1H17.9L17.9,47.8z M27.5,2.8L27.5,2.8c0-0.3,0.2-0.5,0.5-0.5c0.3,0,0.5,0.2,0.5,0.5v2.8h-1V2.8z
				 M54.3,11c0,0.3-0.2,0.5-0.5,0.5c-0.8,0-50.9,0-51.7,0c-0.3,0-0.5-0.2-0.5-0.5V7.9c0-0.3,0.2-0.5,0.5-0.5c2.2,0,50.4,0,51.7,0
				c0.3,0,0.5,0.2,0.5,0.5V11z"/>
		</g>
	</g>
	<g>
		<g>
			<path class="st0" d="M46,40.5h-1.3V17.2c0-0.7-0.6-1.3-1.3-1.3h-3.7c-0.7,0-1.3,0.6-1.3,1.3v4h-3.3c-0.7,0-1.3,0.6-1.3,1.3v3.3
				h-3.3c-0.7,0-1.3,0.6-1.3,1.3v3.1h-3.3c-0.7,0-1.3,0.6-1.3,1.3v9.1h-1.3c-0.5,0-0.8,0.4-0.8,0.8s0.4,0.8,0.8,0.8
				c4.6,0,17.5,0,22.6,0c0.5,0,0.8-0.4,0.8-0.8C46.9,40.9,46.5,40.5,46,40.5z M29.4,40.5h-2.9v-8.6h2.9L29.4,40.5L29.4,40.5z
				 M33.9,40.5H31c0-1.2,0-11.5,0-13h2.9V40.5z M38.5,40.5h-2.9c0-0.5,0-16.5,0-17.6h2.9V40.5z M43,40.5h-2.9c0-0.8,0-22,0-22.8H43
				V40.5z"/>
		</g>
	</g>
	<g>
		<g>
			<path class="st0" d="M17.5,17.8h-4.4c-0.5,0-0.8,0.4-0.8,0.8c0,0.5,0.4,0.8,0.8,0.8h4.4c0.5,0,0.8-0.4,0.8-0.8
				C18.4,18.2,18,17.8,17.5,17.8z"/>
		</g>
	</g>
	<g>
		<g>
			<path class="st0" d="M19.7,22h-8.9c-0.5,0-0.8,0.4-0.8,0.8c0,0.5,0.4,0.8,0.8,0.8h8.9c0.5,0,0.8-0.4,0.8-0.8
				C20.6,22.4,20.2,22,19.7,22z"/>
		</g>
	</g>
	<g>
		<g>
			<path class="st0" d="M19.7,26.2h-8.9c-0.5,0-0.8,0.4-0.8,0.8c0,0.5,0.4,0.8,0.8,0.8h8.9c0.5,0,0.8-0.4,0.8-0.8
				C20.6,26.6,20.2,26.2,19.7,26.2z"/>
		</g>
	</g>
	<g>
		<g>
			<path class="st0" d="M19.7,30.4h-8.9c-0.5,0-0.8,0.4-0.8,0.8c0,0.5,0.4,0.8,0.8,0.8h8.9c0.5,0,0.8-0.4,0.8-0.8
				C20.6,30.7,20.2,30.4,19.7,30.4z"/>
		</g>
	</g>
</g>
</svg>
