<?xml version="1.0" encoding="utf-8"?>
<!-- Generator: Adobe Illustrator 23.1.1, SVG Export Plug-In . SVG Version: 6.00 Build 0)  -->
<svg version="1.1" id="Capa_1" xmlns="http://www.w3.org/2000/svg" xmlns:xlink="http://www.w3.org/1999/xlink" x="0px" y="0px"
	 viewBox="0 0 43.3 60.4" style="enable-background:new 0 0 43.3 60.4;" xml:space="preserve">
<style type="text/css">
	.st0{fill:#7670FF;}
</style>
<g>
	<path class="st0" d="M40.7,54.4h-0.6L24.8,13.3c1-0.8,1.7-2.1,1.7-3.5c0-2.5-2-4.5-4.5-4.5s-4.5,2-4.5,4.5c0,1.4,0.7,2.7,1.7,3.5
		L13,30.1c-0.2,0.5,0.1,1,0.5,1.1c0.1,0,0.2,0.1,0.3,0.1c0.4,0,0.7-0.2,0.8-0.6l1.4-3.9l4.6,3.9l-8.9,7.6l1.4-3.9
		c0.2-0.5-0.1-1-0.5-1.1c-0.5-0.2-1,0.1-1.1,0.5L3.9,54.4H3.4c-1.5,0-2.6,1.2-2.6,2.6v2.4c0,0.5,0.4,0.9,0.9,0.9h33.3
		c0.5,0,0.9-0.4,0.9-0.9s-0.4-0.9-0.9-0.9H2.5v-1.6c0-0.5,0.4-0.9,0.9-0.9h37.3c0.5,0,0.9,0.4,0.9,0.9v1.6H39
		c-0.5,0-0.9,0.4-0.9,0.9s0.4,0.9,0.9,0.9h3.4c0.5,0,0.9-0.4,0.9-0.9v-2.4C43.3,55.6,42.1,54.4,40.7,54.4L40.7,54.4z M32.3,38.3
		l-8.9-7.6l4.6-3.9L32.3,38.3z M24.8,18.4l-1.8-2.7l0.5-0.7L24.8,18.4z M22,7.1c1.5,0,2.7,1.2,2.7,2.7s-1.2,2.7-2.7,2.7
		s-2.7-1.2-2.7-2.7C19.3,8.3,20.5,7.1,22,7.1z M20.5,14.9l0.5,0.7l-1.8,2.7L20.5,14.9z M22,17.3l4.7,7.2h-9.5L22,17.3z M18.1,26.2
		H26l-4,3.4L18.1,26.2z M22,31.9l9.8,8.4H12.2L22,31.9z M30.4,42L22,46l-8.3-4H30.4z M10.3,42.4L20,47L6.1,53.6L10.3,42.4z
		 M8.4,54.4L22,48l13.6,6.5H8.4z M24.1,47l9.7-4.6l4.2,11.2L24.1,47z"/>
	<path class="st0" d="M10.3,15.6c0.2,0.2,0.4,0.2,0.6,0.2c0.2,0,0.5-0.1,0.6-0.3c0.3-0.4,0.3-0.9-0.1-1.2c-1.3-1.1-2-2.8-2-4.5
		c0-1.7,0.7-3.3,2-4.5c0.4-0.3,0.4-0.9,0.1-1.2c-0.3-0.4-0.9-0.4-1.2-0.1C8.7,5.5,7.8,7.6,7.8,9.8C7.8,12,8.7,14.1,10.3,15.6
		L10.3,15.6z"/>
	<path class="st0" d="M13.8,12.2c0.2,0.1,0.3,0.2,0.5,0.2c0.3,0,0.5-0.1,0.7-0.3c0.3-0.4,0.2-0.9-0.2-1.2c-0.3-0.2-0.5-0.6-0.5-1
		c0-0.4,0.2-0.8,0.5-1c0.4-0.3,0.5-0.8,0.2-1.2s-0.8-0.5-1.2-0.2c-0.8,0.6-1.2,1.5-1.2,2.4S13,11.6,13.8,12.2z"/>
	<path class="st0" d="M7,18.9c0.2,0.2,0.4,0.2,0.6,0.2c0.2,0,0.5-0.1,0.6-0.3c0.3-0.4,0.3-0.9,0-1.2C6,15.6,4.8,12.8,4.8,9.8
		c0-3,1.2-5.8,3.4-7.8c0.4-0.3,0.4-0.9,0-1.2C7.9,0.3,7.3,0.3,7,0.7C4.5,3.1,3.1,6.3,3.1,9.8C3.1,13.3,4.5,16.5,7,18.9L7,18.9z"/>
	<path class="st0" d="M32.5,14.3c-0.4,0.3-0.4,0.9-0.1,1.2c0.2,0.2,0.4,0.3,0.6,0.3c0.2,0,0.4-0.1,0.6-0.2c1.6-1.5,2.5-3.6,2.5-5.8
		c0-2.2-0.9-4.3-2.5-5.8c-0.4-0.3-0.9-0.3-1.2,0.1c-0.3,0.4-0.3,0.9,0.1,1.2c1.3,1.1,2,2.8,2,4.5C34.5,11.5,33.8,13.1,32.5,14.3
		L32.5,14.3z"/>
	<path class="st0" d="M29.2,10.8c-0.4,0.3-0.5,0.8-0.2,1.2c0.2,0.2,0.4,0.3,0.7,0.3c0.2,0,0.4-0.1,0.5-0.2c0.8-0.6,1.2-1.5,1.2-2.4
		S31,7.9,30.2,7.4c-0.4-0.3-0.9-0.2-1.2,0.2c-0.3,0.4-0.2,0.9,0.2,1.2c0.3,0.2,0.5,0.6,0.5,1C29.7,10.2,29.5,10.6,29.2,10.8z"/>
	<path class="st0" d="M35.9,1.9C38,4,39.2,6.8,39.2,9.8s-1.2,5.8-3.4,7.8c-0.4,0.3-0.4,0.9,0,1.2c0.2,0.2,0.4,0.3,0.6,0.3
		c0.2,0,0.4-0.1,0.6-0.2c2.5-2.4,3.9-5.6,3.9-9.1c0-3.5-1.4-6.7-3.9-9.1c-0.4-0.3-0.9-0.3-1.2,0C35.5,1.1,35.5,1.6,35.9,1.9z"/>
</g>
</svg>
