<?xml version="1.0" encoding="utf-8"?>
<!-- Generator: Adobe Illustrator 23.1.1, SVG Export Plug-In . SVG Version: 6.00 Build 0)  -->
<svg version="1.1" id="Capa_1" xmlns="http://www.w3.org/2000/svg" xmlns:xlink="http://www.w3.org/1999/xlink" x="0px" y="0px"
	 viewBox="0 0 56 49" style="enable-background:new 0 0 56 49;" xml:space="preserve">
<style type="text/css">
	.st0{fill:#7670FF;}
</style>
<g>
	<g>
		<path class="st0" d="M15.6,33.9h1.8h30.4c0.7,0,1.4-0.5,1.6-1.2l6.5-22c0.1-0.5,0.1-1-0.3-1.5c-0.3-0.4-0.8-0.7-1.3-0.7H12.1
			L9.9,1.2C9.7,0.5,9,0,8.3,0H1.7C0.7,0,0,0.7,0,1.7c0,0.9,0.7,1.7,1.7,1.7h5.4l2.2,7.5c0,0,0,0,0,0.1l5.9,19.8c-3.4,0.2-6,3-6,6.5
			c0,3.6,2.9,6.5,6.5,6.5h1.6c0.7,2.5,3,4.3,5.7,4.3c2.7,0,5-1.8,5.7-4.3h8.8c0.7,2.5,3,4.3,5.7,4.3c2.7,0,5-1.8,5.7-4.3H51
			c0.9,0,1.7-0.7,1.7-1.7s-0.7-1.7-1.7-1.7h-2.1c-0.7-2.5-3-4.3-5.7-4.3c-2.7,0-5,1.8-5.7,4.3h-8.8c-0.7-2.5-3-4.3-5.7-4.3
			s-5,1.8-5.7,4.3h-1.6c-1.7,0-3.2-1.4-3.2-3.2C12.5,35.4,13.9,33.9,15.6,33.9z M40,12h12.1l-2.3,7.7H40V12z M40,23h8.9l-2.3,7.7H40
			V23z M27.7,12h9v7.7h-9L27.7,12L27.7,12z M27.7,23h9v7.7h-9L27.7,23L27.7,23z M24.4,30.6L24.4,30.6h-5.7L16.4,23h8V30.6z M13.1,12
			h11.3v7.7h-9L13.1,12z M43.2,39.3c1.4,0,2.6,1.2,2.6,2.6c0,1.4-1.2,2.6-2.6,2.6c-1.4,0-2.6-1.2-2.6-2.6
			C40.5,40.5,41.7,39.3,43.2,39.3z M23,39.3c1.4,0,2.6,1.2,2.6,2.6c0,1.4-1.2,2.6-2.6,2.6c-1.4,0-2.6-1.2-2.6-2.6
			C20.4,40.5,21.5,39.3,23,39.3z"/>
	</g>
</g>
</svg>
