<?xml version="1.0" encoding="utf-8"?>
<!-- Generator: Adobe Illustrator 23.1.1, SVG Export Plug-In . SVG Version: 6.00 Build 0)  -->
<svg version="1.1" id="Capa_1" xmlns="http://www.w3.org/2000/svg" xmlns:xlink="http://www.w3.org/1999/xlink" x="0px" y="0px"
	 viewBox="0 0 50.9 51.8" style="enable-background:new 0 0 50.9 51.8;" xml:space="preserve">
<style type="text/css">
	.st0{fill:#7670FF;}
</style>
<g>
	<path class="st0" d="M11.7,39.7v10.9h1.7V39.7c4.6-0.4,8.2-4.2,8.4-8.8l2.3-2.3l-1.2-1.2l-2.3,2.3c-0.3,0-0.7,0-1,0.1
		c1.3-1.5,2.1-3.5,2.2-5.6l2.3-2.3l-1.2-1.2L20.6,23c-0.3,0-0.7,0-1,0.1c1.3-1.5,2.1-3.5,2.2-5.6l2.3-2.3L22.9,14l-2.3,2.3
		c-0.3,0-0.7,0-1,0.1c1.3-1.5,2.1-3.5,2.2-5.6l2.3-2.3l-1.2-1.2l-2.3,2.3c-2,0.1-3.8,0.8-5.3,2c1.3-2.3-1.1-6.8-1.9-8.1V0.3h-1.7
		v3.1C11,4.8,8.6,9.2,9.9,11.5c-1.5-1.2-3.3-1.9-5.3-2L2.3,7.3L1.1,8.5l2.3,2.3c0.1,2.1,0.9,4.1,2.2,5.6c-0.3-0.1-0.7-0.1-1-0.1
		L2.3,14l-1.2,1.2l2.3,2.3c0.1,2.1,0.9,4.1,2.2,5.6c-0.3-0.1-0.7-0.1-1-0.1l-2.3-2.3l-1.2,1.2l2.3,2.3c0.1,2.1,0.9,4.1,2.2,5.6
		c-0.3-0.1-0.7-0.1-1-0.1l-2.3-2.3l-1.2,1.2l2.3,2.3C3.5,35.5,7.2,39.3,11.7,39.7z M12.6,15c-0.4-0.9-0.9-1.7-1.6-2.4
		c0.4,0.2,0.9,0.3,1.6,0.3s1.2-0.1,1.6-0.3C13.5,13.3,13,14.1,12.6,15z M12.6,19.6c0.5,0,0.9,0,1.4-0.1c-0.6,0.7-1,1.4-1.4,2.2
		c-0.4-0.8-0.8-1.5-1.4-2.2C11.6,19.6,12.1,19.6,12.6,19.6z M12.6,26.3c0.5,0,0.9,0,1.4-0.1c-0.6,0.7-1,1.4-1.4,2.2
		c-0.4-0.8-0.8-1.5-1.4-2.2C11.6,26.3,12.1,26.3,12.6,26.3z M12.6,33.1c0.5,0,0.9,0,1.4-0.1c-0.6,0.7-1,1.4-1.4,2.2
		c-0.4-0.8-0.8-1.5-1.4-2.2C11.6,33,12.1,33.1,12.6,33.1z M13.5,38c0.4-3.5,3.2-6.2,6.6-6.6C19.7,34.9,16.9,37.6,13.5,38z
		 M13.5,31.3c0.4-3.5,3.2-6.2,6.6-6.6C19.7,28.2,16.9,30.9,13.5,31.3z M13.5,24.6c0.4-3.5,3.2-6.2,6.6-6.6
		C19.7,21.5,16.9,24.2,13.5,24.6z M20.1,11.3c-0.4,3.5-3.2,6.2-6.6,6.6C13.9,14.5,16.6,11.7,20.1,11.3z M12.6,5.5
		c1,2,1.8,4.3,1.2,5.3c-0.1,0.1-0.3,0.5-1.2,0.5c-1,0-1.2-0.4-1.2-0.5C10.8,9.8,11.6,7.4,12.6,5.5z M11.7,17.9
		c-3.5-0.4-6.2-3.2-6.6-6.6C8.5,11.7,11.3,14.5,11.7,17.9z M11.7,24.6c-3.5-0.4-6.2-3.2-6.6-6.6C8.5,18.4,11.3,21.2,11.7,24.6z
		 M11.7,31.3c-3.5-0.4-6.2-3.2-6.6-6.6C8.5,25.1,11.3,27.9,11.7,31.3z M11.7,38c-3.5-0.4-6.2-3.2-6.6-6.6
		C8.5,31.8,11.3,34.6,11.7,38z"/>
	<path class="st0" d="M48.6,10.8l2.3-2.3l-1.2-1.2l-2.3,2.3c-2,0.1-3.8,0.8-5.3,2c1.3-2.3-1.1-6.8-1.9-8.1V0.3h-1.7v3.1
		c-0.8,1.3-3.1,5.7-1.9,8.1c-1.5-1.2-3.3-1.9-5.3-2l-2.3-2.3l-1.2,1.2l2.3,2.3c0.1,2.1,0.9,4.1,2.2,5.6c-0.3-0.1-0.7-0.1-1-0.1
		L29.1,14l-1.2,1.2l2.3,2.3c0.1,2.1,0.9,4.1,2.2,5.6c-0.3-0.1-0.7-0.1-1-0.1l-2.3-2.3l-1.2,1.2l2.3,2.3c0.1,2.1,0.9,4.1,2.2,5.6
		c-0.3-0.1-0.7-0.1-1-0.1l-2.3-2.3l-1.2,1.2l2.3,2.3c0.2,4.6,3.8,8.4,8.4,8.8v10.9h1.7V39.7c4.6-0.4,8.2-4.2,8.4-8.8l2.3-2.3
		l-1.2-1.2l-2.3,2.3c-0.3,0-0.7,0-1,0.1c1.3-1.5,2.1-3.5,2.2-5.6l2.3-2.3l-1.2-1.2L47.4,23c-0.3,0-0.7,0-1,0.1
		c1.3-1.5,2.1-3.5,2.2-5.6l2.3-2.3L49.7,14l-2.3,2.3c-0.3,0-0.7,0-1,0.1C47.7,14.9,48.5,12.9,48.6,10.8z M39.4,33.1
		c0.5,0,0.9,0,1.4-0.1c-0.6,0.7-1,1.4-1.4,2.2c-0.4-0.8-0.8-1.5-1.4-2.2C38.5,33,38.9,33.1,39.4,33.1z M39.4,28.4
		c-0.4-0.8-0.8-1.5-1.4-2.2c0.5,0.1,0.9,0.1,1.4,0.1s0.9,0,1.4-0.1C40.2,26.9,39.8,27.6,39.4,28.4z M39.4,21.7
		c-0.4-0.8-0.8-1.5-1.4-2.2c0.5,0.1,0.9,0.1,1.4,0.1s0.9,0,1.4-0.1C40.2,20.2,39.8,20.9,39.4,21.7z M39.4,15
		c-0.4-0.9-0.9-1.7-1.6-2.4c0.4,0.2,0.9,0.3,1.6,0.3c0.7,0,1.2-0.1,1.6-0.3C40.3,13.3,39.8,14.1,39.4,15z M46.9,11.3
		c-0.4,3.5-3.2,6.2-6.6,6.6C40.7,14.5,43.5,11.7,46.9,11.3z M39.4,5.5c1,2,1.8,4.3,1.2,5.3c-0.1,0.1-0.3,0.5-1.2,0.5
		s-1.2-0.4-1.2-0.5C37.6,9.8,38.4,7.4,39.4,5.5z M38.5,17.9c-3.5-0.4-6.2-3.2-6.6-6.6C35.4,11.7,38.1,14.5,38.5,17.9z M38.5,24.6
		c-3.5-0.4-6.2-3.2-6.6-6.6C35.4,18.4,38.1,21.2,38.5,24.6z M38.5,31.3c-3.5-0.4-6.2-3.2-6.6-6.6C35.4,25.1,38.1,27.9,38.5,31.3z
		 M31.9,31.4c3.5,0.4,6.2,3.2,6.6,6.6C35.1,37.6,32.3,34.9,31.9,31.4z M40.3,38c0.4-3.5,3.2-6.2,6.6-6.6
		C46.5,34.9,43.8,37.6,40.3,38z M40.3,31.3c0.4-3.5,3.2-6.2,6.6-6.6C46.5,28.2,43.8,30.9,40.3,31.3z M40.3,24.6
		c0.4-3.5,3.2-6.2,6.6-6.6C46.5,21.5,43.8,24.2,40.3,24.6z"/>
</g>
</svg>
