<?xml version="1.0" encoding="utf-8"?>
<!-- Generator: Adobe Illustrator 23.1.1, SVG Export Plug-In . SVG Version: 6.00 Build 0)  -->
<svg version="1.1" id="Capa_1" xmlns="http://www.w3.org/2000/svg" xmlns:xlink="http://www.w3.org/1999/xlink" x="0px" y="0px"
	 viewBox="0 0 42.3 42.1" style="enable-background:new 0 0 42.3 42.1;" xml:space="preserve">
<style type="text/css">
	.st0{fill:#7670FF;}
</style>
<g>
	<path class="st0" d="M40.5,17.7c0.7,0,1.3-0.6,1.3-1.3V9.7c0-0.7-0.6-1.3-1.3-1.3H24.9c-1.9-4.8-6.6-8-11.8-8C6.1,0.3,0.4,6,0.4,13
		c0,5.9,4.1,10.9,9.5,12.3c-0.1,0.3-0.2,0.7-0.2,1.1v13.4c0,1.1,0.9,2,2,2h2.7c1.1,0,2-0.9,2-2V26.4c0-0.4-0.1-0.7-0.2-1.1
		c1.5-0.4,2.9-1,4.2-1.9v5c0,0.7,0.6,1.3,1.3,1.3h18.7c0.7,0,1.3-0.6,1.3-1.3v-6.7c0-0.7-0.6-1.3-1.3-1.3H23.4
		c0.6-0.8,1.1-1.7,1.4-2.7H40.5z M16.4,17.7h4c-1.6,2.5-4.3,4-7.3,4c-4.8,0-8.7-3.9-8.7-8.7s3.9-8.7,8.7-8.7c3,0,5.7,1.5,7.3,4h-4
		c-0.7,0-1.3,0.6-1.3,1.3v6.7C15.1,17.1,15.7,17.7,16.4,17.7z M16.4,16.4V9.7h8v6.7H16.4z M40.5,16.4H25.8V9.7h14.7L40.5,16.4z
		 M14.4,40.4h-2.7c-0.4,0-0.7-0.3-0.7-0.7v-10h4v10C15.1,40.1,14.8,40.4,14.4,40.4z M15.1,26.4v2h-4v-2c0-0.3,0.1-0.6,0.2-0.8
		c0.6,0.1,1.2,0.1,1.8,0.1c0.6,0,1.2-0.1,1.8-0.1C15,25.8,15.1,26.1,15.1,26.4z M21.8,21.7h9.4v6.7h-9.4V21.7z M40.5,28.4h-8v-6.7h8
		V28.4z M21.7,20.4c-0.7,0-1.3,0.6-1.3,1.3c-2.1,1.7-4.7,2.7-7.4,2.7C6.8,24.4,1.7,19.3,1.7,13S6.8,1.7,13.1,1.7
		c4.5,0,8.5,2.7,10.4,6.7H22C20.2,5.1,16.8,3,13.1,3c-5.5,0-10,4.5-10,10s4.5,10,10,10c3.7,0,7.1-2.1,8.9-5.3h1.5
		C23,18.7,22.4,19.6,21.7,20.4z"/>
	<path class="st0" d="M37.8,12.4h1.3v1.3h-1.3V12.4z"/>
	<path class="st0" d="M35.2,12.4h1.3v1.3h-1.3V12.4z"/>
	<path class="st0" d="M32.5,12.4h1.3v1.3h-1.3V12.4z"/>
	<path class="st0" d="M29.8,12.4h1.3v1.3h-1.3V12.4z"/>
	<path class="st0" d="M27.1,12.4h1.3v1.3h-1.3V12.4z"/>
	<path class="st0" d="M22.7,10.6l-3.5,3.5l-0.9-0.9l-0.9,0.9l1.8,1.8l4.5-4.5L22.7,10.6z"/>
	<path class="st0" d="M37.8,32.4H19.1c-0.7,0-1.3,0.6-1.3,1.3v6.7c0,0.7,0.6,1.3,1.3,1.3h18.7c0.7,0,1.3-0.6,1.3-1.3v-6.7
		C39.2,33,38.6,32.4,37.8,32.4z M19.1,33.8h8v6.7h-8V33.8z M28.5,40.4v-6.7h9.4l0,6.7H28.5z"/>
	<path class="st0" d="M35.2,36.4h1.3v1.3h-1.3V36.4z"/>
	<path class="st0" d="M32.5,36.4h1.3v1.3h-1.3V36.4z"/>
	<path class="st0" d="M29.8,36.4h1.3v1.3h-1.3V36.4z"/>
	<path class="st0" d="M23.1,24.4h1.3v1.3h-1.3V24.4z"/>
	<path class="st0" d="M25.8,24.4h1.3v1.3h-1.3V24.4z"/>
	<path class="st0" d="M28.5,24.4h1.3v1.3h-1.3V24.4z"/>
	<path class="st0" d="M25.3,34.6l-3.5,3.5l-0.9-0.9L20,38.2l1.8,1.8l4.5-4.5L25.3,34.6z"/>
	<path class="st0" d="M34,26.6l0.9,0.9l1.5-1.5l1.5,1.5l0.9-0.9l-1.5-1.5l1.5-1.5L38,22.6l-1.5,1.5L35,22.6L34,23.5l1.5,1.5L34,26.6
		z"/>
</g>
</svg>
