<?xml version="1.0" encoding="utf-8"?>
<!-- Generator: Adobe Illustrator 23.1.1, SVG Export Plug-In . SVG Version: 6.00 Build 0)  -->
<svg version="1.1" id="Capa_1" xmlns="http://www.w3.org/2000/svg" xmlns:xlink="http://www.w3.org/1999/xlink" x="0px" y="0px"
	 viewBox="0 0 43.5 82.6" style="enable-background:new 0 0 43.5 82.6;" xml:space="preserve">
<style type="text/css">
	.st0{fill:#2045F4;}
</style>
<g>
	<g>
		<path class="st0" d="M22.3,81.4c-0.1,0-0.2-0.1-0.2-0.2V48.5c0-0.1,0.1-0.2,0.2-0.2c0.1,0,0.2,0.1,0.2,0.2v32.7
			C22.5,81.3,22.4,81.4,22.3,81.4z"/>
	</g>
	<g>
		<path class="st0" d="M20.8,81.1c0,0.8,0.7,1.5,1.5,1.5c0.8,0,1.5-0.7,1.5-1.5c0-0.8-0.7-1.5-1.5-1.5
			C21.5,79.7,20.8,80.3,20.8,81.1z"/>
	</g>
</g>
<g>
	<path class="st0" d="M7.7,7.2h28.7v11.5h1.4V5.8H6.3v12.9h1.4V7.2z"/>
	<path class="st0" d="M19.2,14.4c0,1.6,1.3,2.9,2.9,2.9c1.6,0,2.9-1.3,2.9-2.9s-1.3-2.9-2.9-2.9C20.5,11.5,19.2,12.8,19.2,14.4z
		 M23.5,14.4c0,0.8-0.6,1.4-1.4,1.4c-0.8,0-1.4-0.6-1.4-1.4c0-0.8,0.6-1.4,1.4-1.4C22.8,12.9,23.5,13.6,23.5,14.4z"/>
	<path class="st0" d="M7.7,2.9h28.7v1.4H7.7V2.9z"/>
	<path class="st0" d="M9.1,0h25.8v1.4H9.1V0z"/>
	<path class="st0" d="M36.5,20.8l-6.2-2.5c-0.7-0.3-1.5-0.1-2.1,0.3l-9.6,7.7L3.7,18.4c-1.1-0.6-2.4-0.1-2.9,0.9
		c-0.1,0.4-0.2,0.6-0.2,1v1.8c0,0.8,0.4,1.5,1.1,1.9l20.3,11.5c0.3,0.2,0.7,0.3,1.1,0.3c0.2,0,0.4,0,0.6-0.1l12.9-3.4h7.1V20.8H36.5
		z M23.1,34.3c-0.2,0.1-0.4,0-0.5-0.1L2.3,22.7C2.1,22.6,2,22.4,2,22.1v-1.8c0-0.3,0.1-0.5,0.4-0.6c0.1-0.1,0.2-0.1,0.4-0.1
		c0.1,0,0.2,0,0.4,0.1l19.7,10.5l7.1-4.2l-0.7-1.2l-6.5,3.8l-2.9-1.5l9.1-7.3c0.2-0.1,0.5-0.2,0.7-0.1l5.9,2.4v9L23.1,34.3z
		 M42.1,30.8h-5v-8.6h5V30.8z"/>
	<path class="st0" d="M38.5,23.7H40v3.6h-1.4V23.7z"/>
	<path class="st0" d="M34.9,17.9v-7.9h-1.1c-0.2,0-0.4-0.1-0.4-0.4V8.6H10.6v1.1c0,0.2-0.1,0.4-0.4,0.4H9.1v8.6h1.1
		c0.2,0,0.4,0.1,0.4,0.4v1.1h13.6v-1.4H12c-0.1-0.7-0.7-1.2-1.4-1.4v-5.8c0.7-0.1,1.2-0.7,1.4-1.4h20.1c0.1,0.7,0.7,1.2,1.4,1.4v6.4
		H34.9z"/>
</g>
</svg>
