<?xml version="1.0" encoding="utf-8"?>
<!-- Generator: Adobe Illustrator 23.1.1, SVG Export Plug-In . SVG Version: 6.00 Build 0)  -->
<svg version="1.1" id="Capa_1" xmlns="http://www.w3.org/2000/svg" xmlns:xlink="http://www.w3.org/1999/xlink" x="0px" y="0px"
	 viewBox="0 0 44.2 81.7" style="enable-background:new 0 0 44.2 81.7;" xml:space="preserve">
<style type="text/css">
	.st0{fill:#1AD5B1;}
	.st1{fill:#01E399;}
</style>
<path class="st0" d="M4.4,24.1c2.3,0,4.2-1.9,4.2-4.2c0-0.8-0.2-1.6-0.7-2.3l6-6c0.7,0.5,1.5,0.7,2.3,0.7c0.2,0,0.5,0,0.7-0.1
	c0.8-0.1,1.5-0.5,2.1-1.1l5,3.8c-0.8,2.2,0.3,4.6,2.4,5.4s4.6-0.3,5.4-2.4c0.5-1.3,0.3-2.7-0.4-3.8l6-6c1.9,1.3,4.6,0.8,5.9-1.2
	s0.8-4.6-1.2-5.9s-4.6-0.8-5.9,1.2c-0.9,1.4-0.9,3.3,0,4.7l-6,6c-1.7-1.1-3.9-0.9-5.3,0.5c0,0,0,0,0,0l-4.9-3.8
	c0.9-2.1,0-4.6-2.1-5.6s-4.6,0-5.6,2.1c-0.6,1.3-0.5,2.8,0.3,4l-6,6c-1.9-1.3-4.6-0.8-5.8,1.2s-0.8,4.6,1.2,5.8
	C2.8,23.8,3.6,24.1,4.4,24.1L4.4,24.1z M39.8,2.1c1.4,0,2.5,1.1,2.5,2.5s-1.1,2.5-2.5,2.5c-1.4,0-2.5-1.1-2.5-2.5S38.4,2.1,39.8,2.1
	z M28,14c1.4,0,2.5,1.1,2.5,2.5c0,0.7-0.3,1.3-0.7,1.8c-1,1-2.6,1-3.6,0c-1-1-1-2.6,0-3.6C26.7,14.2,27.3,14,28,14L28,14z M14.1,6.6
	c0.4-0.6,1-0.9,1.6-1c0.1,0,0.3,0,0.4,0c0.5,0,1,0.2,1.4,0.5c1.1,0.8,1.4,2.4,0.6,3.5c-0.8,1.1-2.4,1.4-3.5,0.6
	C13.6,9.3,13.3,7.7,14.1,6.6C14.1,6.6,14.1,6.6,14.1,6.6L14.1,6.6z M2.6,18.1c1-1,2.6-1,3.6,0c1,1,1,2.6,0,3.6c-1,1-2.6,1-3.6,0
	C1.6,20.7,1.6,19.1,2.6,18.1C2.6,18.1,2.6,18.1,2.6,18.1z"/>
<g>
	<g>
		<g>
			<path class="st1" d="M21,80.1c-0.1,0-0.2-0.1-0.2-0.2V47.2c0-0.1,0.1-0.2,0.2-0.2c0.1,0,0.2,0.1,0.2,0.2v32.7
				C21.2,80,21.1,80.1,21,80.1z"/>
		</g>
		<g>
			<path class="st1" d="M19.6,79.8c0,0.8,0.7,1.5,1.5,1.5c0.8,0,1.5-0.7,1.5-1.5c0-0.8-0.7-1.5-1.5-1.5C20.2,78.4,19.6,79,19.6,79.8
				z"/>
		</g>
	</g>
</g>
</svg>
