<?xml version="1.0" encoding="utf-8"?>
<!-- Generator: Adobe Illustrator 23.1.1, SVG Export Plug-In . SVG Version: 6.00 Build 0)  -->
<svg version="1.1" id="Capa_1" xmlns="http://www.w3.org/2000/svg" xmlns:xlink="http://www.w3.org/1999/xlink" x="0px" y="0px"
	 viewBox="0 0 38 86.7" style="enable-background:new 0 0 38 86.7;" xml:space="preserve">
<style type="text/css">
	.st0{fill:#1AD5B1;}
	.st1{fill:#01E399;}
</style>
<g>
	<path class="st0" d="M19,11c-0.3,0-0.6-0.3-0.6-0.6h-1.2c0,0.8,0.5,1.5,1.2,1.7v1.3h1.2v-1.3c0.7-0.3,1.2-0.9,1.2-1.7
		c0-1-0.8-1.8-1.8-1.8c-0.3,0-0.6-0.3-0.6-0.6c0-0.3,0.3-0.6,0.6-0.6c0.3,0,0.6,0.3,0.6,0.6h1.2c0-0.8-0.5-1.5-1.2-1.7V4.9h-1.2v1.3
		c-0.7,0.3-1.2,0.9-1.2,1.7c0,1,0.8,1.8,1.8,1.8c0.3,0,0.6,0.3,0.6,0.6C19.6,10.8,19.4,11,19,11z"/>
	<path class="st0" d="M38,18.4V0H0v18.4h9.8v3.4c0,1.1,0.3,2.2,0.9,3.1l1.5,2.3v1H11v6.1h10.4c1.7,2.2,4.3,3.7,7.3,3.7
		c5.1,0,9.2-4.1,9.2-9.2s-4.1-9.2-9.2-9.2c-0.2,0-0.4,0-0.6,0v-1.3H38z M12.3,33.1v-3.7h7.4c0.1,1.3,0.4,2.6,1,3.7H12.3z M36.8,28.8
		c0,4.4-3.6,8-8,8s-8-3.6-8-8s3.6-8,8-8S36.8,24.4,36.8,28.8z M27,19.8c-4,0.8-7,4.2-7.3,8.4h-6.2v-1.4l-1.7-2.6
		c-0.5-0.7-0.7-1.5-0.7-2.4v-4.6H1.2V1.2h35.5v15.9H14.7v-2.8c1.2,1,2.7,1.5,4.3,1.5h14.1v-0.6c0-1,0.8-1.8,1.8-1.8h0.6V4.9H35
		c-1,0-1.8-0.8-1.8-1.8V2.5H4.9v0.6c0,1-0.8,1.8-1.8,1.8H2.5v8.6h0.6c1,0,1.8,0.8,1.8,1.8v0.6H11v-4.3c0-0.7,0.5-1.2,1.2-1.2
		s1.2,0.5,1.2,1.2v9.2h0.6c1.7,0,3.1,1.4,3.1,3.1h1.2c0-2.2-1.6-3.9-3.7-4.2v-1.3H27V19.8z M13.5,9.5c0-0.1,0-0.2,0-0.4
		c0-3,2.5-5.5,5.5-5.5s5.5,2.5,5.5,5.5s-2.5,5.5-5.5,5.5c-1.7,0-3.2-0.8-4.3-2.1v-1C14.7,10.8,14.2,10,13.5,9.5z M12.3,9.2
		c-1.4,0-2.5,1.1-2.5,2.5v3.1H6.1c-0.2-1.2-1.2-2.1-2.4-2.4V6.1c1.2-0.2,2.1-1.2,2.4-2.4h9.1C13.4,4.9,12.3,6.9,12.3,9.2z M22.9,3.7
		H32c0.2,1.2,1.2,2.1,2.4,2.4v6.3c-1.2,0.2-2.1,1.2-2.4,2.4h-9.1c1.7-1.2,2.9-3.2,2.9-5.5S24.6,4.9,22.9,3.7z"/>
	<path class="st0" d="M26.1,28.8l-3.7,3.7l2.7,2.7l3.7-3.7l3.7,3.7l2.7-2.7l-3.7-3.7l3.7-3.7l-2.7-2.7l-3.7,3.7l-3.7-3.7l-2.7,2.7
		L26.1,28.8z M28.8,27.8l3.7-3.7l1,1l-3.7,3.7l3.7,3.7l-1,1l-3.7-3.7l-3.7,3.7l-1-1l3.7-3.7l-3.7-3.7l1-1L28.8,27.8z"/>
</g>
<g>
	<g>
		<path class="st1" d="M18.7,84.1c-0.1,0-0.2-0.1-0.2-0.2V51.2c0-0.1,0.1-0.2,0.2-0.2c0.1,0,0.2,0.1,0.2,0.2v32.7
			C18.9,84,18.9,84.1,18.7,84.1z"/>
	</g>
	<g>
		<path class="st1" d="M17.3,83.8c0,0.8,0.7,1.5,1.5,1.5c0.8,0,1.5-0.7,1.5-1.5c0-0.8-0.7-1.5-1.5-1.5C17.9,82.4,17.3,83,17.3,83.8z
			"/>
	</g>
</g>
</svg>
