<?xml version="1.0" encoding="utf-8"?>
<!-- Generator: Adobe Illustrator 23.1.1, SVG Export Plug-In . SVG Version: 6.00 Build 0)  -->
<svg version="1.1" id="Capa_1" xmlns="http://www.w3.org/2000/svg" xmlns:xlink="http://www.w3.org/1999/xlink" x="0px" y="0px"
	 viewBox="0 0 34.8 31.2" style="enable-background:new 0 0 34.8 31.2;" xml:space="preserve">
<style type="text/css">
	.st0{fill:#3BC9FF;}
</style>
<g>
	<path class="st0" d="M33.5,4.9h-1.5l-5.1-4.3c-0.2-0.1-0.4-0.2-0.6-0.2H12.1c-0.5,0-0.9,0.4-0.9,0.9v0.9H1.3
		c-0.5,0-0.9,0.4-0.9,0.9v8.1c0,0.5,0.4,0.9,0.9,0.9h1.4l1.8,1.8L3.4,15c-0.3,0.3-0.3,0.9,0,1.3L14.1,27c0.3,0.3,0.9,0.3,1.3,0
		l2.1-2.1l0.3,0.3c0.3,0.3,0.9,0.3,1.3,0l9.6-9.6h5c0.5,0,0.9-0.4,0.9-0.9V5.8C34.4,5.3,34,4.9,33.5,4.9z M6.4,14.4l0.3-0.3l1.4,1.4
		L6.7,17l-1.4-1.4L6.4,14.4z M9.4,16.9l1.4,1.4l-1.4,1.4L8,18.3L9.4,16.9z M12.1,19.6l1.4,1.4l-1.4,1.4L10.6,21L12.1,19.6z
		 M14.7,25.1l-1.4-1.4l1.4-1.4l1.4,1.4L14.7,25.1z M24.6,17l-3.8-3.8c-0.4-0.3-0.9-0.3-1.3,0c-0.3,0.3-0.3,0.9,0,1.3l3.8,3.8
		l-1.4,1.4l-3.8-3.8c-0.4-0.3-0.9-0.3-1.3,0c-0.3,0.3-0.3,0.9,0,1.3l3.8,3.8l-2.3,2.3l-11-11c-0.3-0.3-0.9-0.3-1.3,0l-0.3,0.3
		l-2.1-2.1c-0.2-0.2-0.4-0.3-0.6-0.3H2.2V4h8.9v0.9c0,0.5,0.4,0.9,0.9,0.9h5.9l8.9,8.9L24.6,17z M32.6,13.8h-4.1L19,4.2
		C18.8,4.1,18.6,4,18.3,4H13V2.2H26l5.1,4.3c0.2,0.1,0.4,0.2,0.6,0.2h0.9V13.8z"/>
	<path class="st0" d="M33.5,25.4h-8.9c-0.5,0-0.9,0.4-0.9,0.9s0.4,0.9,0.9,0.9h8.9c0.5,0,0.9-0.4,0.9-0.9S34,25.4,33.5,25.4z"/>
	<path class="st0" d="M33.5,29h-8.9c-0.5,0-0.9,0.4-0.9,0.9c0,0.5,0.4,0.9,0.9,0.9h8.9c0.5,0,0.9-0.4,0.9-0.9
		C34.4,29.4,34,29,33.5,29z"/>
</g>
</svg>
