<?xml version="1.0" encoding="utf-8"?>
<!-- Generator: Adobe Illustrator 23.1.1, SVG Export Plug-In . SVG Version: 6.00 Build 0)  -->
<svg version="1.1" id="Capa_1" xmlns="http://www.w3.org/2000/svg" xmlns:xlink="http://www.w3.org/1999/xlink" x="0px" y="0px"
	 viewBox="0 0 34.8 34.9" style="enable-background:new 0 0 34.8 34.9;" xml:space="preserve">
<style type="text/css">
	.st0{fill:#171737;}
</style>
<g>
	<path class="st0" d="M33.5,14.8c0.6,0,1.1-0.5,1.1-1.1V8.2c0-0.6-0.5-1.1-1.1-1.1H20.7c-1.6-4-5.4-6.6-9.7-6.6
		C5.3,0.5,0.6,5.2,0.6,11c0,4.8,3.3,8.9,7.8,10.1c-0.1,0.3-0.2,0.6-0.2,0.9v11c0,0.9,0.7,1.6,1.6,1.6h2.2c0.9,0,1.6-0.7,1.6-1.6v-11
		c0-0.3-0.1-0.6-0.1-0.9c1.2-0.3,2.4-0.9,3.4-1.6v4.1c0,0.6,0.5,1.1,1.1,1.1h15.4c0.6,0,1.1-0.5,1.1-1.1v-5.5c0-0.6-0.5-1.1-1.1-1.1
		h-14c0.5-0.7,0.9-1.4,1.2-2.2H33.5z M13.7,14.8H17c-1.3,2-3.6,3.3-6,3.3c-3.9,0-7.1-3.2-7.1-7.1S7.1,3.8,11,3.8
		c2.4,0,4.7,1.3,6,3.3h-3.3c-0.6,0-1.1,0.5-1.1,1.1v5.5C12.7,14.3,13.1,14.8,13.7,14.8z M13.7,13.7V8.2h6.6v5.5H13.7z M33.5,13.7
		H21.4V8.2h12.1L33.5,13.7z M12.1,33.5H9.9c-0.3,0-0.5-0.2-0.5-0.5v-8.2h3.3v8.2C12.7,33.2,12.4,33.5,12.1,33.5z M12.7,21.9v1.6H9.4
		v-1.6c0-0.2,0.1-0.5,0.1-0.7c0.5,0.1,1,0.1,1.5,0.1c0.5,0,1,0,1.5-0.1C12.6,21.5,12.7,21.7,12.7,21.9z M18.1,18.1h7.7v5.5h-7.7
		V18.1z M33.5,23.6h-6.6v-5.5h6.6V23.6z M18.1,17c-0.6,0-1,0.5-1.1,1.1c-1.7,1.4-3.8,2.2-6,2.2c-5.1,0-9.3-4.2-9.3-9.3
		S5.9,1.6,11,1.6c3.7,0,7,2.2,8.5,5.5h-1.2C16.9,4.5,14,2.7,11,2.7c-4.5,0-8.2,3.7-8.2,8.2s3.7,8.2,8.2,8.2c3,0,5.9-1.7,7.3-4.4h1.2
		C19.1,15.6,18.7,16.3,18.1,17z"/>
	<path class="st0" d="M31.3,10.4h1.1v1.1h-1.1V10.4z"/>
	<path class="st0" d="M29.1,10.4h1.1v1.1h-1.1V10.4z"/>
	<path class="st0" d="M26.9,10.4H28v1.1h-1.1V10.4z"/>
	<path class="st0" d="M24.7,10.4h1.1v1.1h-1.1V10.4z"/>
	<path class="st0" d="M22.5,10.4h1.1v1.1h-1.1V10.4z"/>
	<path class="st0" d="M18.8,8.9l-2.9,2.9l-0.7-0.7l-0.8,0.8l1.5,1.5l3.7-3.7L18.8,8.9z"/>
	<path class="st0" d="M31.3,26.9H15.9c-0.6,0-1.1,0.5-1.1,1.1v5.5c0,0.6,0.5,1.1,1.1,1.1h15.4c0.6,0,1.1-0.5,1.1-1.1V28
		C32.4,27.4,31.9,26.9,31.3,26.9z M15.9,28h6.6v5.5h-6.6V28z M23.6,33.5V28h7.7l0,5.5H23.6z"/>
	<path class="st0" d="M29.1,30.2h1.1v1.1h-1.1V30.2z"/>
	<path class="st0" d="M26.9,30.2H28v1.1h-1.1V30.2z"/>
	<path class="st0" d="M24.7,30.2h1.1v1.1h-1.1V30.2z"/>
	<path class="st0" d="M19.2,20.3h1.1v1.1h-1.1V20.3z"/>
	<path class="st0" d="M21.4,20.3h1.1v1.1h-1.1V20.3z"/>
	<path class="st0" d="M23.6,20.3h1.1v1.1h-1.1V20.3z"/>
	<path class="st0" d="M21,28.7l-2.9,2.9l-0.7-0.7l-0.8,0.8l1.5,1.5l3.7-3.7L21,28.7z"/>
	<path class="st0" d="M28.2,22.1l0.8,0.8l1.3-1.3l1.3,1.3l0.8-0.8L31,20.8l1.3-1.3l-0.8-0.8l-1.3,1.3l-1.3-1.3l-0.8,0.8l1.3,1.3
		L28.2,22.1z"/>
</g>
</svg>
