<?xml version="1.0" encoding="utf-8"?>
<!-- Generator: Adobe Illustrator 23.1.1, SVG Export Plug-In . SVG Version: 6.00 Build 0)  -->
<svg version="1.1" id="Capa_1" xmlns="http://www.w3.org/2000/svg" xmlns:xlink="http://www.w3.org/1999/xlink" x="0px" y="0px"
	 viewBox="0 0 35.1 31.8" style="enable-background:new 0 0 35.1 31.8;" xml:space="preserve">
<style type="text/css">
	.st0{fill:#171737;}
</style>
<g id="_04-security_2_">
	<g id="linear_color-2_2_">
		<path class="st0" d="M10.8,10.8H2.9c-0.4,0-0.7,0.3-0.7,0.7v2.2c0,0.4,0.3,0.7,0.7,0.7h7.9c0.4,0,0.7-0.3,0.7-0.7v-2.2
			C11.5,11.1,11.2,10.8,10.8,10.8z M10.1,13H3.6v-0.8h6.5V13z"/>
		<path class="st0" d="M7.4,15.8H3c-0.4,0-0.7,0.3-0.7,0.7c0,0.4,0.3,0.7,0.7,0.7h4.4c0.4,0,0.7-0.3,0.7-0.7
			C8.1,16.1,7.8,15.8,7.4,15.8z"/>
		<path class="st0" d="M35.1,19.4c-0.1-2.1-0.2-4-0.2-4c0-0.3-0.2-0.5-0.5-0.6l-3.8-1.1V1.9c0-1-0.8-1.8-1.8-1.8H1.8
			C0.8,0.1,0,0.9,0,1.9v18c0,1,0.8,1.8,1.8,1.8h16.1c0,2,0.2,2.6,0.4,3c0.1,0.3,0.5,0.9,4.2,4.1c1.8,1.5,3.6,2.9,3.6,2.9
			c0.3,0.2,0.6,0.2,0.9,0c0,0,1.8-1.4,3.6-2.9c3.8-3.1,4.1-3.8,4.2-4.1C35,24.2,35.2,23.2,35.1,19.4z M1.4,6h27.8v2H1.4V6z M1.8,1.5
			h26.9c0.2,0,0.4,0.2,0.4,0.4v2.7H1.4V1.9C1.4,1.7,1.6,1.5,1.8,1.5z M1.4,19.8V9.3h27.8v3.8l-2.5-0.7c-0.1,0-0.3,0-0.4,0l-7.6,2.2
			c-0.3,0.1-0.5,0.3-0.5,0.6c0,0-0.2,2-0.2,4c0,0.3,0,0.6,0,0.9H1.8C1.6,20.3,1.4,20.1,1.4,19.8z M33.5,24c-0.3,0.7-3.8,3.6-7,6.2
			c-3.3-2.6-6.7-5.5-7-6.2c0-0.1-0.2-0.6-0.2-3c0,0,0,0,0,0c0,0,0,0,0,0c0-0.5,0-1,0-1.6c0.1-1.4,0.1-2.8,0.2-3.5l7-2l7,2
			c0.1,0.7,0.1,2.1,0.2,3.5C33.8,23.2,33.6,23.9,33.5,24z"/>
		<path class="st0" d="M31.7,16.8l-5-1.5c-0.1,0-0.3,0-0.4,0l-5,1.5c-0.3,0.1-0.5,0.3-0.5,0.6c-0.1,2-0.2,4.6-0.1,5.7
			c0,0.1,0.1,0.3,0.2,0.4c0.9,0.9,3.2,2.9,5.1,4.5c0.3,0.2,0.6,0.2,0.9,0c1.9-1.6,4.3-3.5,5.1-4.5c0.1-0.1,0.2-0.3,0.2-0.4
			c0.1-1.1,0-3.7-0.1-5.7C32.2,17.2,32,16.9,31.7,16.8z M30.9,22.8c-0.7,0.7-2.4,2.2-4.4,3.8c-2-1.6-3.7-3.1-4.4-3.8
			c-0.1-0.9,0-2.7,0.1-4.8l4.3-1.3l4.3,1.3C30.9,20.1,31,21.9,30.9,22.8z"/>
		<path class="st0" d="M29.2,18.7c-0.3-0.2-0.7-0.2-1,0.1c0,0,0,0,0,0l-1.8,2.3l-1.1-0.8c-0.3-0.2-0.8-0.1-1,0.2
			c-0.2,0.3-0.1,0.7,0.2,1l1.7,1.1c0.3,0.2,0.7,0.1,0.9-0.1l2.2-2.8C29.5,19.4,29.5,19,29.2,18.7C29.2,18.7,29.2,18.7,29.2,18.7z"/>
	</g>
</g>
</svg>
