<?xml version="1.0" encoding="utf-8"?>
<!-- Generator: Adobe Illustrator 23.1.1, SVG Export Plug-In . SVG Version: 6.00 Build 0)  -->
<svg version="1.1" id="Capa_1" xmlns="http://www.w3.org/2000/svg" xmlns:xlink="http://www.w3.org/1999/xlink" x="0px" y="0px"
	 viewBox="0 0 35.1 34.4" style="enable-background:new 0 0 35.1 34.4;" xml:space="preserve">
<style type="text/css">
	.st0{fill:#2045F4;}
</style>
<g>
	<g>
		<g>
			<g>
				<rect x="16.8" y="28.7" class="st0" width="1.1" height="1.1"/>
			</g>
		</g>
		<g>
			<g>
				<path class="st0" d="M34,29.8h-0.6V9.2c0-1.3-1-2.3-2.3-2.3h-5.3c-0.9-4.7-5.5-7.7-10.1-6.7c-3.4,0.7-6,3.3-6.7,6.7H3.6
					c-1.3,0-2.3,1-2.3,2.3v20.6H0.7c-0.3,0-0.6,0.3-0.6,0.6v1.7c0,1.3,1,2.3,2.3,2.3h29.8c1.3,0,2.3-1,2.3-2.3v-1.7
					C34.5,30.1,34.3,29.8,34,29.8z M12,3.5c1.4-1.5,3.3-2.3,5.4-2.3c4.1,0,7.4,3.3,7.5,7.4c0,2-0.8,4-2.3,5.4v-3.1
					c0-1.7-1.2-3.1-2.9-3.4C20,7,20.2,6.4,20.2,5.7c0-1.6-1.3-2.9-2.9-2.9s-2.9,1.3-2.9,2.9c0,0.6,0.2,1.3,0.6,1.8
					c-1.7,0.3-2.9,1.7-2.9,3.4V14C9.2,11.1,9.1,6.4,12,3.5z M19.1,11.5v4.4c-1.1,0.3-2.3,0.3-3.4,0v-4.4h-1.1v4
					c-0.4-0.2-0.8-0.4-1.1-0.6v-4c0-1.3,1-2.3,2.3-2.3h3.4c1.3,0,2.3,1,2.3,2.3v4c-0.4,0.2-0.7,0.4-1.1,0.6v-4L19.1,11.5L19.1,11.5z
					 M15.6,5.7c0-0.9,0.8-1.7,1.7-1.7c0.9,0,1.7,0.8,1.7,1.7s-0.8,1.7-1.7,1.7S15.6,6.7,15.6,5.7z M12.2,15.5L12.2,15.5L12.2,15.5
					c3.1,2.3,7.3,2.3,10.3,0h0v0c1.7-1.3,2.8-3.1,3.3-5.1h4.2v16H4.7v-16h4.2C9.3,12.4,10.5,14.2,12.2,15.5z M2.4,9.2
					C2.4,8.6,2.9,8,3.6,8h5.2c0,0.2,0,0.4,0,0.6c0,0.2,0,0.4,0,0.6H4.2c-0.3,0-0.6,0.3-0.6,0.6V27c0,0.3,0.3,0.6,0.6,0.6h26.4
					c0.3,0,0.6-0.3,0.6-0.6V9.8c0-0.3-0.3-0.6-0.6-0.6h-4.6c0-0.2,0-0.4,0-0.6c0-0.2,0-0.4,0-0.6h5.2c0.6,0,1.1,0.5,1.1,1.1v20.6
					h-9.7c-0.2,0-0.3,0.1-0.4,0.2l-1,1h-7.5l-1-1c-0.1-0.1-0.3-0.2-0.4-0.2H2.4L2.4,9.2z M33.4,32.1c0,0.6-0.5,1.1-1.1,1.1H2.4
					c-0.6,0-1.1-0.5-1.1-1.1V31h10.7l1,1c0.1,0.1,0.3,0.2,0.4,0.2h8c0.2,0,0.3-0.1,0.4-0.2l1-1h10.7L33.4,32.1L33.4,32.1z"/>
			</g>
		</g>
		<g>
			<g>
				<path class="st0" d="M26.5,18.4H8.2c-0.3,0-0.6,0.3-0.6,0.6v4.6c0,0.3,0.3,0.6,0.6,0.6h18.3c0.3,0,0.6-0.3,0.6-0.6v-4.6
					C27.1,18.6,26.8,18.4,26.5,18.4z M25.9,22.9H8.7v-3.4h17.2V22.9z"/>
			</g>
		</g>
		<g>
			<g>
				<rect x="16.8" y="20.6" class="st0" width="1.1" height="1.1"/>
			</g>
		</g>
		<g>
			<g>
				<rect x="19.1" y="20.6" class="st0" width="1.1" height="1.1"/>
			</g>
		</g>
		<g>
			<g>
				<rect x="21.3" y="20.6" class="st0" width="1.1" height="1.1"/>
			</g>
		</g>
		<g>
			<g>
				<rect x="23.6" y="20.6" class="st0" width="1.1" height="1.1"/>
			</g>
		</g>
		<g>
			<g>
				<rect x="9.9" y="20.6" class="st0" width="1.1" height="1.1"/>
			</g>
		</g>
		<g>
			<g>
				<rect x="12.2" y="20.6" class="st0" width="1.1" height="1.1"/>
			</g>
		</g>
		<g>
			<g>
				<rect x="14.5" y="20.6" class="st0" width="1.1" height="1.1"/>
			</g>
		</g>
	</g>
</g>
</svg>
