<?xml version="1.0" encoding="utf-8"?>
<!-- Generator: Adobe Illustrator 23.1.1, SVG Export Plug-In . SVG Version: 6.00 Build 0)  -->
<svg version="1.1" id="Capa_1" xmlns="http://www.w3.org/2000/svg" xmlns:xlink="http://www.w3.org/1999/xlink" x="0px" y="0px"
	 viewBox="0 0 30 29.9" style="enable-background:new 0 0 30 29.9;" xml:space="preserve">
<style type="text/css">
	.st0{fill:#2045F4;}
</style>
<g>
	<path class="st0" d="M27.1,9.4c0.9,1.8,1.3,3.8,1.3,5.9c0,7.5-6.1,13.6-13.6,13.6S1.2,22.8,1.2,15.3S7.3,1.7,14.8,1.7
		c3.7,0,7.1,1.5,9.7,4.1l0.7-0.7c-2.8-2.8-6.5-4.4-10.4-4.4c-8,0-14.6,6.5-14.6,14.6s6.5,14.6,14.6,14.6s14.6-6.5,14.6-14.6
		c0-2.2-0.5-4.3-1.4-6.3L27.1,9.4z"/>
	<path class="st0" d="M22.9,6.9l0.7-0.7c-2.4-2.3-5.5-3.5-8.8-3.5c-0.2,0-0.3,0-0.5,0l0,0.9c0.1,0,0.3,0,0.5,0
		C17.9,3.6,20.7,4.8,22.9,6.9z"/>
	<path class="st0" d="M9,13.6c-0.2-0.2-0.5-0.2-0.7,0L7,15c-0.2,0.2-0.2,0.5,0,0.7l5.3,5.3c0.3,0.3,0.7,0.5,1.1,0.5
		c0.4,0,0.8-0.2,1.1-0.5L29.2,6.3c0.2-0.2,0.2-0.5,0-0.7l-1.4-1.4c-0.2-0.2-0.5-0.2-0.7,0L13.4,18L9,13.6z M27.5,5.2L28.2,6
		L13.9,20.3c-0.3,0.3-0.7,0.3-0.9,0l-5-5l0.7-0.7l4.4,4.4c0.2,0.2,0.5,0.2,0.7,0L27.5,5.2z"/>
	<path class="st0" d="M21.9,25.9c0.3-0.2,0.5-0.4,0.8-0.6l-0.6-0.7c-0.2,0.2-0.5,0.4-0.7,0.5L21.9,25.9z"/>
	<path class="st0" d="M20.1,26.9c0.3-0.1,0.6-0.3,0.9-0.5l-0.5-0.8c-0.3,0.1-0.5,0.3-0.8,0.4L20.1,26.9z"/>
	<path class="st0" d="M16.3,27.9c0.3,0,0.7-0.1,1-0.2l-0.2-0.9c-0.3,0.1-0.6,0.1-0.9,0.1L16.3,27.9z"/>
	<path class="st0" d="M18.3,27.5c0.3-0.1,0.6-0.2,0.9-0.3l-0.3-0.9c-0.3,0.1-0.6,0.2-0.9,0.3L18.3,27.5z"/>
	<path class="st0" d="M27.4,16.8l-0.9-0.1c0,0.3-0.1,0.6-0.1,0.9l0.9,0.2C27.3,17.5,27.4,17.2,27.4,16.8z"/>
	<path class="st0" d="M22.8,24l0.6,0.7c0.2-0.2,0.5-0.5,0.7-0.7l-0.7-0.6C23.2,23.5,23,23.8,22.8,24z"/>
	<path class="st0" d="M26.3,20.7l-0.9-0.4c-0.1,0.3-0.3,0.6-0.4,0.8l0.8,0.5C26,21.3,26.2,21,26.3,20.7z"/>
	<path class="st0" d="M25.4,22.4l-0.8-0.5c-0.2,0.3-0.4,0.5-0.5,0.7l0.7,0.6C25,22.9,25.2,22.7,25.4,22.4L25.4,22.4z"/>
	<path class="st0" d="M27,18.8l-0.9-0.3c-0.1,0.3-0.2,0.6-0.3,0.9l0.9,0.3C26.8,19.4,26.9,19.1,27,18.8z"/>
	<path class="st0" d="M27.5,15.3c0-1.7-0.3-3.3-1-4.9l-0.9,0.4c0.6,1.4,0.9,2.9,0.9,4.5c0,0.2,0,0.3,0,0.5l0.9,0
		C27.5,15.7,27.5,15.5,27.5,15.3L27.5,15.3z"/>
	<path class="st0" d="M8.3,5.6L7.8,4.8C7.5,5,7.2,5.2,7,5.4l0.6,0.7C7.8,5.9,8,5.7,8.3,5.6z"/>
	<path class="st0" d="M2.2,13.9L3.2,14c0-0.3,0.1-0.6,0.1-0.9l-0.9-0.2C2.3,13.2,2.3,13.5,2.2,13.9z"/>
	<path class="st0" d="M11.4,3.1c-0.3,0.1-0.6,0.2-0.9,0.3l0.3,0.9C11,4.2,11.3,4.1,11.6,4L11.4,3.1z"/>
	<path class="st0" d="M9.9,4.7L9.5,3.8C9.2,4,8.9,4.1,8.6,4.3l0.5,0.8C9.4,4.9,9.6,4.8,9.9,4.7z"/>
	<path class="st0" d="M13.3,2.8c-0.3,0-0.7,0.1-1,0.2l0.2,0.9c0.3-0.1,0.6-0.1,0.9-0.1L13.3,2.8z"/>
	<path class="st0" d="M2.6,11.9l0.9,0.3c0.1-0.3,0.2-0.6,0.3-0.9L2.9,11C2.8,11.3,2.7,11.6,2.6,11.9z"/>
	<path class="st0" d="M3.3,10l0.9,0.4c0.1-0.3,0.3-0.6,0.4-0.8L3.8,9.1C3.6,9.4,3.4,9.7,3.3,10z"/>
	<path class="st0" d="M6.9,6.7L6.2,6C6,6.3,5.7,6.5,5.5,6.7l0.7,0.6C6.4,7.1,6.6,6.9,6.9,6.7z"/>
	<path class="st0" d="M4.3,8.3l0.8,0.5c0.2-0.3,0.4-0.5,0.5-0.7L4.9,7.5C4.7,7.8,4.5,8,4.3,8.3z"/>
	<path class="st0" d="M2.1,15.3c0,7,5.7,12.7,12.7,12.7c0.2,0,0.3,0,0.5,0l0-0.9c-0.1,0-0.3,0-0.5,0c-6.5,0-11.7-5.3-11.7-11.7
		c0-0.2,0-0.3,0-0.5l-0.9,0C2.1,15,2.1,15.2,2.1,15.3L2.1,15.3z"/>
</g>
</svg>
