<?xml version="1.0" encoding="utf-8"?>
<!-- Generator: Adobe Illustrator 23.1.1, SVG Export Plug-In . SVG Version: 6.00 Build 0)  -->
<svg version="1.1" id="Capa_1" xmlns="http://www.w3.org/2000/svg" xmlns:xlink="http://www.w3.org/1999/xlink" x="0px" y="0px"
	 viewBox="0 0 38.3 38.3" style="enable-background:new 0 0 38.3 38.3;" xml:space="preserve">
<style type="text/css">
	.st0{fill:#01E399;}
</style>
<g>
	<path class="st0" d="M37.4,18.5h-5.2l5.7-5.7c0.2-0.2,0.2-0.6,0-0.9L26.3,0.4c-0.2-0.2-0.6-0.2-0.9,0L7.3,18.5H0.8
		c-0.3,0-0.6,0.3-0.6,0.6V35c0,0.3,0.3,0.6,0.6,0.6h8.9l2.3,2.3c0.1,0.1,0.3,0.2,0.4,0.2s0.3-0.1,0.4-0.2l2.3-2.3h22.3
		c0.3,0,0.6-0.3,0.6-0.6V19.2C38.1,18.8,37.8,18.5,37.4,18.5z M25.8,1.7l10.7,10.7l-6.1,6.1h-4.7c-0.1-1.6-0.8-3-1.9-4.1
		c-2.6-2.6-6.9-2.6-9.5,0c-1.1,1.1-1.8,2.6-1.9,4.1H9L25.8,1.7z M16.2,18.5c-0.1-0.4,0-0.8,0.3-1.1l1.1,1.1H16.2z M22.8,18.5
		c-0.1-0.1-0.1-0.2-0.2-0.3c-1-1-2.5-1-3.5,0l-1.7-1.7c0.5-0.5,1.3-0.5,1.7,0l0.9-0.9c-0.5-0.5-1.1-0.7-1.7-0.7
		c-0.7,0-1.3,0.3-1.7,0.7l0,0l-0.4-0.4l-0.9,0.9l0.4,0.4c-0.5,0.5-0.8,1.3-0.7,2h-1.3c0.1-1.2,0.7-2.4,1.6-3.3
		c2.1-2.1,5.6-2.1,7.8,0c0.9,0.9,1.4,2,1.6,3.3L22.8,18.5L22.8,18.5z M12.4,36.6l-1-1h1.9L12.4,36.6z M36.8,34.4H1.4V19.8h35.4V34.4
		z"/>
	<path class="st0" d="M17.3,28.9h-1.2c0,1.3,1.1,2.4,2.4,2.4V32h1.2v-0.6c1.3,0,2.4-1.1,2.4-2.4c0-1.3-1.1-2.4-2.4-2.4V24
		c0.7,0,1.2,0.5,1.2,1.2h1.2c0-1.3-1.1-2.4-2.4-2.4v-0.6h-1.2v0.6c-1.3,0-2.4,1.1-2.4,2.4c0,1.3,1.1,2.4,2.4,2.4v2.4
		C17.8,30.1,17.3,29.6,17.3,28.9z M17.3,25.3c0-0.7,0.5-1.2,1.2-1.2v2.4C17.8,26.5,17.3,25.9,17.3,25.3z M19.7,27.7
		c0.7,0,1.2,0.5,1.2,1.2c0,0.7-0.5,1.2-1.2,1.2V27.7z"/>
	<path class="st0" d="M19.1,33.8c3.7,0,6.7-3,6.7-6.7s-3-6.7-6.7-6.7s-6.7,3-6.7,6.7S15.4,33.8,19.1,33.8z M19.1,21.6
		c3,0,5.5,2.5,5.5,5.5s-2.5,5.5-5.5,5.5s-5.5-2.5-5.5-5.5S16.1,21.6,19.1,21.6z"/>
	<path class="st0" d="M35.6,32.6v-11c0-0.3-0.3-0.6-0.6-0.6h-7.3v1.2h6.7V32h-6.7v1.2H35C35.3,33.2,35.6,32.9,35.6,32.6z"/>
	<path class="st0" d="M3.3,33.2h7.3V32H3.9v-9.8h6.7V21H3.3c-0.3,0-0.6,0.3-0.6,0.6v11C2.6,32.9,2.9,33.2,3.3,33.2z"/>
	<path class="st0" d="M27.7,29.5h1.2v1.2h-1.2V29.5z"/>
	<path class="st0" d="M30.1,29.5h1.2v1.2h-1.2V29.5z"/>
	<path class="st0" d="M27.7,23.4h1.2v1.2h-1.2V23.4z"/>
	<path class="st0" d="M30.1,23.4h1.2v1.2h-1.2V23.4z"/>
	<path class="st0" d="M26,5.4l6.9,6.9L28.2,17l0.9,0.9l5.2-5.2c0.2-0.2,0.2-0.6,0-0.9l-7.8-7.8c-0.2-0.2-0.6-0.2-0.9,0l-5.2,5.2
		l0.9,0.9L26,5.4z"/>
	<path class="st0" d="M26.4,15.3l0.9-0.9l0.9,0.9l-0.9,0.9L26.4,15.3z"/>
	<path class="st0" d="M28.2,13.6l0.9-0.9l0.9,0.9L29,14.4L28.2,13.6z"/>
	<path class="st0" d="M22.1,11l0.9-0.9l0.9,0.9L23,11.8L22.1,11z"/>
	<path class="st0" d="M23.9,9.3l0.9-0.9l0.9,0.9l-0.9,0.9L23.9,9.3z"/>
	<path class="st0" d="M6.9,23.4h1.2v1.2H6.9V23.4z"/>
	<path class="st0" d="M9.4,23.4h1.2v1.2H9.4V23.4z"/>
	<path class="st0" d="M6.9,29.5h1.2v1.2H6.9V29.5z"/>
	<path class="st0" d="M9.4,29.5h1.2v1.2H9.4V29.5z"/>
</g>
</svg>
