<?xml version="1.0" encoding="utf-8"?>
<!-- Generator: Adobe Illustrator 23.1.1, SVG Export Plug-In . SVG Version: 6.00 Build 0)  -->
<svg version="1.1" id="Capa_1" xmlns="http://www.w3.org/2000/svg" xmlns:xlink="http://www.w3.org/1999/xlink" x="0px" y="0px"
	 viewBox="0 0 109.8 109.7" style="enable-background:new 0 0 109.8 109.7;" xml:space="preserve">
<style type="text/css">
	.st0{fill:none;stroke:#1AD5B1;stroke-width:0.5;stroke-miterlimit:10;}
	.st1{fill:#2045F4;}
</style>
<circle class="st0" cx="54.9" cy="54.4" r="53.3"/>
<g>
	<path class="st1" d="M34.7,33.9h10v-2.6H32.1v12.6h2.6V33.9z"/>
	<path class="st1" d="M64,31.2v2.6h10v10h2.6V31.2H64z"/>
	<path class="st1" d="M34.7,63.2h-2.6v12.6h12.6v-2.6h-10V63.2z"/>
	<path class="st1" d="M74,73.2H64v2.6h12.6V63.2H74V73.2z"/>
	<path class="st1" d="M41.3,50.5l-2.9,6.7h2.3l0.5-1.2h2.5l0.5,1.2h2.3l-2.9-6.7H41.3z M41.8,54.4l0.7-1.7l0.7,1.7H41.8z"/>
	<path class="st1" d="M51.7,54.1c0,1-0.4,1.4-1,1.4c-0.6,0-1-0.4-1-1.4v-3.6h-2.3v3.7c0,2,1.2,3.2,3.3,3.2c2.1,0,3.3-1.2,3.3-3.2
		v-3.7h-2.2L51.7,54.1L51.7,54.1z"/>
	<path class="st1" d="M55.1,52.2h2v5h2.3v-5h2v-1.8h-6.2V52.2z"/>
	<path class="st1" d="M69.8,53.8c0-2-1.6-3.5-3.8-3.5c-2.2,0-3.8,1.5-3.8,3.5c0,2,1.6,3.5,3.8,3.5C68.2,57.4,69.8,55.9,69.8,53.8z
		 M64.5,53.8c0-1,0.7-1.7,1.5-1.7c0.8,0,1.5,0.6,1.5,1.7c0,1-0.7,1.7-1.5,1.7C65.1,55.5,64.5,54.9,64.5,53.8z"/>
</g>
</svg>
