<?xml version="1.0" encoding="utf-8"?>
<!-- Generator: Adobe Illustrator 23.1.1, SVG Export Plug-In . SVG Version: 6.00 Build 0)  -->
<svg version="1.1" id="Capa_1" xmlns="http://www.w3.org/2000/svg" xmlns:xlink="http://www.w3.org/1999/xlink" x="0px" y="0px"
	 viewBox="0 0 109.8 109.7" style="enable-background:new 0 0 109.8 109.7;" xml:space="preserve">
<style type="text/css">
	.st0{fill:none;stroke:#1AD5B1;stroke-width:0.5;stroke-miterlimit:10;}
	.st1{fill:#0054E4;}
</style>
<circle class="st0" cx="55" cy="54.7" r="53.3"/>
<g id="XMLID_12_">
	<g id="XMLID_13_">
		<path id="XMLID_22_" class="st1" d="M76.7,54.2c-0.5-4.6-2.5-8.9-5.7-12.1c-2.8-2.8-6.2-4.6-9.7-5.3v-2.5c1.5-0.4,2.5-1.7,2.5-3.3
			c0-1.8-1.5-3.4-3.4-3.4h-7.1c-1.8,0-3.4,1.5-3.4,3.4c0,1.6,1.1,2.9,2.5,3.3v2.5c-3.6,0.8-6.9,2.6-9.7,5.3
			c-0.6,0.6-1.2,1.2-1.7,1.9c0,0,0,0-0.1,0h-7c-0.5,0-1,0.4-1,1s0.4,1,1,1h5.8c-0.7,1.2-1.3,2.5-1.7,3.8H27.3c-0.5,0-1,0.4-1,1
			s0.4,1,1,1h10.2C37.2,53,37,54.3,37,55.5h-4.4c-0.5,0-1,0.4-1,1c0,0.5,0.4,1,1,1H37c0.1,1.3,0.3,2.5,0.6,3.8h-6.4
			c-0.5,0-1,0.4-1,1c0,0.5,0.4,1,1,1h7c1,2.6,2.5,5,4.5,7c3.2,3.2,7.6,5.3,12.1,5.7c0.7,0.1,1.3,0.1,2,0.1c3.8,0,7.6-1.1,10.9-3.2
			c0.5-0.3,0.6-0.9,0.3-1.4s-0.9-0.6-1.4-0.3c-7.1,4.6-16.5,3.6-22.5-2.4c-7-7-7-18.4,0-25.4c7-7,18.4-7,25.4,0c6,6,7,15.4,2.4,22.5
			c-0.3,0.5-0.2,1.1,0.3,1.4c0.5,0.3,1.1,0.2,1.4-0.3C76.1,63.3,77.2,58.7,76.7,54.2z M51.9,31c0-0.8,0.6-1.4,1.4-1.4h7.1
			c0.8,0,1.4,0.6,1.4,1.4s-0.6,1.4-1.4,1.4h-0.2h-6.7h-0.2C52.6,32.4,51.9,31.8,51.9,31z M54.5,36.4v-2.1h4.8v2.1
			C57.7,36.2,56.1,36.3,54.5,36.4z"/>
		<path id="XMLID_21_" class="st1" d="M70.3,68.6c-0.3,0-0.5,0.1-0.7,0.3c-0.2,0.2-0.3,0.4-0.3,0.7c0,0.3,0.1,0.5,0.3,0.7
			c0.2,0.2,0.4,0.3,0.7,0.3c0.3,0,0.5-0.1,0.7-0.3c0.2-0.2,0.3-0.4,0.3-0.7c0-0.3-0.1-0.5-0.3-0.7C70.8,68.7,70.5,68.6,70.3,68.6z"
			/>
		<path id="XMLID_20_" class="st1" d="M56.9,40.9c-8.4,0-15.3,6.9-15.3,15.3s6.9,15.3,15.3,15.3s15.3-6.9,15.3-15.3
			S65.3,40.9,56.9,40.9z M56.9,69.5c-7.3,0-13.3-6-13.3-13.3s6-13.3,13.3-13.3c7.3,0,13.3,6,13.3,13.3S64.2,69.5,56.9,69.5z"/>
		<path id="XMLID_19_" class="st1" d="M63.1,48.6l-4.9,4.9c-0.4-0.2-0.9-0.3-1.4-0.3c-0.5,0-0.9,0.1-1.4,0.3l-2.2-2.2
			c-0.4-0.4-1-0.4-1.4,0c-0.4,0.4-0.4,1,0,1.4l2.2,2.2c-0.2,0.4-0.3,0.9-0.3,1.4c0,1.7,1.4,3.1,3.1,3.1c1.7,0,3.1-1.4,3.1-3.1
			c0-0.5-0.1-0.9-0.3-1.4l4.7-4.7l0,0l0.1-0.1c0.4-0.4,0.4-1,0-1.4C64.1,48.2,63.5,48.2,63.1,48.6z M56.9,57.3
			c-0.6,0-1.1-0.5-1.1-1.1c0-0.6,0.5-1.1,1.1-1.1s1.1,0.5,1.1,1.1C58,56.8,57.5,57.3,56.9,57.3z"/>
		<path id="XMLID_18_" class="st1" d="M67.4,55.2h-0.9c-0.5,0-1,0.4-1,1s0.4,1,1,1h0.9c0.5,0,1-0.4,1-1S68,55.2,67.4,55.2z"/>
		<path id="XMLID_17_" class="st1" d="M47.3,55.2h-0.9c-0.5,0-1,0.4-1,1s0.4,1,1,1h0.9c0.5,0,1-0.4,1-1S47.8,55.2,47.3,55.2z"/>
		<path id="XMLID_16_" class="st1" d="M56.9,47.6c0.5,0,1-0.4,1-1v-0.9c0-0.5-0.4-1-1-1s-1,0.4-1,1v0.9
			C55.9,47.1,56.4,47.6,56.9,47.6z"/>
		<path id="XMLID_15_" class="st1" d="M56.9,64.9c-0.5,0-1,0.4-1,1v0.9c0,0.5,0.4,1,1,1s1-0.4,1-1v-0.9
			C57.9,65.3,57.4,64.9,56.9,64.9z"/>
		<path id="XMLID_14_" class="st1" d="M27.3,61.3c-0.3,0-0.5,0.1-0.7,0.3c-0.2,0.2-0.3,0.4-0.3,0.7c0,0.3,0.1,0.5,0.3,0.7
			c0.2,0.2,0.4,0.3,0.7,0.3c0.3,0,0.5-0.1,0.7-0.3c0.2-0.2,0.3-0.4,0.3-0.7c0-0.3-0.1-0.5-0.3-0.7C27.8,61.4,27.6,61.3,27.3,61.3z"
			/>
	</g>
</g>
</svg>
