<?xml version="1.0" encoding="utf-8"?>
<!-- Generator: Adobe Illustrator 23.1.1, SVG Export Plug-In . SVG Version: 6.00 Build 0)  -->
<svg version="1.1" id="Capa_1" xmlns="http://www.w3.org/2000/svg" xmlns:xlink="http://www.w3.org/1999/xlink" x="0px" y="0px"
	 viewBox="0 0 109.8 109.7" style="enable-background:new 0 0 109.8 109.7;" xml:space="preserve">
<style type="text/css">
	.st0{fill:none;stroke:#1AD5B1;stroke-width:0.5;stroke-miterlimit:10;}
	.st1{fill:#0054E4;}
</style>
<circle class="st0" cx="55" cy="54.7" r="53.3"/>
<g>
	<g>
		<path class="st1" d="M75.5,64.5h-3.6V40h2.7c0.5,0,0.9-0.3,1.1-0.7c0.2-0.4,0.1-0.9-0.2-1.3L66,26.3c-0.2-0.3-0.6-0.4-0.9-0.4
			s-0.7,0.2-0.9,0.4L54.6,38c-0.3,0.4-0.4,0.9-0.2,1.3c0.2,0.4,0.6,0.7,1.1,0.7h2.6v3.5H48.1c-0.7,0-1.3,0.4-1.3,1.1v4.9H36.7
			c-0.7,0-1.3,0.4-1.3,1.1v14H32c-0.7,0-1.3,0.4-1.3,1.1v6c0,0.7,0.6,1.3,1.3,1.3h43.6c0.7,0,1.1-0.7,1.1-1.3v-6
			C76.7,64.9,76.2,64.5,75.5,64.5z M58.1,37.6l7-8.6l7,8.6h-1.4c-0.7,0-1.3,0.5-1.3,1.1v25.7h-9V38.7c0-0.7-0.5-1.1-1.1-1.1H58.1z
			 M49.2,45.8h9v18.6h-9V45.8L49.2,45.8z M37.9,51.8h9v12.7h-9V51.8z M74.3,70.4H33.1v-3.6h41.2V70.4z"/>
	</g>
</g>
</svg>
