<?xml version="1.0" encoding="utf-8"?>
<!-- Generator: Adobe Illustrator 23.1.1, SVG Export Plug-In . SVG Version: 6.00 Build 0)  -->
<svg version="1.1" id="Capa_1" xmlns="http://www.w3.org/2000/svg" xmlns:xlink="http://www.w3.org/1999/xlink" x="0px" y="0px"
	 viewBox="0 0 109.8 109.7" style="enable-background:new 0 0 109.8 109.7;" xml:space="preserve">
<style type="text/css">
	.st0{fill:none;stroke:#1AD5B1;stroke-width:0.5;stroke-miterlimit:10;}
	.st1{fill:#2045F4;}
</style>
<circle class="st0" cx="54.9" cy="54.7" r="53.3"/>
<g>
	<g>
		<path class="st1" d="M40.8,66c1.6-1.4,1.8-3.8,0.5-5.4c-1.4-1.6-3.8-1.8-5.4-0.5c-1.6,1.4-1.8,3.8-0.5,5.4
			c0.1,0.2,0.3,0.3,0.5,0.5c-1.8,0.9-2.9,2.7-2.9,4.7v3.8h10.6v-3.8C43.7,68.7,42.6,66.9,40.8,66z M36.1,63.1c0-1.3,1-2.3,2.3-2.3
			s2.3,1,2.3,2.3c0,1.3-1,2.3-2.3,2.3C37.1,65.4,36.1,64.4,36.1,63.1z M42.2,73h-7.6v-2.3c0-2.1,1.7-3.8,3.8-3.8s3.8,1.7,3.8,3.8V73
			z"/>
		<path class="st1" d="M40.8,35.6c1.6-1.4,1.8-3.8,0.5-5.4s-3.8-1.8-5.4-0.5c-1.6,1.4-1.8,3.8-0.5,5.4c0.1,0.2,0.3,0.3,0.5,0.5
			c-1.8,0.9-2.9,2.7-2.9,4.7v3.8h10.6v-3.8C43.7,38.3,42.6,36.5,40.8,35.6z M36.1,32.7c0-1.3,1-2.3,2.3-2.3s2.3,1,2.3,2.3
			s-1,2.3-2.3,2.3C37.1,35,36.1,34,36.1,32.7z M42.2,42.6h-7.6v-2.3c0-2.1,1.7-3.8,3.8-3.8s3.8,1.7,3.8,3.8V42.6z"/>
	</g>
	<g>
		<path class="st1" d="M75.8,66c1.6-1.4,1.8-3.8,0.5-5.4c-1.4-1.6-3.8-1.8-5.4-0.5c-1.6,1.4-1.8,3.8-0.5,5.4
			c0.1,0.2,0.3,0.3,0.5,0.5c-1.8,0.9-2.9,2.7-2.9,4.7v3.8h10.6v-3.8C78.7,68.7,77.6,66.9,75.8,66z M71.1,63.1c0-1.3,1-2.3,2.3-2.3
			s2.3,1,2.3,2.3c0,1.3-1,2.3-2.3,2.3S71.1,64.4,71.1,63.1z M77.2,73h-7.6v-2.3c0-2.1,1.7-3.8,3.8-3.8c2.1,0,3.8,1.7,3.8,3.8V73z"/>
		<path class="st1" d="M75.8,35.6c1.6-1.4,1.8-3.8,0.5-5.4c-1.4-1.6-3.8-1.8-5.4-0.5c-1.6,1.4-1.8,3.8-0.5,5.4
			c0.1,0.2,0.3,0.3,0.5,0.5c-1.8,0.9-2.9,2.7-2.9,4.7v3.8h10.6v-3.8C78.7,38.3,77.6,36.5,75.8,35.6z M71.1,32.7c0-1.3,1-2.3,2.3-2.3
			s2.3,1,2.3,2.3s-1,2.3-2.3,2.3S71.1,34,71.1,32.7z M77.2,42.6h-7.6v-2.3c0-2.1,1.7-3.8,3.8-3.8c2.1,0,3.8,1.7,3.8,3.8V42.6z"/>
	</g>
	<path class="st1" d="M37.6,45.6h1.5v12.2h-1.5V45.6z"/>
	<g>
		<path class="st1" d="M72.6,45.6h1.5v12.2h-1.5V45.6z"/>
		<path class="st1" d="M45.2,69.2h21.3v1.5H45.2V69.2z"/>
		<path class="st1" d="M45.2,38.8h21.3v1.5H45.2V38.8z"/>
	</g>
</g>
</svg>
