<?xml version="1.0" encoding="utf-8"?>
<!-- Generator: Adobe Illustrator 23.1.1, SVG Export Plug-In . SVG Version: 6.00 Build 0)  -->
<svg version="1.1" id="Capa_1" xmlns="http://www.w3.org/2000/svg" xmlns:xlink="http://www.w3.org/1999/xlink" x="0px" y="0px"
	 viewBox="0 0 109.5 108.4" style="enable-background:new 0 0 109.5 108.4;" xml:space="preserve">
<style type="text/css">
	.st0{fill:none;stroke:#1AD5B1;stroke-width:0.5;stroke-miterlimit:10;}
	.st1{fill:#2045F4;}
</style>
<circle class="st0" cx="54.3" cy="54.3" r="53.3"/>
<g>
	<g>
		<g>
			<path class="st1" d="M75.5,59.1l-3.3-0.7c-0.1,0-0.1-0.1-0.1-0.1c0-0.1,0-0.1,0-0.2l1.9-2.8c0.2-0.3,0.2-0.7-0.1-1l-3-3
				c-0.3-0.3-0.7-0.3-1-0.1l-2.8,1.9c-0.1,0.1-0.2,0-0.3-0.1c0,0,0,0,0-0.1l-0.7-3.3c-0.1-0.4-0.4-0.6-0.8-0.6h-1.2v-9.4
				c1.5,0.1,3,0.6,4.4,1.3c0.3,0.2,0.7,0.1,1-0.1c0.7-0.7,1.6-1.1,2.6-1.1h0c0.9,0,1.9,0.4,2.5,1.1c0.2,0.2,0.4,0.2,0.6,0.2
				c0.1,0,0.2,0,0.2,0c0.3-0.1,0.5-0.3,0.5-0.7c1-7-3.9-13.4-10.9-14.4c-7-1-13.4,3.9-14.4,10.9c-0.2,1.2-0.2,2.4,0,3.6
				c0.1,0.4,0.5,0.7,0.9,0.7c0.2,0,0.3-0.1,0.5-0.2c0.7-0.7,1.6-1.1,2.5-1.1h0c1,0,1.9,0.4,2.6,1.1c0.3,0.3,0.6,0.3,1,0.1
				c1.3-0.8,2.8-1.2,4.4-1.3v9.4h-1.2c-0.4,0-0.7,0.3-0.8,0.6L59.9,53c0,0.1-0.1,0.1-0.1,0.1c-0.1,0-0.1,0-0.2,0l-2.8-1.9
				c-0.3-0.2-0.7-0.2-1,0.1l-1.4,1.4c-1.3-1.2-2.7-2.4-4.2-3.4c-0.1-0.1-0.3-0.1-0.4-0.2l4.6-5.9c0.3-0.3,0.2-0.8-0.1-1.1
				c-0.2-0.2-0.4-0.2-0.7-0.1l-4.9,1.2l1.1-2.5c0.2-0.4,0-0.9-0.4-1c-0.2-0.1-0.4-0.1-0.6,0l-5.2,2.2l-4.4-3
				c-0.4-0.2-0.9-0.1-1.1,0.2c-0.1,0.2-0.2,0.5-0.1,0.7l1,2.5l-4-1.1c-0.4-0.1-0.9,0.1-1,0.6c-0.1,0.2,0,0.5,0.1,0.7l4.7,6.7h-0.1
				c-0.2,0-0.3,0.1-0.5,0.2c-2.4,1.8-9.9,7.4-9.9,13.4c0,10,9.1,11.2,16,11.2c4.8,0,8.4-0.7,10.9-2.1l0.7,0.7c0.3,0.3,0.7,0.3,1,0.1
				l2.8-1.9c0.1-0.1,0.2,0,0.3,0.1c0,0,0,0,0,0.1l0.7,3.3c0.1,0.4,0.4,0.6,0.8,0.6h4c0.4,0,0.7-0.3,0.8-0.6l0.7-3.3
				c0-0.1,0.1-0.1,0.1-0.1c0.1,0,0.1,0,0.2,0l2.8,1.9c0.3,0.2,0.7,0.2,1-0.1l3-3c0.3-0.3,0.3-0.7,0.1-1l-1.9-2.8c0-0.1,0-0.1,0-0.2
				c0-0.1,0.1-0.1,0.1-0.1l3.3-0.7c0.4-0.1,0.6-0.4,0.6-0.8v-4C76.1,59.5,75.9,59.2,75.5,59.1z M74.5,38.7
				C74.5,38.8,74.5,38.8,74.5,38.7c-0.7-0.3-1.6-0.5-2.4-0.5c-0.8,0-1.7,0.2-2.4,0.6v0c0-4.4-1.1-8.3-2.7-10.6
				C71.5,29.7,74.5,34,74.5,38.7z M57,38.7L57,38.7c-0.7-0.3-1.6-0.5-2.4-0.5c-0.8,0-1.7,0.2-2.4,0.6c0,0,0-0.1,0-0.1
				c0-4.8,3-9,7.5-10.6C58.1,30.4,57,34.3,57,38.7z M58.6,39v-0.3c0-6.6,2.5-11.2,4.8-11.2c2.3,0,4.8,4.6,4.8,11.2V39
				C65.1,37.7,61.6,37.7,58.6,39z M51.7,44.1l-3.9,5.1h-1.6l1.7-4.1L51.7,44.1z M43,43.4c0.2,0.1,0.5,0.2,0.8,0.1l3.8-1.6l-3,7.3
				h-1.3l-2.9-7.5L43,43.4z M36.6,43.3l3,0.9l1.9,4.9h-0.8L36.6,43.3z M44.2,72.3c-9.9,0-14.4-3-14.4-9.6c0-3.4,3-7.4,9-12h1.9
				l-1.8,6c-0.3,1,0.3,2.1,1.3,2.4c0.7,0.2,1.4,0,1.9-0.5l1.8-1.8l-1.1-1.1L41,57.5c-0.1,0.1-0.4,0.1-0.5,0
				c-0.1-0.1-0.1-0.2-0.1-0.3l1.9-6.5h2l1.5,6.6l1.6-0.3L46,50.7h3.5c1.3,1,2.6,2,3.8,3.1l-0.5,0.5c-0.3,0.3-0.3,0.7-0.1,1l1.9,2.8
				c0,0.1,0,0.1,0,0.2c0,0.1-0.1,0.1-0.1,0.1l-3.3,0.7c-0.4,0.1-0.6,0.4-0.6,0.8v4c0,0.4,0.3,0.7,0.6,0.8l3.3,0.7
				c0.1,0,0.1,0.1,0.1,0.1c0,0.1,0,0.1,0,0.2l-1.9,2.8c-0.2,0.3-0.2,0.7,0.1,1l1.2,1.2C51.7,71.7,48.5,72.3,44.2,72.3z M74.5,63.2
				l-2.6,0.6c-1,0.2-1.6,1.2-1.4,2.1c0,0.2,0.1,0.5,0.3,0.7l1.5,2.2l-2.1,2.1L68,69.3c-0.8-0.6-1.9-0.4-2.5,0.5
				c-0.1,0.2-0.2,0.4-0.3,0.7l-0.6,2.6H62l-0.6-2.6c-0.2-1-1.2-1.6-2.1-1.4c-0.2,0-0.5,0.1-0.6,0.3l-2.2,1.5l-2.1-2.1l1.5-2.2
				c0.6-0.8,0.4-1.9-0.5-2.5c-0.2-0.1-0.4-0.2-0.7-0.3l-2.6-0.6v-2.7l2.6-0.6c1-0.2,1.6-1.2,1.4-2.1c0-0.2-0.1-0.5-0.3-0.7L54.4,55
				l2.1-2.1l2.2,1.5c0.8,0.6,1.9,0.4,2.5-0.5c0.1-0.2,0.2-0.4,0.3-0.7l0.6-2.6h2.7l0.6,2.6c0.2,1,1.2,1.6,2.1,1.4
				c0.2,0,0.5-0.1,0.7-0.3l2.2-1.5l2.1,2.1l-1.5,2.2c-0.6,0.8-0.4,1.9,0.5,2.5c0.2,0.1,0.4,0.2,0.7,0.3l2.6,0.6L74.5,63.2z"/>
		</g>
	</g>
	<g>
		<g>
			<path class="st1" d="M68.2,59.1l-1.4,0.8c0.4,0.6,0.5,1.3,0.5,2H69C69,60.9,68.7,59.9,68.2,59.1z"/>
		</g>
	</g>
	<g>
		<g>
			<path class="st1" d="M66.8,63.9c-0.7,1.2-2,2-3.5,2c-2.2,0-4-1.8-4-4c0-2.2,1.8-4,4-4c0.8,0,1.6,0.2,2.2,0.7l0.9-1.3
				c-2.6-1.7-6-1-7.7,1.6c-1.7,2.6-1,6,1.6,7.7c2.6,1.7,6,1,7.7-1.6c0.1-0.1,0.1-0.2,0.2-0.3L66.8,63.9z"/>
		</g>
	</g>
	<g>
		<g>
			<path class="st1" d="M44.2,63.5h2.4v-1.6H45v-0.8h-1.6V62c-1.2,0.4-1.9,1.8-1.5,3c0.3,1,1.2,1.6,2.3,1.6c0.4,0,0.8,0.4,0.8,0.8
				s-0.4,0.8-0.8,0.8h-2.4v1.6h1.6v0.8H45v-0.9c1.2-0.4,1.9-1.8,1.5-3c-0.3-1-1.2-1.6-2.3-1.6c-0.4,0-0.8-0.4-0.8-0.8
				S43.8,63.5,44.2,63.5z"/>
		</g>
	</g>
</g>
</svg>
