<?xml version="1.0" encoding="utf-8"?>
<!-- Generator: Adobe Illustrator 23.1.1, SVG Export Plug-In . SVG Version: 6.00 Build 0)  -->
<svg version="1.1" id="Capa_1" xmlns="http://www.w3.org/2000/svg" xmlns:xlink="http://www.w3.org/1999/xlink" x="0px" y="0px"
	 viewBox="0 0 109.5 108.4" style="enable-background:new 0 0 109.5 108.4;" xml:space="preserve">
<style type="text/css">
	.st0{fill:none;stroke:#2045F4;stroke-width:0.25;stroke-miterlimit:10;}
	.st1{fill:#1AD5B1;}
</style>
<circle class="st0" cx="54.8" cy="54.2" r="53.3"/>
<g id="XMLID_1_">
	<g id="XMLID_2_">
		<path id="XMLID_11_" class="st1" d="M75.9,54.7c-0.5-4.6-2.5-8.9-5.7-12.1c-2.8-2.8-6.2-4.6-9.7-5.3v-2.5c1.5-0.4,2.5-1.7,2.5-3.3
			c0-1.8-1.5-3.4-3.4-3.4h-7.1c-1.8,0-3.4,1.5-3.4,3.4c0,1.6,1.1,2.9,2.5,3.3v2.5c-3.6,0.8-6.9,2.6-9.7,5.3
			c-0.6,0.6-1.2,1.2-1.7,1.9c0,0,0,0-0.1,0h-7c-0.5,0-1,0.4-1,1s0.4,1,1,1H39c-0.7,1.2-1.3,2.5-1.7,3.8H26.5c-0.5,0-1,0.4-1,1
			s0.4,1,1,1h10.2c-0.3,1.2-0.4,2.5-0.5,3.8h-4.4c-0.5,0-1,0.4-1,1c0,0.5,0.4,1,1,1h4.4c0.1,1.3,0.3,2.5,0.6,3.8h-6.4
			c-0.5,0-1,0.4-1,1c0,0.5,0.4,1,1,1h7c1,2.6,2.5,5,4.5,7c3.2,3.2,7.6,5.3,12.1,5.7c0.7,0.1,1.3,0.1,2,0.1c3.8,0,7.6-1.1,10.9-3.2
			c0.5-0.3,0.6-0.9,0.3-1.4s-0.9-0.6-1.4-0.3c-7.1,4.6-16.5,3.6-22.5-2.4c-7-7-7-18.4,0-25.4c7-7,18.4-7,25.4,0c6,6,7,15.4,2.4,22.5
			c-0.3,0.5-0.2,1.1,0.3,1.4c0.5,0.3,1.1,0.2,1.4-0.3C75.3,63.7,76.4,59.1,75.9,54.7z M51.1,31.4c0-0.8,0.6-1.4,1.4-1.4h7.1
			c0.8,0,1.4,0.6,1.4,1.4c0,0.8-0.6,1.4-1.4,1.4h-0.2h-6.7h-0.2C51.8,32.8,51.1,32.2,51.1,31.4z M53.7,36.9v-2.1h4.8v2.1
			C56.9,36.7,55.3,36.7,53.7,36.9z"/>
		<path id="XMLID_10_" class="st1" d="M69.5,69c-0.3,0-0.5,0.1-0.7,0.3c-0.2,0.2-0.3,0.4-0.3,0.7s0.1,0.5,0.3,0.7
			c0.2,0.2,0.4,0.3,0.7,0.3c0.3,0,0.5-0.1,0.7-0.3c0.2-0.2,0.3-0.4,0.3-0.7s-0.1-0.5-0.3-0.7C70,69.1,69.7,69,69.5,69z"/>
		<path id="XMLID_9_" class="st1" d="M56.1,41.3c-8.4,0-15.3,6.9-15.3,15.3s6.9,15.3,15.3,15.3s15.3-6.9,15.3-15.3
			S64.5,41.3,56.1,41.3z M56.1,70c-7.3,0-13.3-6-13.3-13.3s6-13.3,13.3-13.3s13.3,6,13.3,13.3S63.4,70,56.1,70z"/>
		<path id="XMLID_8_" class="st1" d="M62.3,49l-4.9,4.9c-0.4-0.2-0.9-0.3-1.4-0.3c-0.5,0-0.9,0.1-1.4,0.3l-2.2-2.2
			c-0.4-0.4-1-0.4-1.4,0c-0.4,0.4-0.4,1,0,1.4l2.2,2.2c-0.2,0.4-0.3,0.9-0.3,1.4c0,1.7,1.4,3.1,3.1,3.1c1.7,0,3.1-1.4,3.1-3.1
			c0-0.5-0.1-0.9-0.3-1.4l4.7-4.7l0,0l0.1-0.1c0.4-0.4,0.4-1,0-1.4C63.3,48.6,62.7,48.6,62.3,49z M56.1,57.7c-0.6,0-1.1-0.5-1.1-1.1
			s0.5-1.1,1.1-1.1s1.1,0.5,1.1,1.1S56.7,57.7,56.1,57.7z"/>
		<path id="XMLID_7_" class="st1" d="M66.6,55.7h-0.9c-0.5,0-1,0.4-1,1c0,0.5,0.4,1,1,1h0.9c0.5,0,1-0.4,1-1
			C67.6,56.1,67.2,55.7,66.6,55.7z"/>
		<path id="XMLID_6_" class="st1" d="M46.5,55.6h-0.9c-0.5,0-1,0.4-1,1s0.4,1,1,1h0.9c0.5,0,1-0.4,1-1S47,55.6,46.5,55.6z"/>
		<path id="XMLID_5_" class="st1" d="M56.1,48c0.5,0,1-0.4,1-1v-0.9c0-0.5-0.4-1-1-1c-0.5,0-1,0.4-1,1V47C55.1,47.5,55.6,48,56.1,48
			z"/>
		<path id="XMLID_4_" class="st1" d="M56.1,65.3c-0.5,0-1,0.4-1,1v0.9c0,0.5,0.4,1,1,1c0.5,0,1-0.4,1-1v-0.9
			C57.1,65.7,56.6,65.3,56.1,65.3z"/>
		<path id="XMLID_3_" class="st1" d="M26.5,61.7c-0.3,0-0.5,0.1-0.7,0.3c-0.2,0.2-0.3,0.4-0.3,0.7c0,0.3,0.1,0.5,0.3,0.7
			c0.2,0.2,0.4,0.3,0.7,0.3c0.3,0,0.5-0.1,0.7-0.3c0.2-0.2,0.3-0.4,0.3-0.7c0-0.3-0.1-0.5-0.3-0.7C27,61.8,26.8,61.7,26.5,61.7z"/>
	</g>
</g>
</svg>
