<?xml version="1.0" encoding="utf-8"?>
<!-- Generator: Adobe Illustrator 23.1.1, SVG Export Plug-In . SVG Version: 6.00 Build 0)  -->
<svg version="1.1" id="Capa_1" xmlns="http://www.w3.org/2000/svg" xmlns:xlink="http://www.w3.org/1999/xlink" x="0px" y="0px"
	 viewBox="0 0 109.3 109.4" style="enable-background:new 0 0 109.3 109.4;" xml:space="preserve">
<style type="text/css">
	.st0{fill:none;stroke:#2045F4;stroke-width:0.25;stroke-miterlimit:10;}
	.st1{fill:#1AD5B1;}
</style>
<circle class="st0" cx="54.4" cy="54.6" r="53.3"/>
<g>
	<path class="st1" d="M35.3,34.8h10v-2.6H32.7v12.6h2.6V34.8z"/>
	<path class="st1" d="M64.6,32.2v2.6h10v10h2.6V32.2H64.6z"/>
	<path class="st1" d="M35.3,64.1h-2.6v12.6h12.6v-2.6h-10V64.1z"/>
	<path class="st1" d="M74.6,74.1h-10v2.6h12.6V64.1h-2.6V74.1z"/>
	<path class="st1" d="M41.9,51.4L39,58.1h2.3l0.5-1.2h2.5l0.5,1.2h2.3l-2.9-6.7H41.9z M42.4,55.3l0.7-1.7l0.7,1.7H42.4z"/>
	<path class="st1" d="M52.3,55.1c0,1-0.4,1.4-1,1.4c-0.6,0-1-0.4-1-1.4v-3.6H48v3.7c0,2,1.2,3.2,3.3,3.2s3.3-1.2,3.3-3.2v-3.7h-2.2
		L52.3,55.1L52.3,55.1z"/>
	<path class="st1" d="M55.7,53.2h2v5h2.3v-5h2v-1.8h-6.2V53.2z"/>
	<path class="st1" d="M70.4,54.8c0-2-1.6-3.5-3.8-3.5s-3.8,1.5-3.8,3.5c0,2,1.6,3.5,3.8,3.5S70.4,56.8,70.4,54.8z M65.1,54.8
		c0-1,0.7-1.7,1.5-1.7s1.5,0.6,1.5,1.7c0,1-0.7,1.7-1.5,1.7S65.1,55.8,65.1,54.8z"/>
</g>
</svg>
