<?xml version="1.0" encoding="utf-8"?>
<!-- Generator: Adobe Illustrator 23.1.1, SVG Export Plug-In . SVG Version: 6.00 Build 0)  -->
<svg version="1.1" id="Capa_1" xmlns="http://www.w3.org/2000/svg" xmlns:xlink="http://www.w3.org/1999/xlink" x="0px" y="0px"
	 viewBox="0 0 109.3 109.4" style="enable-background:new 0 0 109.3 109.4;" xml:space="preserve">
<style type="text/css">
	.st0{fill:none;stroke:#1AD5B1;stroke-width:0.5;stroke-miterlimit:10;}
	.st1{fill:#2045F4;}
</style>
<circle class="st0" cx="54.8" cy="54.7" r="53.3"/>
<g>
	<path class="st1" d="M59.9,27.9c-0.5,0-0.8,0.4-0.8,0.8v8.5c0,0.5,0.4,0.8,0.8,0.8c6.1,0,11,4.9,11,11c0,0.5,0.4,0.8,0.8,0.8h8.5
		c0.5,0,0.8-0.4,0.8-0.8C81.1,37.3,71.6,27.9,59.9,27.9z M72.6,48.2c-0.4-6.3-5.5-11.4-11.8-11.8v-6.8c10.1,0.4,18.2,8.5,18.6,18.6
		H72.6z"/>
	<path class="st1" d="M30.3,30.4H32v1.7h-1.7V30.4z"/>
	<path class="st1" d="M33.7,30.4h4.2v1.7h-4.2V30.4z"/>
	<path class="st1" d="M67.2,71c6-3.9,9.6-10.6,9.6-17.7c0-0.5-0.4-0.8-0.8-0.8h-8.5c-0.5,0-0.8,0.4-0.8,0.8c0,6.1-4.9,11-11,11
		s-11-4.9-11-11s4.9-11,11-11c0.5,0,0.8-0.4,0.8-0.8v-8.5c0-0.5-0.4-0.8-0.8-0.8c-4.9,0-9.7,1.7-13.5,4.9l-2.9-2.2
		c-0.1-0.1-0.3-0.2-0.5-0.2h-8.5v1.7h8.2l2.4,1.8c-8.3,8.2-8.5,21.5-0.4,29.9c1,1,2.1,1.9,3.2,2.7l-2,2H30.3v1.7h11.8
		c0.2,0,0.4-0.1,0.6-0.2l2.5-2.5c6.3,3.6,14,3.7,20.4,0.3l3.1,2.3c0.1,0.1,0.3,0.2,0.5,0.2h11v-1.7H69.5L67.2,71z M68.3,54.1h6.8
		c-0.4,10.1-8.5,18.2-18.6,18.6v-6.8C62.9,65.5,67.9,60.4,68.3,54.1z M54.8,33.8v6.8C48.5,41,43.4,46.1,43,52.4h-6.8
		C36.7,42.3,44.8,34.2,54.8,33.8z M36.2,54.1H43c0.4,6.3,5.5,11.4,11.8,11.8v6.8C44.8,72.2,36.7,64.1,36.2,54.1z"/>
	<path class="st1" d="M78.5,76.9h1.7v1.7h-1.7V76.9z"/>
	<path class="st1" d="M70.1,76.9h6.8v1.7h-6.8V76.9z"/>
	<path class="st1" d="M30.3,76.9H32v1.7h-1.7V76.9z"/>
	<path class="st1" d="M33.7,76.9h6.8v1.7h-6.8V76.9z"/>
	<path class="st1" d="M63.3,56.6V43.1c0-0.5-0.4-0.8-0.8-0.8h-3.4c-0.5,0-0.8,0.4-0.8,0.8v1.7h-2.5c-0.5,0-0.8,0.4-0.8,0.8v2.5h-2.5
		c-0.5,0-0.8,0.4-0.8,0.8v1.7h-2.5c-0.5,0-0.8,0.4-0.8,0.8v5.1c0,0.5,0.4,0.8,0.8,0.8h13.5C62.9,57.5,63.3,57.1,63.3,56.6z
		 M49.8,52.4h1.7v3.4h-1.7V52.4z M53.1,49.9h1.7v5.9h-1.7V49.9z M56.5,46.5h1.7v9.3h-1.7V46.5z M61.6,55.8h-1.7V43.9h1.7V55.8z"/>
	<path class="st1" d="M53.1,58.3h1.7V60h-1.7V58.3z"/>
	<path class="st1" d="M49.8,58.3h1.7V60h-1.7V58.3z"/>
	<path class="st1" d="M56.5,58.3h1.7V60h-1.7V58.3z"/>
	<path class="st1" d="M59.9,58.3h1.7V60h-1.7V58.3z"/>
</g>
</svg>
