<?xml version="1.0" encoding="utf-8"?>
<!-- Generator: Adobe Illustrator 23.1.1, SVG Export Plug-In . SVG Version: 6.00 Build 0)  -->
<svg version="1.1" id="Capa_1" xmlns="http://www.w3.org/2000/svg" xmlns:xlink="http://www.w3.org/1999/xlink" x="0px" y="0px"
	 viewBox="0 0 109.3 109.4" style="enable-background:new 0 0 109.3 109.4;" xml:space="preserve">
<style type="text/css">
	.st0{fill:none;stroke:#2045F4;stroke-width:0.25;stroke-miterlimit:10;}
	.st1{fill:#1AD5B1;}
</style>
<circle class="st0" cx="54.6" cy="54.3" r="53.3"/>
<g>
	<path class="st1" d="M77.5,66.9V40.1c0-2.1-1.7-3.8-3.8-3.8h-9.2c0-5.1-4.1-9.2-9.2-9.2s-9.2,4.1-9.2,9.2h-9.2
		c-2.1,0-3.8,1.7-3.8,3.8v26.8h-1.5v3.8c0,2.1,1.7,3.8,3.8,3.8h39.8c2.1,0,3.8-1.7,3.8-3.8v-3.8H77.5z M64.5,37.8h9.2
		c1.3,0,2.3,1,2.3,2.3v26.8h-1.5v-26c0-0.8-0.7-1.5-1.5-1.5h-8.4V37.8z M64.5,40.9h8.4v26H37.7v-26h8.4v5.6l-1.5,0.8v0.6
		c0,7.3,4,13.9,10.4,17.3l0.4,0.2l0.4-0.2C62.1,61.8,66,55.2,66,47.9v-0.6l-10.7-5.8L50.7,44v-3.1h9.2v1.5h4.6V40.9z M50,68.4h10.7
		v0.8c0,0.4-0.3,0.8-0.8,0.8h-9.2c-0.4,0-0.8-0.3-0.8-0.8V68.4z M55.3,43.3l9.2,4.9c-0.1,6.4-3.6,12.3-9.2,15.5
		c-5.6-3.2-9.1-9.1-9.2-15.5L55.3,43.3z M59.9,37.8v1.5h-9.2v-1.5H59.9z M50.7,36.3c0-2.5,2.1-4.6,4.6-4.6c2.5,0,4.6,2.1,4.6,4.6
		H50.7z M55.3,28.6c4.2,0,7.7,3.4,7.7,7.7v4.6h-1.5v-4.6c0-3.4-2.7-6.1-6.1-6.1c-3.4,0-6.1,2.7-6.1,6.1v8.6l-1.5,0.8v-9.4
		C47.7,32.1,51.1,28.6,55.3,28.6z M34.6,40.1c0-1.3,1-2.3,2.3-2.3h9.2v1.5h-8.4c-0.8,0-1.5,0.7-1.5,1.5v26h-1.5V40.1z M77.5,70.7
		c0,1.3-1,2.3-2.3,2.3H35.4c-1.3,0-2.3-1-2.3-2.3v-2.3h15.3v0.8c0,1.3,1,2.3,2.3,2.3h9.2c1.3,0,2.3-1,2.3-2.3v-0.8h15.3V70.7z"/>
	<path class="st1" d="M53.8,53.1h3.1c0.8,0,1.5,0.7,1.5,1.5s-0.7,1.5-1.5,1.5h-3.1c-0.8,0-1.5-0.7-1.5-1.5h-1.5
		c0,1.7,1.4,3.1,3.1,3.1h0.8v1.5h1.5v-1.5h0.8c1.7,0,3.1-1.4,3.1-3.1c0-1.7-1.4-3.1-3.1-3.1h-3.1c-0.8,0-1.5-0.7-1.5-1.5
		s0.7-1.5,1.5-1.5h3.1c0.8,0,1.5,0.7,1.5,1.5h1.5c0-1.7-1.4-3.1-3.1-3.1h-0.8v-1.5h-1.5V47h-0.8c-1.7,0-3.1,1.4-3.1,3.1
		S52.1,53.1,53.8,53.1z"/>
</g>
</svg>
