<?xml version="1.0" encoding="utf-8"?>
<!-- Generator: Adobe Illustrator 23.1.1, SVG Export Plug-In . SVG Version: 6.00 Build 0)  -->
<svg version="1.1" id="Capa_1" xmlns="http://www.w3.org/2000/svg" xmlns:xlink="http://www.w3.org/1999/xlink" x="0px" y="0px"
	 viewBox="0 0 109.3 109.4" style="enable-background:new 0 0 109.3 109.4;" xml:space="preserve">
<style type="text/css">
	.st0{fill:none;stroke:#1AD5B1;stroke-width:0.5;stroke-miterlimit:10;}
	.st1{fill:#2045F4;}
</style>
<circle class="st0" cx="54.9" cy="54.7" r="53.3"/>
<g>
	<g>
		<path class="st1" d="M81.6,74.2l-0.7-0.7c-0.3-0.3-0.8-0.3-1.1,0c-0.3,0.3-0.3,0.8,0,1.1l0.6,0.6l-3.2,3.2l-5.5-5.5l3.2-3.2
			l2.5,2.5c0.3,0.3,0.8,0.3,1.1,0c0.3-0.3,0.3-0.8,0-1.1l-3.1-3.1c0,0,0,0,0,0L73.4,66c0,0,0,0,0,0l-1.9-1.9c-0.3-0.3-0.6-0.4-1-0.4
			s-0.7,0.1-1,0.4l-0.1,0.1l-2.7-2.7c1.9-2.4,3.3-5.3,4-8.4h5.3c0.4,0,0.8-0.3,0.8-0.8c0-0.4-0.3-0.8-0.8-0.8H71
			c0.1-0.5,0.1-1,0.1-1.5h8.5c0.4,0,0.8-0.3,0.8-0.8c0-0.4-0.3-0.8-0.8-0.8h-8.5c0-0.5,0-1-0.1-1.5h4.9c0.4,0,0.8-0.3,0.8-0.8
			c0-0.4-0.3-0.8-0.8-0.8H71c-0.5-3.5-1.9-6.7-4.2-9.5c-0.3-0.3-0.7-0.4-1.1-0.1c-0.3,0.3-0.4,0.7-0.1,1.1c2.7,3.4,4.1,7.4,4.1,11.7
			c0,10.4-8.5,18.9-18.9,18.9s-18.9-8.5-18.9-18.9s8.5-18.9,18.9-18.9c4.7,0,9.2,1.7,12.7,4.9c0.3,0.3,0.8,0.3,1.1-0.1
			c0.3-0.3,0.3-0.8-0.1-1.1c-3.8-3.4-8.6-5.3-13.7-5.3c-11.3,0-20.4,9.2-20.4,20.4c0,9.9,7.1,18.2,16.6,20.1v5.1
			c0,0.4,0.3,0.8,0.8,0.8c0.4,0,0.8-0.3,0.8-0.8V69c0.5,0.1,1,0.1,1.5,0.1v8.3c0,0.4,0.3,0.8,0.8,0.8s0.8-0.3,0.8-0.8v-8.3
			c0.5,0,1,0,1.5-0.1v4.8c0,0.4,0.3,0.8,0.8,0.8s0.8-0.3,0.8-0.8v-5.1c3.4-0.6,6.5-2.1,9.1-4.2l2.7,2.7l-0.1,0.1
			c-0.3,0.3-0.4,0.6-0.4,1s0.1,0.7,0.4,1l1.9,1.9c0,0,0,0,0,0l2.1,2.1c0,0,0,0,0,0l6.1,6.1c0.3,0.3,0.6,0.4,1,0.4
			c0.4,0,0.7-0.1,1-0.4l3.4-3.4c0.3-0.3,0.4-0.6,0.4-1S81.9,74.5,81.6,74.2L81.6,74.2z M65.7,62.6l2.6,2.6l-1.1,1.1l-2.6-2.6
			C65,63.4,65.4,63,65.7,62.6L65.7,62.6z M70.7,71.8l-1.1-1.1l3.2-3.2l1.1,1.1L70.7,71.8z M70.5,65.3l1.2,1.2l-3.2,3.2l-1.2-1.2
			L70.5,65.3z"/>
		<path class="st1" d="M40.2,62.6c3,2.3,6.7,3.5,10.5,3.6c9.6,0,17.4-7.8,17.4-17.4s-7.8-17.4-17.4-17.4c-4.6,0-9,1.8-12.3,5.1
			c-3.3,3.3-5.1,7.6-5.1,12.3c0,4.3,1.5,8.4,4.4,11.6c0.3,0.3,0.8,0.3,1.1,0.1c0.3-0.3,0.3-0.8,0.1-1.1c-2.6-2.9-4-6.7-4-10.6
			c0-4.3,1.7-8.2,4.7-11.2c3-3,7-4.7,11.2-4.7c8.8,0,15.9,7.1,15.9,15.9s-7.1,15.9-15.9,15.9c-3.5,0-6.9-1.2-9.6-3.2
			c-0.3-0.3-0.8-0.2-1.1,0.2C39.8,61.9,39.9,62.3,40.2,62.6L40.2,62.6z"/>
		<path class="st1" d="M53.7,35.2h-5.2c-0.6,0-1.2,0.5-1.2,1.2V39h-4.9c-0.6,0-1.2,0.5-1.2,1.2v8.1h-1c-0.4,0-0.8,0.3-0.8,0.8
			c0,0.4,0.3,0.8,0.8,0.8h21.7c0.4,0,0.8-0.3,0.8-0.8c0-0.4-0.3-0.8-0.8-0.8h-1V44c0-0.6-0.5-1.2-1.2-1.2h-4.9v-6.5
			C54.8,35.7,54.3,35.2,53.7,35.2z M42.7,40.6h4.5v7.8h-4.5V40.6z M48.8,36.7h4.5v11.6h-4.5V36.7z M59.4,44.4v3.9h-4.5v-3.9H59.4z"
			/>
		<path class="st1" d="M59.5,56.3h-3.6l-1.6-4.1c-0.1-0.3-0.4-0.5-0.7-0.5c-0.3,0-0.6,0.2-0.7,0.5l-2.2,6l-1.5-4.4
			c-0.1-0.3-0.4-0.5-0.6-0.5c-0.3,0-0.6,0.1-0.7,0.4l-1.5,2.7h-3.6c-0.4,0-0.8,0.3-0.8,0.8c0,0.4,0.3,0.8,0.8,0.8h4
			c0.3,0,0.5-0.1,0.7-0.4l0.9-1.6l1.7,4.8c0.1,0.3,0.4,0.5,0.7,0.5h0c0.3,0,0.6-0.2,0.7-0.5l2.2-6.1l1.1,2.8
			c0.1,0.3,0.4,0.5,0.7,0.5h4.1c0.4,0,0.8-0.3,0.8-0.8S59.9,56.3,59.5,56.3z"/>
	</g>
</g>
</svg>
