<?xml version="1.0" encoding="utf-8"?>
<!-- Generator: Adobe Illustrator 23.1.1, SVG Export Plug-In . SVG Version: 6.00 Build 0)  -->
<svg version="1.1" id="Capa_1" xmlns="http://www.w3.org/2000/svg" xmlns:xlink="http://www.w3.org/1999/xlink" x="0px" y="0px"
	 viewBox="0 0 109.3 109.4" style="enable-background:new 0 0 109.3 109.4;" xml:space="preserve">
<style type="text/css">
	.st0{fill:none;stroke:#2045F4;stroke-width:0.25;stroke-miterlimit:10;}
	.st1{fill:#1AD5B1;}
</style>
<circle class="st0" cx="54.6" cy="54.8" r="53.3"/>
<g>
	<path class="st1" d="M71.3,52.2c0-0.1,0-13.7,0-13.7L51,28.4L30.8,38.5V52c0,8.4,4.2,16.3,11.2,20.9l9.1,6l7-4.7
		c3.8,4.8,10.3,6.6,16,4.3c5.7-2.3,9.2-8.1,8.6-14.2C82,58.3,77.4,53.3,71.3,52.2L71.3,52.2z M51,77l-8.2-5.5
		C36.3,67.2,32.4,59.8,32.4,52V39.5L51,30.2l18.6,9.3v12.5c-0.3,0-0.5,0-0.8,0c-0.3,0-0.5,0-0.8,0c0,0,0-11.5,0-11.5L51,32l-17,8.5
		V52c0,7.3,3.7,14.2,9.8,18.2L51,75l5.3-3.5c0.2,0.5,0.5,1,0.8,1.4L51,77z M55.7,70L51,73.1l-6.4-4.2c-0.3-0.2-0.6-0.4-0.9-0.7v-7.2
		h-1.6v5.9c-0.9-0.8-1.7-1.7-2.4-2.7v-4.7c0-1.1,0.8-2.1,1.8-2.4l5.5-1.4c0.2,1.8,1.5,3.2,3.2,3.6v3.3h1.6v-3.3
		c1.7-0.4,3-1.8,3.2-3.6l3.6,0.9C55.4,60.2,54.3,65.3,55.7,70L55.7,70z M47,45.5h2.2c1.3,0,2.5-0.3,3.6-0.8h0.2l2,2.7v3.4l-2.7,2
		h-2.7l-2.7-2V45.5z M45.4,43.9c0.2-1,0.8-1.9,1.7-2.3c1.8-0.8,3.8-0.9,5.7-0.4l0.2,0.3h1.2c0.4,0,0.8,0.4,0.8,0.8v2.4l-1.2-1.6
		h-1.4l-0.2,0.1c-1,0.5-2,0.7-3.1,0.7H45.4z M53.5,54v1.2c0,1.3-1.1,2.4-2.4,2.4s-2.4-1.1-2.4-2.4V54l0.5,0.4h3.8L53.5,54z M55.1,54
		v-1.2l1.6-1.2v-9.3c0-1.3-1.1-2.4-2.4-2.4h-0.5c-1.2-0.7-4.1-0.9-6.2-0.2c-2.3,0.6-3.9,2.7-3.8,5.1v0.8h1.6v6.1l1.6,1.2V54
		l-5.9,1.5c-1.8,0.5-3.1,2.1-3.1,3.9v2.2c-1.6-3-2.4-6.3-2.4-9.6V41.5L51,33.8l15.4,7.7V52c0,0.1,0,0.2,0,0.3
		c-2.4,0.4-4.6,1.5-6.4,3L55.1,54z M68.9,78c-6.7,0-12.2-5.4-12.2-12.2c0-6.7,5.4-12.2,12.2-12.2c6.7,0,12.2,5.4,12.2,12.2
		C81,72.5,75.6,78,68.9,78z"/>
	<path class="st1" d="M72.9,42.3h9.7v1.6h-9.7V42.3z"/>
	<path class="st1" d="M72.9,45.5h6.5v1.6h-6.5V45.5z"/>
	<path class="st1" d="M72.9,48.8h3.2v1.6h-3.2V48.8z"/>
	<path class="st1" d="M65.9,65.2L63,62.4l-4.6,4.6l7.5,7.5l12.6-12.6l-4.6-4.6L65.9,65.2z M65.9,72.1l-5.2-5.2l2.3-2.3l2.9,2.9l8-8
		l2.3,2.3L65.9,72.1z"/>
</g>
</svg>
