<?xml version="1.0" encoding="utf-8"?>
<!-- Generator: Adobe Illustrator 23.1.1, SVG Export Plug-In . SVG Version: 6.00 Build 0)  -->
<svg version="1.1" id="Capa_1" xmlns="http://www.w3.org/2000/svg" xmlns:xlink="http://www.w3.org/1999/xlink" x="0px" y="0px"
	 viewBox="0 0 109.3 109.4" style="enable-background:new 0 0 109.3 109.4;" xml:space="preserve">
<style type="text/css">
	.st0{fill:none;stroke:#1AD5B1;stroke-width:0.5;stroke-miterlimit:10;}
	.st1{fill:#2045F4;}
</style>
<circle class="st0" cx="54.4" cy="54.6" r="53.3"/>
<g id="Layer_14">
	<path class="st1" d="M55.8,62.2v-6.3c0-1.3-1.1-2.4-2.4-2.4c-1.3,0-2.4,1.1-2.4,2.4v6.3c-1.7,1.3-2.1,3.8-0.8,5.5
		c0.5,0.7,1.3,1.2,2.2,1.4c0.3,0.1,0.6,0.1,0.9,0.1c2.2,0,3.9-1.8,3.9-3.9C57.4,64.1,56.8,63,55.8,62.2z M54.9,67.2
		c-1,0.8-2.5,0.7-3.3-0.3c-0.8-1-0.7-2.5,0.3-3.3c0.1-0.1,0.3-0.2,0.4-0.3c0.2-0.1,0.4-0.4,0.4-0.7v-6.7c0-0.4,0.4-0.8,0.8-0.8
		c0.4,0,0.8,0.4,0.8,0.8v6.7c0,0.3,0.1,0.5,0.4,0.7c1.1,0.7,1.5,2.1,0.8,3.2C55.3,66.8,55.1,67.1,54.9,67.2L54.9,67.2z"/>
	<path class="st1" d="M83.6,55.9L81,55.3c-2.6-0.6-4.9-2.3-6.3-4.6c-0.2-0.4-0.7-0.5-1.1-0.3c-0.1,0.1-0.2,0.2-0.3,0.3
		c-1,1.6-2.4,2.9-4.1,3.8v-3.3c0-1.6-0.9-3-2.4-3.6v-7.4c0-7.4-6-13.4-13.4-13.4S40,32.7,40,40.1v7.4c-1.4,0.6-2.4,2-2.4,3.6v2.4
		h-0.8c-0.4,0-0.8,0.4-0.8,0.8v14.2c0,0.4,0.4,0.8,0.8,0.8h0.8v2.4c0,2.2,1.8,3.9,3.9,3.9h23.7c2.2,0,3.9-1.8,3.9-3.9v-0.1
		c1.1,1.3,2.3,2.4,3.6,3.4l0.6,0.5c0.3,0.2,0.7,0.2,0.9,0l0.6-0.5c5.7-4.3,9.1-11.1,9.2-18.3C84.2,56.3,84,56,83.6,55.9z M41.6,40.1
		c0-6.5,5.3-11.8,11.8-11.8s11.8,5.3,11.8,11.8v7.1h-3.2v-7.1c0-4.8-3.9-8.7-8.7-8.7s-8.7,3.9-8.7,8.7v7.1h-3.2V40.1z M60.5,47.2
		H46.3v-7.1c0-3.9,3.2-7.1,7.1-7.1s7.1,3.2,7.1,7.1V47.2z M45.6,55.1v3.2h-7.9v-3.2H45.6z M37.7,67.7v-3.2h7.9v3.2H37.7z M45.6,63
		h-7.9v-3.2h7.9V63z M67.7,71.7c0,1.3-1.1,2.4-2.4,2.4l0,0H41.6c-1.3,0-2.4-1.1-2.4-2.4l0,0v-2.4h7.1c0.4,0,0.8-0.4,0.8-0.8V54.3
		c0-0.4-0.4-0.8-0.8-0.8h-7.1v-2.4c0-1.3,1.1-2.4,2.4-2.4h23.7c1.3,0,2.4,1.1,2.4,2.4v3.9c-0.2,0.1-0.5,0.1-0.7,0.2l-2.6,0.6
		c-0.4,0.1-0.6,0.4-0.6,0.8c0,4.6,1.4,9,3.9,12.8V71.7z M74.1,73.7L74,73.9l-0.2-0.1c-5.2-3.9-8.3-9.9-8.5-16.4l2-0.4
		c2.7-0.6,5-2.1,6.7-4.3c1.7,2.2,4,3.7,6.7,4.3l2,0.4C82.4,63.8,79.3,69.8,74.1,73.7z"/>
	<path class="st1" d="M78.6,57.8l-1.4-0.7l-0.5,1.1c-2.7-1.6-6.1-0.7-7.7,2c-1.6,2.7-0.7,6.1,2,7.7s6.1,0.7,7.7-2
		c1.3-2.1,1-4.9-0.7-6.7L78.6,57.8z M77.9,63c0,2.2-1.7,4-3.9,4c-2.2,0-4-1.7-4-3.9c0-2.2,1.7-4,3.9-4c0.7,0,1.4,0.2,2.1,0.6
		l-2.1,4.3l-1.6-2.1L71,62.7l2.4,3.2c0.1,0.2,0.4,0.3,0.6,0.3h0.1c0.3,0,0.5-0.2,0.6-0.4l2.5-5C77.7,61.4,77.9,62.2,77.9,63z"/>
</g>
</svg>
