<?xml version="1.0" encoding="utf-8"?>
<!-- Generator: Adobe Illustrator 23.1.1, SVG Export Plug-In . SVG Version: 6.00 Build 0)  -->
<svg version="1.1" id="Capa_1" xmlns="http://www.w3.org/2000/svg" xmlns:xlink="http://www.w3.org/1999/xlink" x="0px" y="0px"
	 viewBox="0 0 109.3 109.8" style="enable-background:new 0 0 109.3 109.8;" xml:space="preserve">
<style type="text/css">
	.st0{fill:none;stroke:#1AD5B1;stroke-width:0.5;stroke-miterlimit:10;}
	.st1{fill:#2045F4;}
</style>
<circle class="st0" cx="54.6" cy="54.9" r="53.3"/>
<g>
	<path class="st1" d="M82.6,73.6c0,0-3.1-2.6-3.1-2.6c-0.4-0.4-1.1-0.3-1.4,0.1c-0.4,0.4-0.3,1.1,0.1,1.4l0.9,0.8h-44v-2.7
		l10.3-10.3c0.6,0.4,1.3,0.6,2.1,0.6c2.2,0,4.1-1.8,4.1-4l10.7-2.6c0.7,1.3,2.1,2.2,3.6,2.2c2.3,0,4.1-1.8,4.1-4.1
		c0-0.7-0.2-1.4-0.5-1.9c0,0,3.1-2.8,3.1-2.8c0.4-0.4,0.4-1,0.1-1.4c-0.4-0.4-1-0.4-1.4-0.1l-3.1,2.8c-0.6-0.4-1.4-0.7-2.2-0.7
		c-2.2,0-4.1,1.8-4.1,4l-10.7,2.6c-0.7-1.3-2.1-2.2-3.6-2.2c-2.3,0-4.1,1.8-4.1,4.1c0,0.8,0.2,1.5,0.6,2.1l-8.9,8.9V29.3
		c0,0,0.7,0.9,0.8,0.9c0.4,0.4,1,0.5,1.4,0.1c0.4-0.4,0.5-1,0.1-1.4l-2.6-3.1c-0.2-0.2-0.5-0.4-0.8-0.4c-0.3,0-0.6,0.1-0.8,0.4
		l-2.6,3.1c-0.2,0.2-0.3,0.5-0.2,0.7s0.2,0.5,0.4,0.7c0.4,0.4,1.1,0.3,1.4-0.1l0.7-0.9v44h-1.5c-0.6,0-1,0.5-1,1c0,0.6,0.5,1,1,1H33
		v1.5c0,0.6,0.5,1,1,1c0.6,0,1-0.5,1-1v-1.5h44c0,0-0.9,0.7-0.9,0.8c-0.4,0.4-0.5,1-0.1,1.4c0.2,0.2,0.5,0.4,0.8,0.4
		c0.2,0,0.5-0.1,0.7-0.2l3.1-2.6c0.2-0.2,0.4-0.5,0.4-0.8C83,74.1,82.8,73.8,82.6,73.6z M65.9,50.3c1.1,0,2.1,0.9,2.1,2.1
		s-0.9,2.1-2.1,2.1s-2.1-0.9-2.1-2.1C63.9,51.2,64.8,50.3,65.9,50.3z M47.5,54.8c1.1,0,2.1,0.9,2.1,2.1c0,1.1-0.9,2.1-2.1,2.1
		c-1.1,0-2.1-0.9-2.1-2.1C45.4,55.7,46.4,54.8,47.5,54.8z"/>
	<path class="st1" d="M82.7,37c-0.2-0.2-0.5-0.3-0.8-0.3c0,0-4,0.2-4,0.2c-0.6,0-1,0.5-1,1.1c0,0.6,0.5,1,1.1,1l1.1,0l-1.1,1
		c-0.4,0.4-0.4,1-0.1,1.4c0.4,0.4,1,0.4,1.4,0.1l1.2-1.1l-0.1,1.4c0,0.3,0.1,0.5,0.2,0.7c0.2,0.2,0.5,0.3,0.7,0.4
		c0.5,0,1-0.4,1.1-0.9l0.4-4C83,37.5,82.9,37.2,82.7,37L82.7,37z"/>
	<circle class="st1" cx="47.5" cy="64.5" r="1"/>
	<circle class="st1" cx="47.5" cy="69.1" r="1"/>
	<circle class="st1" cx="65.9" cy="64.6" r="1"/>
	<circle class="st1" cx="65.9" cy="69.2" r="1"/>
	<circle class="st1" cx="65.9" cy="60" r="1"/>
	<circle class="st1" cx="75.4" cy="43.7" r="1"/>
</g>
</svg>
