<?xml version="1.0" encoding="utf-8"?>
<!-- Generator: Adobe Illustrator 23.1.1, SVG Export Plug-In . SVG Version: 6.00 Build 0)  -->
<svg version="1.1" id="Capa_1" xmlns="http://www.w3.org/2000/svg" xmlns:xlink="http://www.w3.org/1999/xlink" x="0px" y="0px"
	 viewBox="0 0 109.3 109.8" style="enable-background:new 0 0 109.3 109.8;" xml:space="preserve">
<style type="text/css">
	.st0{fill:none;stroke:#1AD5B1;stroke-width:0.5;stroke-miterlimit:10;}
	.st1{fill:#2045F4;}
</style>
<circle class="st0" cx="54.6" cy="54.9" r="53.3"/>
<g>
	<path class="st1" d="M79.5,73.8H32.7c-1.2,0-2.3-1-2.3-2.3V44.1c0-0.4,0.3-0.8,0.8-0.8c0.4,0,0.8,0.3,0.8,0.8v25.2h48.3V41.9h-1.5
		v25.2c0,0.4-0.3,0.8-0.8,0.8c-0.4,0-0.8-0.3-0.8-0.8V41.9H31.2c-0.4,0-0.8-0.3-0.8-0.8v-4.6c0-1.2,1-2.3,2.3-2.3h36.2
		c0.4,0,0.8,0.3,0.8,0.8c0,0.4-0.3,0.8-0.8,0.8H32.7c-0.4,0-0.8,0.3-0.8,0.8v3.9h48.3v-3.9c0-0.4-0.3-0.8-0.8-0.8h-7.6
		c-0.4,0-0.8-0.3-0.8-0.8c0-0.4,0.3-0.8,0.8-0.8h7.6c1.2,0,2.3,1,2.3,2.3v35.1C81.8,72.8,80.8,73.8,79.5,73.8z M31.9,70.8v0.8
		c0,0.4,0.3,0.8,0.8,0.8h46.8c0.4,0,0.8-0.3,0.8-0.8v-0.8H31.9z M56.1,67.8c-6.8,0-12.3-5.5-12.3-12.3s5.5-12.3,12.3-12.3
		c1.6,0,3.2,0.3,4.7,0.9c0.4,0.2,0.6,0.6,0.4,1c-0.2,0.4-0.6,0.6-1,0.4c-1.3-0.5-2.7-0.8-4.1-0.8c-5.9,0-10.8,4.8-10.8,10.8
		s4.8,10.8,10.8,10.8s10.8-4.8,10.8-10.8c0-3.4-1.5-6.5-4.2-8.5c-0.3-0.3-0.4-0.7-0.1-1.1c0.3-0.3,0.7-0.4,1.1-0.1
		c3.1,2.3,4.8,5.9,4.8,9.7C68.4,62.3,62.9,67.8,56.1,67.8z M61.1,62.7c-0.6,0-1.2-0.2-1.6-0.7l-3.4-3.4c-1.8,1.8-3.2,3.2-3.4,3.4
		c-0.9,0.9-2.3,0.9-3.2,0c-0.9-0.9-0.9-2.3,0-3.2c0.1-0.1,1.6-1.6,3.4-3.4l-3.4-3.4c-0.9-0.9-0.9-2.3,0-3.2c0.9-0.9,2.3-0.9,3.2,0
		l3.4,3.4c1.8-1.8,3.2-3.2,3.4-3.4c0.9-0.9,2.3-0.9,3.2,0c0.9,0.9,0.9,2.3,0,3.2c-0.1,0.1-1.6,1.6-3.4,3.4l3.4,3.4v0
		c0.9,0.9,0.9,2.3,0,3.2C62.2,62.5,61.6,62.7,61.1,62.7L61.1,62.7z M51.1,49.8c-0.2,0-0.4,0.1-0.5,0.2c-0.3,0.3-0.3,0.8,0,1.1
		l3.9,3.9c0.3,0.3,0.3,0.8,0,1.1c-2,2-3.8,3.8-3.9,3.9c-0.3,0.3-0.3,0.8,0,1.1c0.3,0.3,0.8,0.3,1.1,0c0.1-0.1,1.9-1.9,3.9-3.9
		c0.3-0.3,0.8-0.3,1.1,0l3.9,3.9c0.3,0.3,0.8,0.3,1.1,0c0.3-0.3,0.3-0.8,0-1.1l-3.9-3.9c-0.3-0.3-0.3-0.8,0-1.1c2-2,3.8-3.8,3.9-3.9
		c0.3-0.3,0.3-0.8,0-1.1c-0.3-0.3-0.8-0.3-1.1,0c-0.1,0.1-1.9,1.9-3.9,3.9c-0.3,0.3-0.8,0.3-1.1,0L51.7,50
		C51.5,49.9,51.3,49.8,51.1,49.8L51.1,49.8z M78,38.8c-0.4,0-0.8-0.4-0.8-0.8c0-0.4,0.4-0.8,0.8-0.8s0.8,0.4,0.8,0.8
		C78.8,38.5,78.4,38.8,78,38.8z M75,38.8c-0.4,0-0.8-0.4-0.8-0.8c0-0.4,0.4-0.8,0.8-0.8s0.8,0.4,0.8,0.8
		C75.8,38.5,75.4,38.8,75,38.8z M71.9,38.8c-0.4,0-0.8-0.4-0.8-0.8c0-0.4,0.3-0.8,0.8-0.8c0,0,0,0,0.1,0c0,0,0,0,0.1,0
		c0.4,0,0.8,0.3,0.8,0.8C72.7,38.5,72.4,38.8,71.9,38.8z M72.6,38L72.6,38L72.6,38z M71.2,38L71.2,38C71.2,38,71.2,38,71.2,38z"/>
</g>
</svg>
