<?xml version="1.0" encoding="utf-8"?>
<!-- Generator: Adobe Illustrator 23.1.1, SVG Export Plug-In . SVG Version: 6.00 Build 0)  -->
<svg version="1.1" id="Capa_1" xmlns="http://www.w3.org/2000/svg" xmlns:xlink="http://www.w3.org/1999/xlink" x="0px" y="0px"
	 viewBox="0 0 109.3 109.8" style="enable-background:new 0 0 109.3 109.8;" xml:space="preserve">
<style type="text/css">
	.st0{fill:none;stroke:#2045F4;stroke-width:0.25;stroke-miterlimit:10;}
	.st1{fill:#1AD5B1;}
</style>
<circle class="st0" cx="54.8" cy="54.9" r="53.3"/>
<g>
	<g>
		<g>
			<path class="st1" d="M61.3,38.6c0-0.1,0-0.2,0-0.3v-5.6c0-0.5-0.4-0.9-0.9-0.9s-0.9,0.4-0.9,0.9v4.2c-2.1-1.5-4.6-2.3-7.3-2.3
				c0,0-0.1,0-0.1,0c-2.1,0-4,0.5-5.7,1.4v-4.2c0-0.5-0.4-0.9-0.9-0.9c-0.5,0-0.9,0.4-0.9,0.9v5.4c-3,2.3-4.9,6-4.9,10.1
				c0,6.9,5.7,12.6,12.5,12.6c0,0,0.1,0,0.1,0c6.9,0,12.5-5.8,12.4-12.7C64.7,43.8,63.4,40.8,61.3,38.6z M52.2,57.9
				C52.2,57.9,52.2,57.9,52.2,57.9c-5.9,0-10.7-4.8-10.7-10.7c0-5.9,4.7-10.8,10.6-10.8c0,0,0,0,0.1,0c5.8,0,10.6,4.8,10.7,10.7
				C62.8,53,58.1,57.9,52.2,57.9z"/>
		</g>
	</g>
	<g>
		<g>
			<path class="st1" d="M45.4,25.2c-0.5,0-0.9,0.4-0.9,0.9V28c0,0.5,0.4,0.9,0.9,0.9c0.5,0,0.9-0.4,0.9-0.9v-1.9
				C46.4,25.6,46,25.2,45.4,25.2z"/>
		</g>
	</g>
	<g>
		<g>
			<path class="st1" d="M60.4,26.1c-0.5,0-0.9,0.4-0.9,0.9V29c0,0.5,0.4,0.9,0.9,0.9s0.9-0.4,0.9-0.9v-1.9
				C61.3,26.6,60.9,26.1,60.4,26.1z"/>
		</g>
	</g>
	<g>
		<g>
			<path class="st1" d="M35.2,46.7c-0.5,0-0.9,0.4-0.9,0.9v7.5c0,0.5,0.4,0.9,0.9,0.9c0.5,0,0.9-0.4,0.9-0.9v-7.5
				C36.1,47.1,35.7,46.7,35.2,46.7z"/>
		</g>
	</g>
	<g>
		<g>
			<path class="st1" d="M35.2,41.1c-0.5,0-0.9,0.4-0.9,0.9v1.9c0,0.5,0.4,0.9,0.9,0.9c0.5,0,0.9-0.4,0.9-0.9V42
				C36.1,41.5,35.7,41.1,35.2,41.1z"/>
		</g>
	</g>
	<g>
		<g>
			<path class="st1" d="M70.7,38.3c-0.5,0-0.9,0.4-0.9,0.9v7.5c0,0.5,0.4,0.9,0.9,0.9c0.5,0,0.9-0.4,0.9-0.9v-7.5
				C71.6,38.7,71.2,38.3,70.7,38.3z"/>
		</g>
	</g>
	<g>
		<g>
			<path class="st1" d="M70.7,32.7c-0.5,0-0.9,0.4-0.9,0.9v1.9c0,0.5,0.4,0.9,0.9,0.9c0.5,0,0.9-0.4,0.9-0.9v-1.9
				C71.6,33.1,71.2,32.7,70.7,32.7z"/>
		</g>
	</g>
	<g>
		<g>
			<path class="st1" d="M55.7,49.5l0-0.9c0-0.7-0.3-1.5-0.8-2c-0.5-0.5-1.3-0.8-2-0.8l-1.9,0c0,0,0,0,0,0c-0.5,0-0.9-0.4-0.9-0.9
				l0-0.9c0-0.5,0.4-0.9,0.9-0.9l0.9,0c0,0,0.1,0,0.1,0c0,0,0,0,0,0c0,0,0.1,0,0.1,0l2.6,0c0.5,0,0.9-0.4,0.9-0.9
				c0-0.5-0.4-0.9-0.9-0.9c0,0,0,0,0,0l-1.8,0l0-0.9c0-0.5-0.4-0.9-0.9-0.9c0,0,0,0,0,0c-0.5,0-0.9,0.4-0.9,0.9l0,0.9H51
				c-1.5,0-2.8,1.3-2.8,2.8l0,0.9c0,1.5,1.3,2.8,2.8,2.8c0,0,0,0,0,0h1.9c0,0,0,0,0,0c0.2,0,0.5,0.1,0.7,0.3
				c0.2,0.2,0.3,0.4,0.3,0.7l0,0.9c0,0.5-0.4,0.9-0.9,0.9l-3.7,0c-0.5,0-0.9,0.4-0.9,0.9c0,0.5,0.4,0.9,0.9,0.9c0,0,0,0,0,0l1.9,0
				l0,1c0,0.5,0.4,0.9,0.9,0.9c0,0,0,0,0,0c0.5,0,0.9-0.4,0.9-0.9l0-1C54.5,52.3,55.7,51,55.7,49.5z"/>
		</g>
	</g>
	<g>
		<g>
			<circle class="st1" cx="45.4" cy="47.7" r="0.9"/>
		</g>
	</g>
	<g>
		<g>
			<circle class="st1" cx="58.5" cy="47.7" r="0.9"/>
		</g>
	</g>
	<g>
		<g>
			<path class="st1" d="M79.1,61.7H68.8c-1.2,0-2.2,0.8-2.6,1.9h-4.7c-0.5,0-0.9,0.4-0.9,0.9l-7.8-1.8c-0.6-0.1-1.1-0.1-1.7,0.1
				l-7.3,2.9c-0.9,0.4-1.6,1.1-1.9,2.1l-14.3-4.2c-0.9-0.3-1.8-0.1-2.5,0.4c-0.7,0.5-1.1,1.3-1.1,2.2v2c0,0.9,0.5,1.8,1.3,2.3
				l10.4,6.7c0.1,0.1,0.2,0.1,0.3,0.1l15.5,3.5c0.2,0,0.4,0.1,0.6,0.1c0.2,0,0.4,0,0.6-0.1l8.1-1.9c0.2,0.2,0.4,0.4,0.7,0.4h4.7
				c0.4,1.1,1.4,1.9,2.6,1.9h10.3c0.5,0,0.9-0.4,0.9-0.9V62.6C80,62.1,79.6,61.7,79.1,61.7z M60.3,77.2l-8.1,1.9c-0.1,0-0.3,0-0.4,0
				l-15.3-3.5L26.2,69c-0.3-0.2-0.4-0.4-0.4-0.7v-2c0-0.4,0.2-0.6,0.4-0.7c0.2-0.2,0.6-0.2,0.9-0.2l14.8,4.4C42.3,71,43.5,72,45,72
				h7c0.5,0,0.9-0.4,0.9-0.9c0-0.5-0.4-0.9-0.9-0.9h-7c-0.8,0-1.4-0.6-1.4-1.4c0-0.6,0.3-1.1,0.9-1.3l7.3-2.9c0.2-0.1,0.4-0.1,0.6,0
				l8,1.8L60.3,77.2z M66,77.6h-3.7V65.4H66V77.6z M78.2,79.4h-9.3c-0.5,0-0.9-0.4-0.9-0.9v-14c0-0.5,0.4-0.9,0.9-0.9h9.3V79.4z"/>
		</g>
	</g>
	<g>
		<g>
			<path class="st1" d="M74.6,75.7h-2.8c-0.5,0-0.9,0.4-0.9,0.9c0,0.5,0.4,0.9,0.9,0.9h2.8c0.5,0,0.9-0.4,0.9-0.9
				C75.5,76.1,75.1,75.7,74.6,75.7z"/>
		</g>
	</g>
</g>
</svg>
