<?xml version="1.0" encoding="utf-8"?>
<!-- Generator: Adobe Illustrator 23.1.1, SVG Export Plug-In . SVG Version: 6.00 Build 0)  -->
<svg version="1.1" id="Capa_1" xmlns="http://www.w3.org/2000/svg" xmlns:xlink="http://www.w3.org/1999/xlink" x="0px" y="0px"
	 viewBox="0 0 109.3 109.8" style="enable-background:new 0 0 109.3 109.8;" xml:space="preserve">
<style type="text/css">
	.st0{fill:none;stroke:#1AD5B1;stroke-width:0.5;stroke-miterlimit:10;}
	.st1{fill:#2045F4;}
</style>
<circle class="st0" cx="54.6" cy="54.3" r="53.3"/>
<g>
	<g>
		<g>
			<path class="st1" d="M74.2,43.9C74.2,43.9,74.2,43.9,74.2,43.9h-45c-0.4,0-0.8,0.3-0.8,0.8c0,0,0,0,0,0v21.6
				c0,0.4,0.3,0.8,0.8,0.8c0,0,0,0,0,0h30.6c0.4,0,0.8-0.3,0.8-0.8c0-0.4-0.3-0.8-0.8-0.8H30V45.5h43.5v1.9c0,0.4,0.3,0.8,0.8,0.8
				c0,0,0,0,0,0c0.4,0,0.8-0.3,0.8-0.8c0,0,0,0,0,0v-2.7C75,44.3,74.7,43.9,74.2,43.9z"/>
		</g>
	</g>
	<g>
		<g>
			<path class="st1" d="M69,40.3l-36-8.1c-0.2,0-0.4,0-0.6,0.1c-0.2,0.1-0.3,0.3-0.3,0.5l-1.8,8.1c-0.1,0.4,0.2,0.8,0.6,0.9
				c0.4,0.1,0.8-0.2,0.9-0.6l1.6-7.3l35.2,7.9c0.1,0,0.1,0,0.2,0c0.4,0,0.8-0.3,0.8-0.8C69.6,40.7,69.3,40.4,69,40.3z"/>
		</g>
	</g>
	<g>
		<g>
			<path class="st1" d="M64.6,35.9l-21.6-9c-0.4-0.2-0.8,0-1,0.4l-1.8,3.6c-0.2,0.4-0.1,0.8,0.3,1c0.4,0.2,0.8,0.1,1-0.3
				c0,0,0,0,0,0v0l1.5-3L64,37.3c0.4,0.2,0.8,0,1-0.4C65.2,36.5,65,36,64.6,35.9z"/>
		</g>
	</g>
	<g>
		<g>
			<path class="st1" d="M65.2,47.5H58c-0.4,0-0.8,0.3-0.8,0.8s0.3,0.8,0.8,0.8h7.1c0.4,0,0.8-0.3,0.8-0.8S65.6,47.5,65.2,47.5z"/>
		</g>
	</g>
	<g>
		<g>
			<path class="st1" d="M50.8,47.6c-4.4,0-7.9,3.5-7.9,7.9c0,4.4,3.5,7.9,7.9,7.9c4.4,0,7.9-3.5,7.9-7.9S55.2,47.6,50.8,47.6z
				 M50.8,62c-3.6,0-6.5-2.9-6.5-6.5c0-3.6,2.9-6.5,6.5-6.5c3.6,0,6.5,2.9,6.5,6.5C57.3,59.1,54.4,62,50.8,62z"/>
		</g>
	</g>
	<g>
		<g>
			<path class="st1" d="M72.4,50.1c-4.8,0-9.9,1.1-9.9,3.6v21.6c0,2.5,5.1,3.6,9.9,3.6c4.8,0,9.9-1.1,9.9-3.6V53.7
				C82.3,51.2,77.2,50.1,72.4,50.1z M80.5,75.3c-0.1,0.5-2.8,1.8-8.1,1.8s-8-1.3-8.1-1.8v-1.4c1.9,1,5.1,1.4,8.1,1.4
				s6.2-0.5,8.1-1.4V75.3z M80.5,71.7c-0.1,0.5-2.8,1.8-8.1,1.8s-8-1.3-8.1-1.8v-1.4c1.9,1,5.1,1.4,8.1,1.4s6.2-0.5,8.1-1.4V71.7z
				 M80.5,68.1c-0.1,0.5-2.8,1.8-8.1,1.8s-8-1.3-8.1-1.8v-1.4c1.9,1,5.1,1.4,8.1,1.4s6.2-0.5,8.1-1.4V68.1z M80.5,64.5
				c-0.1,0.5-2.8,1.8-8.1,1.8s-8-1.3-8.1-1.8v-1.4c1.9,1,5.1,1.4,8.1,1.4s6.2-0.5,8.1-1.4V64.5z M80.5,60.9
				c-0.1,0.5-2.8,1.8-8.1,1.8s-8-1.3-8.1-1.8v-1.4c1.9,1,5.1,1.4,8.1,1.4s6.2-0.5,8.1-1.4V60.9z M80.5,57.3
				c-0.1,0.5-2.8,1.8-8.1,1.8s-8-1.3-8.1-1.8v-1.4c1.9,1,5.1,1.4,8.1,1.4s6.2-0.5,8.1-1.4V57.3z M72.4,55.5c-5.3,0-8-1.3-8.1-1.8v0
				c0.1-0.5,2.8-1.8,8.1-1.8c5.2,0,7.9,1.3,8.1,1.8C80.3,54.2,77.6,55.5,72.4,55.5z"/>
		</g>
	</g>
	<g>
		<g>
			<path class="st1" d="M43.6,61.9h-6.8l-3.2-3.5v-5.8l3.6-3.5h6.5c0.4,0,0.8-0.3,0.8-0.8c0-0.4-0.3-0.8-0.8-0.8h-6.8
				c-0.2,0-0.4,0.1-0.5,0.2l-4,3.9c-0.2,0.2-0.2,0.4-0.2,0.6v6.4c0,0.2,0.1,0.4,0.2,0.5l3.7,4c0.1,0.2,0.4,0.3,0.6,0.3h7.1
				c0.4,0,0.8-0.3,0.8-0.8S44.1,61.9,43.6,61.9z"/>
		</g>
	</g>
	<g>
		<g>
			<path class="st1" d="M51.3,54.6h-0.9c-0.3,0-0.4-0.2-0.4-0.2s0.2-0.2,0.4-0.2h2.2c0.5,0,0.9-0.4,0.9-0.9c0-0.5-0.4-0.9-0.9-0.9
				h-0.9c0-0.5-0.4-0.9-0.9-0.9c-0.5,0-0.9,0.4-0.9,0.9v0c-1,0.1-1.8,1-1.8,2c0.1,1.2,1.1,2.1,2.2,2h0.9c0.3,0,0.4,0.2,0.4,0.2
				c0,0.1-0.2,0.2-0.4,0.2H49c-0.5,0-0.9,0.4-0.9,0.9s0.4,0.9,0.9,0.9h0.9c0,0.5,0.4,0.9,0.9,0.9c0.5,0,0.9-0.4,0.9-0.9v0
				c1-0.1,1.8-1,1.8-2C53.5,55.4,52.5,54.5,51.3,54.6z"/>
		</g>
	</g>
</g>
</svg>
