<?xml version="1.0" encoding="utf-8"?>
<!-- Generator: Adobe Illustrator 23.1.1, SVG Export Plug-In . SVG Version: 6.00 Build 0)  -->
<svg version="1.1" id="Capa_1" xmlns="http://www.w3.org/2000/svg" xmlns:xlink="http://www.w3.org/1999/xlink" x="0px" y="0px"
	 viewBox="0 0 32.5 19.8" style="enable-background:new 0 0 32.5 19.8;" xml:space="preserve">
<style type="text/css">
	.st0{fill:#2045F4;}
</style>
<g>
	<g>
		<g>
			<g>
				<path class="st0" d="M31.3,9.4l-9.3-8.9c-0.8-0.7-2-0.7-2.7,0c-0.4,0.4-0.6,0.8-0.6,1.3c0,0.5,0.2,1,0.6,1.3v0l6.9,6.6l-6.9,6.6
					c-0.4,0.4-0.6,0.8-0.6,1.3c0,0.5,0.2,1,0.6,1.3c0.4,0.4,0.9,0.5,1.4,0.5c0.5,0,1-0.2,1.4-0.5l9.3-8.9c0.1-0.1,0.2-0.3,0.2-0.5
					C31.5,9.7,31.5,9.6,31.3,9.4z M21.2,18.3c-0.3,0.3-0.7,0.3-1,0c-0.1-0.1-0.2-0.3-0.2-0.4c0-0.2,0.1-0.3,0.2-0.4l7.4-7.1
					c0.1-0.1,0.2-0.3,0.2-0.5s-0.1-0.3-0.2-0.5l-7.4-7.1v0c-0.1-0.1-0.2-0.3-0.2-0.4c0-0.2,0.1-0.3,0.2-0.4c0.1-0.1,0.3-0.2,0.5-0.2
					c0.2,0,0.4,0.1,0.5,0.2L30,9.9L21.2,18.3z"/>
			</g>
		</g>
	</g>
	<g>
		<g>
			<g>
				<path class="st0" d="M21.8,9.4l-9.3-8.9c-0.8-0.7-2-0.7-2.7,0C9.4,0.9,9.2,1.4,9.2,1.9c0,0.5,0.2,1,0.6,1.3v0l6.9,6.6l-6.9,6.6
					c-0.4,0.4-0.6,0.8-0.6,1.3c0,0.5,0.2,1,0.6,1.3c0.4,0.4,0.9,0.5,1.4,0.5c0.5,0,1-0.2,1.4-0.5l9.3-8.9c0.1-0.1,0.2-0.3,0.2-0.5
					C22,9.7,21.9,9.6,21.8,9.4z M11.6,18.3c-0.3,0.3-0.7,0.3-1,0c-0.1-0.1-0.2-0.3-0.2-0.4c0-0.2,0.1-0.3,0.2-0.4l7.4-7.1
					c0.1-0.1,0.2-0.3,0.2-0.5s-0.1-0.3-0.2-0.5l-7.4-7.1v0c-0.1-0.1-0.2-0.3-0.2-0.4c0-0.2,0.1-0.3,0.2-0.4c0.1-0.1,0.3-0.2,0.5-0.2
					c0.2,0,0.4,0.1,0.5,0.2l8.8,8.4L11.6,18.3z"/>
			</g>
		</g>
	</g>
	<g>
		<g>
			<g>
				<path class="st0" d="M12.8,9.4L3.6,0.5c-0.8-0.7-2-0.7-2.7,0C0.5,0.9,0.3,1.4,0.3,1.9c0,0.5,0.2,1,0.6,1.3v0l6.9,6.6l-6.9,6.6
					c-0.4,0.4-0.6,0.8-0.6,1.3c0,0.5,0.2,1,0.6,1.3c0.4,0.4,0.9,0.5,1.4,0.5c0.5,0,1-0.2,1.4-0.5l9.3-8.9C13,10.2,13,10.1,13,9.9
					C13,9.7,13,9.6,12.8,9.4z M2.7,18.3c-0.3,0.3-0.7,0.3-1,0c-0.1-0.1-0.2-0.3-0.2-0.4c0-0.2,0.1-0.3,0.2-0.4l7.4-7.1
					c0.1-0.1,0.2-0.3,0.2-0.5c0-0.2-0.1-0.3-0.2-0.5L1.7,2.3v0C1.6,2.2,1.5,2.1,1.5,1.9c0-0.2,0.1-0.3,0.2-0.4
					C1.9,1.3,2,1.3,2.2,1.3s0.4,0.1,0.5,0.2l8.8,8.4L2.7,18.3z"/>
			</g>
		</g>
	</g>
</g>
</svg>
