<?xml version="1.0" encoding="utf-8"?>
<!-- Generator: Adobe Illustrator 23.1.1, SVG Export Plug-In . SVG Version: 6.00 Build 0)  -->
<svg version="1.1" id="Capa_1" xmlns="http://www.w3.org/2000/svg" xmlns:xlink="http://www.w3.org/1999/xlink" x="0px" y="0px"
	 viewBox="0 0 14.2 10.3" style="enable-background:new 0 0 14.2 10.3;" xml:space="preserve">
<style type="text/css">
	.st0{fill:#7670FF;}
</style>
<path class="st0" d="M7,0.2c2,0,4.1,0,6.1,0c0.5,0,0.9,0.3,0.9,0.8c0,2.8,0,5.5,0,8.3c0,0.5-0.4,0.8-0.9,0.8c-4.1,0-8.1,0-12.2,0
	C0.4,10.1,0,9.8,0,9.3C0,6.5,0,3.8,0,1c0-0.2,0-0.3,0.1-0.5c0.1-0.3,0.4-0.4,0.7-0.4C2.9,0.2,5,0.2,7,0.2z M1.4,1
	C3.3,2.9,5.2,4.7,7,6.6c1.9-1.9,3.7-3.7,5.6-5.6C8.9,1,5.2,1,1.4,1z M1.5,9.3c3.7,0,7.4,0,11.1,0c-1.2-1.2-2.3-2.4-3.5-3.5
	c-0.5,0.5-1,1-1.5,1.5c-0.3,0.3-0.7,0.3-1,0C6.2,7,5.9,6.7,5.7,6.4C5.4,6.2,5.2,6,5,5.8C3.8,6.9,2.7,8.1,1.5,9.3z M0.9,1.6
	c0,2.4,0,4.7,0,7c1.2-1.2,2.3-2.4,3.5-3.5C3.2,4,2.1,2.8,0.9,1.6z M9.7,5.1c1.2,1.2,2.3,2.3,3.5,3.5c0-2.4,0-4.7,0-7
	C12,2.8,10.8,4,9.7,5.1z"/>
</svg>
