<?xml version="1.0" encoding="utf-8"?>
<!-- Generator: Adobe Illustrator 23.1.1, SVG Export Plug-In . SVG Version: 6.00 Build 0)  -->
<svg version="1.1" id="Capa_1" xmlns="http://www.w3.org/2000/svg" xmlns:xlink="http://www.w3.org/1999/xlink" x="0px" y="0px"
	 viewBox="0 0 7.2 10.3" style="enable-background:new 0 0 7.2 10.3;" xml:space="preserve">
<style type="text/css">
	.st0{fill:#FFFFFF;}
</style>
<g>
	<path class="st0" d="M3.6,9.8C3.3,9.4,3,9.1,2.8,8.7c-0.7-1-1.4-2-1.9-3.1C0.6,5,0.4,4.3,0.4,3.6C0.3,3,0.5,2.5,0.8,2
		c0.7-1,1.6-1.5,2.9-1.5c1.6,0,2.9,1.2,3.1,2.7c0.1,0.5,0,1.1-0.2,1.6C6.4,5.5,6,6.2,5.7,6.8C5.1,7.8,4.4,8.8,3.6,9.8
		C3.6,9.7,3.6,9.7,3.6,9.8z M5.9,3.6c0-1.2-1-2.2-2.3-2.2c-1.2,0-2.3,1-2.3,2.2c0,1.2,1,2.2,2.3,2.2C4.8,5.8,5.9,4.8,5.9,3.6z"/>
</g>
</svg>
