<?xml version="1.0" encoding="utf-8"?>
<!-- Generator: Adobe Illustrator 23.1.1, SVG Export Plug-In . SVG Version: 6.00 Build 0)  -->
<svg version="1.1" id="Capa_1" xmlns="http://www.w3.org/2000/svg" xmlns:xlink="http://www.w3.org/1999/xlink" x="0px" y="0px"
	 viewBox="0 0 11 10.3" style="enable-background:new 0 0 11 10.3;" xml:space="preserve">
<style type="text/css">
	.st0{fill:#7670FF;}
</style>
<g>
	<path class="st0" d="M11,8.2c0,0.3-0.1,0.6-0.2,0.9c-0.1,0.3-0.4,0.5-0.7,0.6c-0.5,0.3-1,0.5-1.6,0.5c-0.5,0-0.9-0.1-1.4-0.2
		C6,9.7,5,9.3,4.2,8.7c-1.4-1-2.7-2.3-3.4-3.8C0.4,4.2,0.2,3.6,0,2.9C-0.1,2.4,0,2,0.2,1.5c0.2-0.4,0.3-0.8,0.7-1.1
		C1.2,0.2,1.6,0.1,2,0c0.4-0.1,0.6,0,0.8,0.3C3,0.8,3.2,1.2,3.5,1.6C3.6,1.8,3.7,2,3.9,2.2C4,2.4,4,2.6,3.8,2.8
		C3.6,3,3.4,3.1,3.2,3.3C3,3.5,2.8,3.6,2.7,3.8C2.6,3.9,2.6,4,2.6,4.1c0,0.1,0.1,0.2,0.1,0.2C3.2,5.2,3.8,6,4.6,6.6
		c0.6,0.5,1.2,0.8,1.8,1.1c0.3,0.2,0.5,0.1,0.7-0.1c0.2-0.2,0.5-0.5,0.7-0.8c0.4-0.4,0.5-0.4,1-0.1c0.5,0.3,1,0.5,1.5,0.8
		c0.2,0.1,0.3,0.2,0.5,0.3C10.9,7.9,11,8,11,8.2z"/>
</g>
</svg>
