<?xml version="1.0" encoding="utf-8"?>
<!-- Generator: Adobe Illustrator 23.1.1, SVG Export Plug-In . SVG Version: 6.00 Build 0)  -->
<svg version="1.1" id="Capa_1" xmlns="http://www.w3.org/2000/svg" xmlns:xlink="http://www.w3.org/1999/xlink" x="0px" y="0px"
	 viewBox="0 0 8.2 8.4" style="enable-background:new 0 0 8.2 8.4;" xml:space="preserve">
<style type="text/css">
	.st0{fill:#FFFFFF;}
</style>
<g>
	<path class="st0" d="M8.1,6.5C8.1,6.7,8,7,7.9,7.2C7.8,7.4,7.6,7.6,7.4,7.7C7,7.9,6.6,8,6.2,8.1c-0.5,0-0.9-0.1-1.3-0.3
		c-0.7-0.3-1.4-0.6-2-1.1C1.9,5.9,1.1,5,0.6,3.9C0.5,3.5,0.3,3.1,0.2,2.7C0,2.1,0.1,1.5,0.4,0.9c0.1-0.2,0.2-0.3,0.3-0.5
		c0.1-0.1,0.2-0.2,0.4-0.2C1.5,0,2,0.2,2.2,0.6c0.1,0.2,0.3,0.4,0.4,0.7c0.1,0.2,0.2,0.3,0.3,0.5C3,2,3,2.1,2.9,2.2
		C2.7,2.4,2.6,2.5,2.4,2.6C2.3,2.8,2.1,2.9,2,3C2,3.1,1.9,3.2,2,3.3C2,3.3,2,3.4,2,3.4c0.4,0.7,0.8,1.3,1.4,1.8
		c0.3,0.3,0.6,0.5,1,0.7c0.4,0.2,0.8,0.1,1.1-0.2c0,0,0,0,0,0c0.3-0.4,0.9-0.5,1.3-0.2c0.3,0.1,0.5,0.3,0.8,0.4
		C7.7,6,7.8,6.1,7.9,6.2C8,6.2,8.1,6.3,8.1,6.5z"/>
</g>
</svg>
