<svg id="Capa_1" data-name="Capa 1" xmlns="http://www.w3.org/2000/svg" viewBox="0 0 43.89 23.82"><defs><style>.cls-1{fill:#1ad5b1;}</style></defs><path class="cls-1" d="M4.83,34.41A4.23,4.23,0,0,0,9,30.21a3.89,3.89,0,0,0-.7-2.3l6-6a3.89,3.89,0,0,0,2.3.7,1.7,1.7,0,0,0,.7-.1,3.6,3.6,0,0,0,2.1-1.1l5,3.8a4.18,4.18,0,1,0,7.4-.8l6-6a4.26,4.26,0,1,0-1.2-5.9,4.43,4.43,0,0,0,0,4.7l-6,6a4.22,4.22,0,0,0-5.3.5h0l-4.9-3.8a4.33,4.33,0,0,0-2.1-5.6,4.24,4.24,0,0,0-5.6,2.1,4.08,4.08,0,0,0,.3,4l-6,6a4.1,4.1,0,0,0-5.8,1.2,4.17,4.17,0,0,0,1.2,5.8,3.59,3.59,0,0,0,2.4,1Zm35.4-22a2.5,2.5,0,1,1-2.5,2.5A2.48,2.48,0,0,1,40.23,12.41Zm-11.8,11.9a2.48,2.48,0,0,1,2.5,2.5,2.87,2.87,0,0,1-.7,1.8,2.55,2.55,0,1,1-3.6-3.6,2.41,2.41,0,0,1,1.8-.7Zm-13.9-7.4a2.34,2.34,0,0,1,1.6-1h.4a2.39,2.39,0,0,1,1.4.5,2.51,2.51,0,0,1-2.9,4.1,2.77,2.77,0,0,1-.5-3.6ZM3,28.41A2.55,2.55,0,1,1,3,32a2.54,2.54,0,0,1,0-3.6Z" transform="translate(-0.55 -10.59)"/></svg>