<svg id="Capa_1" data-name="Capa 1" xmlns="http://www.w3.org/2000/svg" viewBox="0 0 35.29 35"><defs><style>.cls-1{fill:#2045f4;}</style></defs><g id="fingerprint_pass" data-name="fingerprint pass"><path class="cls-1" d="M16.15,38.6a13.44,13.44,0,0,1-5.7-2.9.53.53,0,0,0-.8.1c-.1.1-.2.3-.1.4a.52.52,0,0,0,.2.4A14.54,14.54,0,0,0,16,39.7h.1a.63.63,0,0,0,.6-.5v-.1a1.21,1.21,0,0,0-.5-.5Z" transform="translate(-4.85 -5)"/><path class="cls-1" d="M6.25,28.5a.75.75,0,0,0-.7-.5.75.75,0,0,0-.5.7A13.5,13.5,0,0,0,8,35a.76.76,0,0,0,.5.2.6.6,0,0,0,.4-.1.76.76,0,0,0,.2-.5.6.6,0,0,0-.1-.4A13.65,13.65,0,0,1,6.25,28.5Z" transform="translate(-4.85 -5)"/><path class="cls-1" d="M24.45,37.6h0a13.89,13.89,0,0,1-5.6,1.3h-.7a.56.56,0,0,0-.6.5h0a.58.58,0,0,0,.6.6h.7A14.34,14.34,0,0,0,25,38.6a.55.55,0,0,0,.3-.5.37.37,0,0,0-.1-.3c0-.2-.4-.3-.7-.2Z" transform="translate(-4.85 -5)"/><path class="cls-1" d="M17.45,6.3a13.57,13.57,0,0,1,6.3.8H24a.65.65,0,0,0,.6-.6.51.51,0,0,0-.4-.5A13.37,13.37,0,0,0,19,5a8.6,8.6,0,0,0-1.6.1.56.56,0,0,0-.5.6v.1C16.85,6.1,17.05,6.3,17.45,6.3Z" transform="translate(-4.85 -5)"/><path class="cls-1" d="M9.45,10.1a.52.52,0,0,0,.4-.2,12.7,12.7,0,0,1,5.5-3.2.54.54,0,0,0,.4-.3.3.3,0,0,0,0-.4.57.57,0,0,0-.7-.4,12.59,12.59,0,0,0-6,3.5.6.6,0,0,0,.4,1Z" transform="translate(-4.85 -5)"/><path class="cls-1" d="M5.45,18h0a.67.67,0,0,0,.7-.5,13.77,13.77,0,0,1,2.3-5.9.74.74,0,0,0-.1-.9.54.54,0,0,0-.8.2,13.63,13.63,0,0,0-2.5,6.5v.1c-.1.2.2.4.4.5Z" transform="translate(-4.85 -5)"/><path class="cls-1" d="M5.45,26.9a.65.65,0,0,0,.6-.6h0V19.6a.65.65,0,0,0-.6-.6.65.65,0,0,0-.6.6v6.7a.58.58,0,0,0,.6.6Z" transform="translate(-4.85 -5)"/><path class="cls-1" d="M25.65,8.1a11.17,11.17,0,0,1,2.4,1.9,14,14,0,0,1,2.1,2.7.54.54,0,0,0,.8.2.63.63,0,0,0,.2-.8h0a14.37,14.37,0,0,0-4.8-5,.54.54,0,0,0-.8.2.37.37,0,0,0-.1.3.37.37,0,0,0,.2.5Z" transform="translate(-4.85 -5)"/><path class="cls-1" d="M31,14.6a13.75,13.75,0,0,1,.8,4.5V21A.6.6,0,0,0,33,21V19.1a13.72,13.72,0,0,0-.9-4.9.46.46,0,0,0-.7-.3.66.66,0,0,0-.4.5Z" transform="translate(-4.85 -5)"/><path class="cls-1" d="M10.75,10.7a11.34,11.34,0,0,0-3.3,6.4v.1a.63.63,0,0,0,.5.6h.1a.63.63,0,0,0,.6-.5,10.85,10.85,0,0,1,3-5.8c0-.1.1-.2.1-.4a.52.52,0,0,0-.2-.4A.61.61,0,0,0,10.75,10.7Z" transform="translate(-4.85 -5)"/><path class="cls-1" d="M30.05,21.5a.65.65,0,0,0,.6-.6V19.1a11.67,11.67,0,0,0-1.2-5.2.66.66,0,0,0-.8-.4.55.55,0,0,0-.3.5.37.37,0,0,0,.1.3,11.16,11.16,0,0,1,1.1,4.7v1.8A.54.54,0,0,0,30.05,21.5Z" transform="translate(-4.85 -5)"/><path class="cls-1" d="M26.35,11.6a6.47,6.47,0,0,1,.8.9.76.76,0,0,0,.5.2.6.6,0,0,0,.4-.1.52.52,0,0,0,.2-.4c0-.2,0-.3-.1-.4h0c-.3-.3-.6-.7-.9-1a11.53,11.53,0,0,0-5.1-3h0a.57.57,0,0,0-.7.4v.2a.68.68,0,0,0,.4.6,9.85,9.85,0,0,1,4.5,2.6Z" transform="translate(-4.85 -5)"/><path class="cls-1" d="M7.55,29a11.79,11.79,0,0,0,3.1,5.4,5,5,0,0,0,.8.7h0c.1.1.2.1.4.1s.3-.1.5-.2.1-.2.1-.4-.1-.3-.2-.5a2.34,2.34,0,0,1-.7-.7,11.09,11.09,0,0,1-2.8-4.8.61.61,0,0,0-.7-.3c-.2,0-.3.1-.4.3s-.1.2-.1.4Z" transform="translate(-4.85 -5)"/><path class="cls-1" d="M7.25,26.1v.5a.65.65,0,0,0,.6.6h0a.65.65,0,0,0,.6-.6h0V19.7a.65.65,0,0,0-.6-.6.65.65,0,0,0-.6.6Z" transform="translate(-4.85 -5)"/><path class="cls-1" d="M19.55,8.5a.56.56,0,0,0,.6-.5c0-.2,0-.3-.1-.4a.4.4,0,0,0-.4-.2H19a10.78,10.78,0,0,0-6.3,1.8.55.55,0,0,0-.3.5.37.37,0,0,0,.1.3.55.55,0,0,0,.5.3.37.37,0,0,0,.3-.1A9.68,9.68,0,0,1,19,8.6a1.27,1.27,0,0,1,.6-.1Z" transform="translate(-4.85 -5)"/><path class="cls-1" d="M13.25,35.6a.3.3,0,0,0,0,.4.32.32,0,0,0,.3.3A11.33,11.33,0,0,0,19,37.6a9.15,9.15,0,0,0,1.7-.1.56.56,0,0,0,.5-.6v-.1a.67.67,0,0,0-.7-.5,10.94,10.94,0,0,1-6.4-1.1,1.23,1.23,0,0,0-.8.4Z" transform="translate(-4.85 -5)"/><path class="cls-1" d="M10.15,18.1a.56.56,0,0,0-.6.5h0v7.5a.6.6,0,1,0,1.2,0V18.7a.71.71,0,0,0-.6-.6Z" transform="translate(-4.85 -5)"/><path class="cls-1" d="M27.65,22a.65.65,0,0,0,.6-.6V19a8.9,8.9,0,0,0-1.5-5h0a.63.63,0,0,0-.8-.2.55.55,0,0,0-.3.5.37.37,0,0,0,.1.3,8.39,8.39,0,0,1,1.3,4.4v2.4q.15.6.6.6Z" transform="translate(-4.85 -5)"/><path class="cls-1" d="M10.05,16.1v.2a.68.68,0,0,0,.4.6h.2a.68.68,0,0,0,.6-.4,7.59,7.59,0,0,1,4.4-5c.1-.1.3-.2.3-.3a.45.45,0,0,0,0-.5.63.63,0,0,0-.8-.3h0A9.3,9.3,0,0,0,10.05,16.1Z" transform="translate(-4.85 -5)"/><path class="cls-1" d="M15.45,33.5a9.45,9.45,0,0,1-2.3-1.6,8.43,8.43,0,0,1-2.1-3.5.57.57,0,0,0-.7-.4.32.32,0,0,0-.3.3.3.3,0,0,0,0,.4,9.33,9.33,0,0,0,5,5.8.35.35,0,0,1,.2.1.55.55,0,0,0,.5-.3c0-.1.1-.2.1-.3A1,1,0,0,0,15.45,33.5Z" transform="translate(-4.85 -5)"/><path class="cls-1" d="M24.65,13a.52.52,0,0,0,.4-.2A.53.53,0,0,0,25,12a9.35,9.35,0,0,0-7.3-2.3h0a.56.56,0,0,0-.5.6v.1a.56.56,0,0,0,.6.5h0a8,8,0,0,1,6.4,2,1.34,1.34,0,0,0,.5.1Z" transform="translate(-4.85 -5)"/><path class="cls-1" d="M12.45,21.2a.65.65,0,0,0-.6.6v4.3a8.57,8.57,0,0,0,.5,2.7.66.66,0,0,0,.5.4.65.65,0,0,0,.6-.6v-.2h0a5.38,5.38,0,0,1-.4-2.2V21.9C13.05,21.4,12.85,21.2,12.45,21.2Z" transform="translate(-4.85 -5)"/><path class="cls-1" d="M25.35,23.9a.65.65,0,0,0,.6-.6V19a8.57,8.57,0,0,0-.5-2.7.63.63,0,0,0-.8-.3.66.66,0,0,0-.4.5v.2h0a5.38,5.38,0,0,1,.4,2.2v4.3a.84.84,0,0,0,.7.7Z" transform="translate(-4.85 -5)"/><path class="cls-1" d="M15.65,14.2a1.38,1.38,0,0,0,.3-.4c0-.2,0-.3-.1-.4a.63.63,0,0,0-.8-.2,7,7,0,0,0-3.2,5.9v.5a.6.6,0,0,0,1.2,0h0v-.5a5.8,5.8,0,0,1,2.6-4.9Z" transform="translate(-4.85 -5)"/><path class="cls-1" d="M24.05,15.1a.52.52,0,0,0,0-.8l-.2-.2a7.13,7.13,0,0,0-6.5-1.9.63.63,0,0,0-.5.6v.1a.57.57,0,0,0,.7.4,5.85,5.85,0,0,1,1.3-.2A5.66,5.66,0,0,1,23,14.8l.2.2a.76.76,0,0,0,.4.2.44.44,0,0,0,.5-.1Z" transform="translate(-4.85 -5)"/><path class="cls-1" d="M20.55,32.9a.63.63,0,0,0,.5-.6v-.1a.57.57,0,0,0-.7-.4,5.85,5.85,0,0,1-1.3.2A5.66,5.66,0,0,1,15,30.3l-.2-.2a.61.61,0,0,0-.8,0c-.3,0-.4.1-.4.3s0,.3.2.4h0c.1.1.1.2.2.2a7.12,7.12,0,0,0,5,2.1,10,10,0,0,0,1.6-.2Z" transform="translate(-4.85 -5)"/><path class="cls-1" d="M15.35,16a4.69,4.69,0,0,0-1.1,3.1v4.5a.6.6,0,1,0,1.2,0V19.1a3.78,3.78,0,0,1,.8-2.3c.1-.1.1-.2.1-.4a.52.52,0,0,0-.2-.4.47.47,0,0,0-.8,0Z" transform="translate(-4.85 -5)"/><path class="cls-1" d="M19,30.7a5,5,0,0,0,1.2-.2.61.61,0,0,0-.2-1.2h-.1a3.49,3.49,0,0,1-4.3-2.5,2.77,2.77,0,0,1-.1-.9h0a.6.6,0,0,0-1.2,0V26A4.63,4.63,0,0,0,19,30.7Z" transform="translate(-4.85 -5)"/><path class="cls-1" d="M22.45,19a.65.65,0,0,0,.6.6h0a.65.65,0,0,0,.6-.6h0A4.61,4.61,0,0,0,19,14.4c-.4,0-.8.1-1.2.1a.54.54,0,0,0-.4.3.6.6,0,0,0-.1.4.57.57,0,0,0,.7.4,2.77,2.77,0,0,1,.9-.1,3.63,3.63,0,0,1,3.6,3.5Z" transform="translate(-4.85 -5)"/><path class="cls-1" d="M21.25,19A2.26,2.26,0,0,0,19,16.7a2.39,2.39,0,0,0-2.2,1.5.3.3,0,0,0,0,.4c.1.1.2.3.3.3a.67.67,0,0,0,.8-.3,1.23,1.23,0,0,1,1.1-.7,1.22,1.22,0,0,1,1.2,1.2v1.3a.65.65,0,0,0,.6.6h0a.65.65,0,0,0,.6-.6V19Z" transform="translate(-4.85 -5)"/><path class="cls-1" d="M17.15,19.9a.65.65,0,0,0-.6.6v5.6a2.92,2.92,0,0,0,.2.9.66.66,0,0,0,.5.4h.2a.63.63,0,0,0,.3-.8h0a.6.6,0,0,1-.1-.4V20.6c.1-.5-.2-.7-.5-.7Z" transform="translate(-4.85 -5)"/><path class="cls-1" d="M21.25,22.5a.6.6,0,0,0-1.2,0V26a1.22,1.22,0,0,1-1.2,1.2h0a.52.52,0,0,0-.4.2.76.76,0,0,0-.2.4.65.65,0,0,0,.6.6h0a2.33,2.33,0,0,0,2.3-2.3V22.5Z" transform="translate(-4.85 -5)"/><path class="cls-1" d="M32.45,22.6h-.1a8.85,8.85,0,0,0-2.3,0H30a10.88,10.88,0,0,0-2.4.7h-.1A10.06,10.06,0,0,0,25,25h0a9.51,9.51,0,0,0-1.5,2,5,5,0,0,0,.2-1.2V21.2a.6.6,0,1,0-1.2,0v4.6a4,4,0,0,1-.8,2.3c-.1.1-.1.2-.1.4a.65.65,0,0,0,.6.6.52.52,0,0,0,.4-.2,2.09,2.09,0,0,0,.4-.6,8.51,8.51,0,0,0-.4,2.2c-.1.1-.2.2-.3.2a1.38,1.38,0,0,0-.3.4c0,.2,0,.3.1.4a.55.55,0,0,0,.5.3h0a5.85,5.85,0,0,0,.2,1.3,8,8,0,0,1-5,.8.75.75,0,0,0-.7.5c-.1.3.2.6.5.7h0a9.88,9.88,0,0,0,5.6-.8,5.36,5.36,0,0,0,.5,1.1c-.3.1-.6.3-.9.4a.57.57,0,0,0-.4.7.68.68,0,0,0,.6.4h.2a3.7,3.7,0,0,0,1.1-.5,8.88,8.88,0,0,0,12.3,1.9A8.77,8.77,0,0,0,38.45,26a10.43,10.43,0,0,0-6-3.4Zm-1.3,16.3a7.6,7.6,0,1,1,7.6-7.6A7.6,7.6,0,0,1,31.15,38.9Z" transform="translate(-4.85 -5)"/><path class="cls-1" d="M34.85,27.2a.61.61,0,0,0-.8,0l-3.4,3.4-1.1-1.1a.61.61,0,0,0-.8,0l-1.7,1.7a.61.61,0,0,0,0,.8l3.2,3.2a.61.61,0,0,0,.8,0l5.5-5.5a.61.61,0,0,0,0-.8Zm-4.2,6.7-2.3-2.3.8-.8,1.1,1.1a.61.61,0,0,0,.8,0l3.4-3.4.8.8Z" transform="translate(-4.85 -5)"/></g></svg>