<svg id="Capa_1" data-name="Capa 1" xmlns="http://www.w3.org/2000/svg" viewBox="0 0 45 35.8"><defs><style>.cls-1{fill:#2045f4;}</style></defs><path class="cls-1" d="M7.41,11.8h30V23.3h1.46V10.4H6V23.3H7.41Z" transform="translate(0 -4.6)"/><path class="cls-1" d="M19.42,19a3,3,0,1,0,3-2.9A3,3,0,0,0,19.42,19Zm4.49,0a1.46,1.46,0,1,1-1.46-1.4A1.4,1.4,0,0,1,23.91,19Z" transform="translate(0 -4.6)"/><path class="cls-1" d="M7.41,7.5h30V8.9h-30Z" transform="translate(0 -4.6)"/><path class="cls-1" d="M8.87,4.6H35.81V6H8.87Z" transform="translate(0 -4.6)"/><path class="cls-1" d="M37.48,25.4,31,22.9a2.43,2.43,0,0,0-2.19.3l-10,7.7L3.24,23a2.26,2.26,0,0,0-3,.9,3.25,3.25,0,0,0-.21,1v1.8a2.13,2.13,0,0,0,1.15,1.9L22.34,40.1a2.19,2.19,0,0,0,1.15.3,1.39,1.39,0,0,0,.63-.1l13.47-3.4H45V25.4Zm-14,13.5a.47.47,0,0,1-.52-.1L1.77,27.3a.61.61,0,0,1-.31-.6V24.9a.55.55,0,0,1,.42-.6c.1-.1.21-.1.42-.1a.79.79,0,0,1,.41.1L23.28,34.8l7.42-4.2L30,29.4l-6.79,3.8-3-1.5,9.5-7.3a1,1,0,0,1,.73-.1l6.16,2.4v9Zm19.84-3.5H38.11V26.8h5.22Z" transform="translate(0 -4.6)"/><path class="cls-1" d="M39.57,28.3h1.57v3.6H39.68V28.3Z" transform="translate(0 -4.6)"/><path class="cls-1" d="M35.81,22.5V14.6H34.66a.37.37,0,0,1-.41-.4v-1H10.44v1.1a.37.37,0,0,1-.42.4H8.87v8.6H10a.38.38,0,0,1,.42.4v1.1h14.2V23.4H11.9A1.86,1.86,0,0,0,10.44,22V16.2a1.87,1.87,0,0,0,1.46-1.4h21a1.86,1.86,0,0,0,1.46,1.4v6.4h1.46Z" transform="translate(0 -4.6)"/></svg>