<svg id="Capa_1" data-name="Capa 1" xmlns="http://www.w3.org/2000/svg" viewBox="0 0 38 38"><defs><style>.cls-1{fill:#1ad5b1;}</style></defs><path class="cls-1" d="M22.5,14.5a.65.65,0,0,1-.6-.6H20.7a1.74,1.74,0,0,0,1.2,1.7v1.3h1.2V15.6a1.84,1.84,0,0,0,1.2-1.7,1.79,1.79,0,0,0-1.8-1.8.6.6,0,1,1,.6-.6h1.2a1.74,1.74,0,0,0-1.2-1.7V8.4H21.9V9.7a1.84,1.84,0,0,0-1.2,1.7,1.79,1.79,0,0,0,1.8,1.8.65.65,0,0,1,.6.6C23.1,14.3,22.9,14.5,22.5,14.5Z" transform="translate(-3.5 -3.5)"/><path class="cls-1" d="M41.5,21.9V3.5H3.5V21.9h9.8v3.4a5.61,5.61,0,0,0,.9,3.1l1.5,2.3v1H14.5v6.1H24.9a9.18,9.18,0,1,0,7.3-14.7h-.6V21.8h9.9ZM15.8,36.6V32.9h7.4a9.25,9.25,0,0,0,1,3.7Zm24.5-4.3a8,8,0,1,1-8-8A8,8,0,0,1,40.3,32.3Zm-9.8-9a9.16,9.16,0,0,0-7.3,8.4H17V30.3l-1.7-2.6a4,4,0,0,1-.7-2.4V20.7H4.7V4.7H40.2V20.6h-22V17.8a6.63,6.63,0,0,0,4.3,1.5H36.6v-.6a1.79,1.79,0,0,1,1.8-1.8H39V8.4h-.5a1.79,1.79,0,0,1-1.8-1.8V6H8.4v.6A1.79,1.79,0,0,1,6.6,8.4H6V17h.6a1.79,1.79,0,0,1,1.8,1.8v.6h6.1V15.1a1.2,1.2,0,1,1,2.4,0v9.2h.6a3.12,3.12,0,0,1,3.1,3.1h1.2a4.22,4.22,0,0,0-3.7-4.2V21.9H30.5ZM17,13v-.4a5.5,5.5,0,1,1,5.5,5.5A5.6,5.6,0,0,1,18.2,16V15A2.7,2.7,0,0,0,17,13Zm-1.2-.3a2.48,2.48,0,0,0-2.5,2.5v3.1H9.6a3.11,3.11,0,0,0-2.4-2.4V9.6A3.11,3.11,0,0,0,9.6,7.2h9.1A6.51,6.51,0,0,0,15.8,12.7ZM26.4,7.2h9.1a3.11,3.11,0,0,0,2.4,2.4v6.3a3.11,3.11,0,0,0-2.4,2.4H26.4a6.77,6.77,0,0,0,2.9-5.5A7,7,0,0,0,26.4,7.2Z" transform="translate(-3.5 -3.5)"/><path class="cls-1" d="M29.6,32.3,25.9,36l2.7,2.7L32.3,35,36,38.7,38.7,36,35,32.3l3.7-3.7L36,25.9l-3.7,3.7-3.7-3.7-2.7,2.7Zm2.7-1L36,27.6l1,1-3.7,3.7L37,36l-1,1-3.7-3.7L28.6,37l-1-1,3.7-3.7-3.7-3.7,1-1Z" transform="translate(-3.5 -3.5)"/></svg>