<?xml version="1.0" encoding="utf-8"?>
<!-- Generator: Adobe Illustrator 23.1.1, SVG Export Plug-In . SVG Version: 6.00 Build 0)  -->
<svg version="1.1" id="Capa_1" xmlns="http://www.w3.org/2000/svg" xmlns:xlink="http://www.w3.org/1999/xlink" x="0px" y="0px"
	 viewBox="0 0 9.4 7.9" style="enable-background:new 0 0 9.4 7.9;" xml:space="preserve">
<style type="text/css">
	.st0{fill:#FFFFFF;}
</style>
<path class="st0" d="M9.3,1.1C8.9,1.2,8.6,1.3,8.2,1.4c0.4-0.2,0.7-0.6,0.8-1C8.7,0.6,8.3,0.7,7.8,0.8C7.5,0.4,7,0.2,6.4,0.2
	c-1.2,0-2.1,1.1-1.8,2.3c-1.6-0.1-3-0.8-3.9-2c-0.5,0.8-0.3,2,0.6,2.5C1,3.1,0.7,3,0.5,2.8c0,0.9,0.6,1.7,1.5,1.9
	c-0.3,0.1-0.6,0.1-0.9,0C1.4,5.5,2.1,6,2.9,6C2.1,6.7,1.1,6.9,0.1,6.8C0.9,7.4,1.9,7.7,3,7.7c3.5,0,5.5-3,5.4-5.6
	C8.7,1.8,9,1.5,9.3,1.1z"/>
</svg>
